<?xml version="1.0" encoding="utf-8" standalone="no"?>
<!DOCTYPE svg PUBLIC "-//W3C//DTD SVG 1.1//EN"
  "http://www.w3.org/Graphics/SVG/1.1/DTD/svg11.dtd">
<!-- Created with matplotlib (https://matplotlib.org/) -->
<svg height="1080pt" version="1.1" viewBox="0 0 1080 1080" width="1080pt" xmlns="http://www.w3.org/2000/svg" xmlns:xlink="http://www.w3.org/1999/xlink">
 <metadata>
  <rdf:RDF xmlns:cc="http://creativecommons.org/ns#" xmlns:dc="http://purl.org/dc/elements/1.1/" xmlns:rdf="http://www.w3.org/1999/02/22-rdf-syntax-ns#">
   <cc:Work>
    <dc:type rdf:resource="http://purl.org/dc/dcmitype/StillImage"/>
    <dc:date>2022-02-02T22:50:06.307953</dc:date>
    <dc:format>image/svg+xml</dc:format>
    <dc:creator>
     <cc:Agent>
      <dc:title>Matplotlib v3.3.4, https://matplotlib.org/</dc:title>
     </cc:Agent>
    </dc:creator>
   </cc:Work>
  </rdf:RDF>
 </metadata>
 <defs>
  <style type="text/css">*{stroke-linecap:butt;stroke-linejoin:round;}</style>
 </defs>
 <g id="figure_1">
  <g id="patch_1">
   <path d="M 0 1080 
L 1080 1080 
L 1080 0 
L 0 0 
z
" style="fill:none;"/>
  </g>
  <g id="axes_1">
   <g id="patch_2">
    <path d="M 135 945 
L 972 945 
L 972 129.6 
L 135 129.6 
z
" style="fill:#ffffff;"/>
   </g>
   <g id="LineCollection_1">
    <path clip-path="url(#p85e2bd5c73)" d="M 543.132808 722.948711 
L 459.527237 681.058714 
" style="fill:none;stroke:#808080;stroke-width:2;"/>
    <path clip-path="url(#p85e2bd5c73)" d="M 543.132808 722.948711 
L 635.130758 755.333949 
" style="fill:none;stroke:#808080;stroke-width:2;"/>
    <path clip-path="url(#p85e2bd5c73)" d="M 459.527237 681.058714 
L 388.899798 626.449216 
" style="fill:none;stroke:#808080;stroke-width:2;"/>
    <path clip-path="url(#p85e2bd5c73)" d="M 635.130758 755.333949 
L 731.441809 787.171439 
" style="fill:none;stroke:#808080;stroke-width:2;"/>
    <path clip-path="url(#p85e2bd5c73)" d="M 847.690807 482.777072 
L 801.682516 518.741668 
" style="fill:none;stroke:#808080;stroke-width:2;"/>
    <path clip-path="url(#p85e2bd5c73)" d="M 847.690807 482.777072 
L 892.040564 447.534688 
" style="fill:none;stroke:#808080;stroke-width:2;"/>
    <path clip-path="url(#p85e2bd5c73)" d="M 333.62006 559.355992 
L 388.899798 626.449216 
" style="fill:none;stroke:#808080;stroke-width:2;"/>
    <path clip-path="url(#p85e2bd5c73)" d="M 333.62006 559.355992 
L 297.439271 483.017829 
" style="fill:none;stroke:#808080;stroke-width:2;"/>
    <path clip-path="url(#p85e2bd5c73)" d="M 280.120259 399.521238 
L 297.439271 483.017829 
" style="fill:none;stroke:#808080;stroke-width:2;"/>
    <path clip-path="url(#p85e2bd5c73)" d="M 280.120259 399.521238 
L 277.156258 313.83134 
" style="fill:none;stroke:#808080;stroke-width:2;"/>
    <path clip-path="url(#p85e2bd5c73)" d="M 862.184953 739.104114 
L 802.351738 753.892032 
" style="fill:none;stroke:#808080;stroke-width:2;"/>
    <path clip-path="url(#p85e2bd5c73)" d="M 590.76371 205.984003 
L 632.729592 208.072625 
" style="fill:none;stroke:#808080;stroke-width:2;"/>
    <path clip-path="url(#p85e2bd5c73)" d="M 632.729592 208.072625 
L 674.163312 196.554457 
" style="fill:none;stroke:#808080;stroke-width:2;"/>
    <path clip-path="url(#p85e2bd5c73)" d="M 440.51359 166.663636 
L 382.617899 199.12604 
" style="fill:none;stroke:#808080;stroke-width:2;"/>
    <path clip-path="url(#p85e2bd5c73)" d="M 792.91714 833.427141 
L 731.441809 787.171439 
" style="fill:none;stroke:#808080;stroke-width:2;"/>
    <path clip-path="url(#p85e2bd5c73)" d="M 792.91714 833.427141 
L 838.936624 874.420902 
" style="fill:none;stroke:#808080;stroke-width:2;"/>
    <path clip-path="url(#p85e2bd5c73)" d="M 714.035124 907.936364 
L 719.587016 853.234855 
" style="fill:none;stroke:#808080;stroke-width:2;"/>
    <path clip-path="url(#p85e2bd5c73)" d="M 719.587016 853.234855 
L 731.441809 787.171439 
" style="fill:none;stroke:#808080;stroke-width:2;"/>
    <path clip-path="url(#p85e2bd5c73)" d="M 173.045455 242.92365 
L 216.255864 276.63798 
" style="fill:none;stroke:#808080;stroke-width:2;"/>
    <path clip-path="url(#p85e2bd5c73)" d="M 216.255864 276.63798 
L 277.156258 313.83134 
" style="fill:none;stroke:#808080;stroke-width:2;"/>
    <path clip-path="url(#p85e2bd5c73)" d="M 382.617899 199.12604 
L 329.197614 251.665186 
" style="fill:none;stroke:#808080;stroke-width:2;"/>
    <path clip-path="url(#p85e2bd5c73)" d="M 329.197614 251.665186 
L 277.156258 313.83134 
" style="fill:none;stroke:#808080;stroke-width:2;"/>
    <path clip-path="url(#p85e2bd5c73)" d="M 801.682516 518.741668 
L 752.814225 552.745666 
" style="fill:none;stroke:#808080;stroke-width:2;"/>
    <path clip-path="url(#p85e2bd5c73)" d="M 802.351738 753.892032 
L 731.441809 787.171439 
" style="fill:none;stroke:#808080;stroke-width:2;"/>
    <path clip-path="url(#p85e2bd5c73)" d="M 933.954545 418.553572 
L 892.040564 447.534688 
" style="fill:none;stroke:#808080;stroke-width:2;"/>
   </g>
   <g id="matplotlib.axis_1">
    <g id="xtick_1"/>
    <g id="xtick_2"/>
    <g id="xtick_3"/>
    <g id="xtick_4"/>
    <g id="xtick_5"/>
    <g id="xtick_6"/>
    <g id="xtick_7"/>
    <g id="xtick_8"/>
   </g>
   <g id="matplotlib.axis_2">
    <g id="ytick_1"/>
    <g id="ytick_2"/>
    <g id="ytick_3"/>
    <g id="ytick_4"/>
    <g id="ytick_5"/>
    <g id="ytick_6"/>
    <g id="ytick_7"/>
    <g id="ytick_8"/>
   </g>
   <g id="PathCollection_1">
    <path clip-path="url(#p85e2bd5c73)" d="M 543.132808 741.988144 
C 548.182124 741.988144 553.025314 739.982029 556.59572 736.411623 
C 560.166126 732.841217 562.172241 727.998027 562.172241 722.948711 
C 562.172241 717.899394 560.166126 713.056205 556.59572 709.485799 
C 553.025314 705.915393 548.182124 703.909278 543.132808 703.909278 
C 538.083491 703.909278 533.240302 705.915393 529.669896 709.485799 
C 526.09949 713.056205 524.093375 717.899394 524.093375 722.948711 
C 524.093375 727.998027 526.09949 732.841217 529.669896 736.411623 
C 533.240302 739.982029 538.083491 741.988144 543.132808 741.988144 
z
" style="fill:#2600d8;fill-opacity:0.298039;stroke:#000000;"/>
    <path clip-path="url(#p85e2bd5c73)" d="M 459.527237 700.09158 
C 464.574812 700.09158 469.416331 698.086157 472.985506 694.516982 
C 476.554681 690.947808 478.560104 686.106289 478.560104 681.058714 
C 478.560104 676.011138 476.554681 671.169619 472.985506 667.600445 
C 469.416331 664.03127 464.574812 662.025847 459.527237 662.025847 
C 454.479662 662.025847 449.638143 664.03127 446.068968 667.600445 
C 442.499794 671.169619 440.494371 676.011138 440.494371 681.058714 
C 440.494371 686.106289 442.499794 690.947808 446.068968 694.516982 
C 449.638143 698.086157 454.479662 700.09158 459.527237 700.09158 
z
" style="fill:#7d0081;stroke:#000000;"/>
    <path clip-path="url(#p85e2bd5c73)" d="M 635.130758 774.287841 
C 640.157389 774.287841 644.978819 772.290739 648.533184 768.736374 
C 652.087548 765.18201 654.08465 760.36058 654.08465 755.333949 
C 654.08465 750.307319 652.087548 745.485889 648.533184 741.931524 
C 644.978819 738.377159 640.157389 736.380058 635.130758 736.380058 
C 630.104128 736.380058 625.282698 738.377159 621.728333 741.931524 
C 618.173969 745.485889 616.176867 750.307319 616.176867 755.333949 
C 616.176867 760.36058 618.173969 765.18201 621.728333 768.736374 
C 625.282698 772.290739 630.104128 774.287841 635.130758 774.287841 
z
" style="fill:#2500d9;fill-opacity:0.298039;stroke:#000000;"/>
    <path clip-path="url(#p85e2bd5c73)" d="M 847.690807 501.842748 
C 852.747083 501.842748 857.596948 499.833868 861.172276 496.258541 
C 864.747603 492.683213 866.756483 487.833348 866.756483 482.777072 
C 866.756483 477.720795 864.747603 472.87093 861.172276 469.295603 
C 857.596948 465.720276 852.747083 463.711396 847.690807 463.711396 
C 842.63453 463.711396 837.784665 465.720276 834.209338 469.295603 
C 830.634011 472.87093 828.625131 477.720795 828.625131 482.777072 
C 828.625131 487.833348 830.634011 492.683213 834.209338 496.258541 
C 837.784665 499.833868 842.63453 501.842748 847.690807 501.842748 
z
" style="fill:#2200dc;fill-opacity:0.298039;stroke:#000000;"/>
    <path clip-path="url(#p85e2bd5c73)" d="M 333.62006 578.604369 
C 338.724789 578.604369 343.621129 576.576238 347.230718 572.96665 
C 350.840307 569.357061 352.868437 564.460721 352.868437 559.355992 
C 352.868437 554.251263 350.840307 549.354923 347.230718 545.745335 
C 343.621129 542.135746 338.724789 540.107616 333.62006 540.107616 
C 328.515331 540.107616 323.618991 542.135746 320.009403 545.745335 
C 316.399814 549.354923 314.371684 554.251263 314.371684 559.355992 
C 314.371684 564.460721 316.399814 569.357061 320.009403 572.96665 
C 323.618991 576.576238 328.515331 578.604369 333.62006 578.604369 
z
" style="fill:#4400ba;stroke:#000000;"/>
    <path clip-path="url(#p85e2bd5c73)" d="M 388.899798 645.710577 
C 394.007971 645.710577 398.907614 643.681078 402.519637 640.069055 
C 406.13166 636.457032 408.161159 631.557389 408.161159 626.449216 
C 408.161159 621.341044 406.13166 616.441401 402.519637 612.829378 
C 398.907614 609.217355 394.007971 607.187856 388.899798 607.187856 
C 383.791626 607.187856 378.891983 609.217355 375.27996 612.829378 
C 371.667937 616.441401 369.638438 621.341044 369.638438 626.449216 
C 369.638438 631.557389 371.667937 636.457032 375.27996 640.069055 
C 378.891983 643.681078 383.791626 645.710577 388.899798 645.710577 
z
" style="fill:#4500b9;stroke:#000000;"/>
    <path clip-path="url(#p85e2bd5c73)" d="M 280.120259 418.763119 
C 285.223265 418.763119 290.117953 416.735673 293.726324 413.127303 
C 297.334694 409.518932 299.36214 404.624245 299.36214 399.521238 
C 299.36214 394.418231 297.334694 389.523544 293.726324 385.915173 
C 290.117953 382.306803 285.223265 380.279357 280.120259 380.279357 
C 275.017252 380.279357 270.122565 382.306803 266.514194 385.915173 
C 262.905823 389.523544 260.878377 394.418231 260.878377 399.521238 
C 260.878377 404.624245 262.905823 409.518932 266.514194 413.127303 
C 270.122565 416.735673 275.017252 418.763119 280.120259 418.763119 
z
" style="fill:#2300db;fill-opacity:0.298039;stroke:#000000;"/>
    <path clip-path="url(#p85e2bd5c73)" d="M 862.184953 749.265315 
C 864.879735 749.265315 867.464509 748.194666 869.370007 746.289168 
C 871.275506 744.383669 872.346154 741.798896 872.346154 739.104114 
C 872.346154 736.409332 871.275506 733.824558 869.370007 731.91906 
C 867.464509 730.013561 864.879735 728.942913 862.184953 728.942913 
C 859.490171 728.942913 856.905398 730.013561 854.999899 731.91906 
C 853.094401 733.824558 852.023753 736.409332 852.023753 739.104114 
C 852.023753 741.798896 853.094401 744.383669 854.999899 746.289168 
C 856.905398 748.194666 859.490171 749.265315 862.184953 749.265315 
z
" style="fill:#da0024;fill-opacity:0.298039;stroke:#000000;"/>
    <path clip-path="url(#p85e2bd5c73)" d="M 590.76371 214.513364 
C 593.025723 214.513364 595.195395 213.614657 596.79488 212.015172 
C 598.394364 210.415688 599.293072 208.246016 599.293072 205.984003 
C 599.293072 203.72199 598.394364 201.552319 596.79488 199.952834 
C 595.195395 198.35335 593.025723 197.454642 590.76371 197.454642 
C 588.501697 197.454642 586.332026 198.35335 584.732541 199.952834 
C 583.133057 201.552319 582.234349 203.72199 582.234349 205.984003 
C 582.234349 208.246016 583.133057 210.415688 584.732541 212.015172 
C 586.332026 213.614657 588.501697 214.513364 590.76371 214.513364 
z
" style="fill:#dc0022;fill-opacity:0.298039;stroke:#000000;"/>
    <path clip-path="url(#p85e2bd5c73)" d="M 632.729592 217.440122 
C 635.213882 217.440122 637.596755 216.453103 639.353413 214.696445 
C 641.110071 212.939788 642.097089 210.556914 642.097089 208.072625 
C 642.097089 205.588336 641.110071 203.205462 639.353413 201.448804 
C 637.596755 199.692146 635.213882 198.705128 632.729592 198.705128 
C 630.245303 198.705128 627.86243 199.692146 626.105772 201.448804 
C 624.349114 203.205462 623.362095 205.588336 623.362095 208.072625 
C 623.362095 210.556914 624.349114 212.939788 626.105772 214.696445 
C 627.86243 216.453103 630.245303 217.440122 632.729592 217.440122 
z
" style="fill:#dc0022;fill-opacity:0.298039;stroke:#000000;"/>
    <path clip-path="url(#p85e2bd5c73)" d="M 674.163312 203.713367 
C 676.061877 203.713367 677.882937 202.959059 679.225426 201.616571 
C 680.567914 200.274082 681.322222 198.453022 681.322222 196.554457 
C 681.322222 194.655891 680.567914 192.834831 679.225426 191.492342 
C 677.882937 190.149854 676.061877 189.395546 674.163312 189.395546 
C 672.264746 189.395546 670.443686 190.149854 669.101197 191.492342 
C 667.758709 192.834831 667.004401 194.655891 667.004401 196.554457 
C 667.004401 198.453022 667.758709 200.274082 669.101197 201.616571 
C 670.443686 202.959059 672.264746 203.713367 674.163312 203.713367 
z
" style="fill:#da0024;fill-opacity:0.298039;stroke:#000000;"/>
    <path clip-path="url(#p85e2bd5c73)" d="M 440.51359 175.481232 
C 442.852044 175.481232 445.095035 174.552155 446.748572 172.898618 
C 448.402109 171.245082 449.331186 169.00209 449.331186 166.663636 
C 449.331186 164.325183 448.402109 162.082191 446.748572 160.428654 
C 445.095035 158.775118 442.852044 157.84604 440.51359 157.84604 
C 438.175136 157.84604 435.932145 158.775118 434.278608 160.428654 
C 432.625072 162.082191 431.695994 164.325183 431.695994 166.663636 
C 431.695994 169.00209 432.625072 171.245082 434.278608 172.898618 
C 435.932145 174.552155 438.175136 175.481232 440.51359 175.481232 
z
" style="fill:#db0023;fill-opacity:0.298039;stroke:#000000;"/>
    <path clip-path="url(#p85e2bd5c73)" d="M 792.91714 843.057821 
C 795.471226 843.057821 797.921047 842.043072 799.727059 840.23706 
C 801.53307 838.431048 802.54782 835.981227 802.54782 833.427141 
C 802.54782 830.873055 801.53307 828.423233 799.727059 826.617222 
C 797.921047 824.81121 795.471226 823.796461 792.91714 823.796461 
C 790.363053 823.796461 787.913232 824.81121 786.10722 826.617222 
C 784.301209 828.423233 783.286459 830.873055 783.286459 833.427141 
C 783.286459 835.981227 784.301209 838.431048 786.10722 840.23706 
C 787.913232 842.043072 790.363053 843.057821 792.91714 843.057821 
z
" style="fill:#dc0022;fill-opacity:0.298039;stroke:#000000;"/>
    <path clip-path="url(#p85e2bd5c73)" d="M 714.035124 927.015148 
C 719.094877 927.015148 723.948076 925.004887 727.525862 921.427101 
C 731.103647 917.849316 733.113908 912.996116 733.113908 907.936364 
C 733.113908 902.876611 731.103647 898.023411 727.525862 894.445626 
C 723.948076 890.867841 719.094877 888.85758 714.035124 888.85758 
C 708.975372 888.85758 704.122172 890.867841 700.544387 894.445626 
C 696.966601 898.023411 694.95634 902.876611 694.95634 907.936364 
C 694.95634 912.996116 696.966601 917.849316 700.544387 921.427101 
C 704.122172 925.004887 708.975372 927.015148 714.035124 927.015148 
z
" style="fill:#2600d8;fill-opacity:0.298039;stroke:#000000;"/>
    <path clip-path="url(#p85e2bd5c73)" d="M 719.587016 872.450734 
C 724.683127 872.450734 729.5712 870.426028 733.174694 866.822534 
C 736.778189 863.219039 738.802895 858.330966 738.802895 853.234855 
C 738.802895 848.138745 736.778189 843.250671 733.174694 839.647177 
C 729.5712 836.043683 724.683127 834.018976 719.587016 834.018976 
C 714.490905 834.018976 709.602832 836.043683 705.999338 839.647177 
C 702.395843 843.250671 700.371137 848.138745 700.371137 853.234855 
C 700.371137 858.330966 702.395843 863.219039 705.999338 866.822534 
C 709.602832 870.426028 714.490905 872.450734 719.587016 872.450734 
z
" style="fill:#2600d8;fill-opacity:0.298039;stroke:#000000;"/>
    <path clip-path="url(#p85e2bd5c73)" d="M 297.439271 502.272699 
C 302.545722 502.272699 307.443713 500.243884 311.05452 496.633078 
C 314.665326 493.022272 316.69414 488.12428 316.69414 483.017829 
C 316.69414 477.911378 314.665326 473.013387 311.05452 469.402581 
C 307.443713 465.791774 302.545722 463.76296 297.439271 463.76296 
C 292.33282 463.76296 287.434828 465.791774 283.824022 469.402581 
C 280.213216 473.013387 278.184401 477.911378 278.184401 483.017829 
C 278.184401 488.12428 280.213216 493.022272 283.824022 496.633078 
C 287.434828 500.243884 292.33282 502.272699 297.439271 502.272699 
z
" style="fill:#2200dc;fill-opacity:0.298039;stroke:#000000;"/>
    <path clip-path="url(#p85e2bd5c73)" d="M 173.045455 264.470112 
C 178.759643 264.470112 184.240562 262.19984 188.281104 258.159299 
C 192.321645 254.118758 194.591916 248.637838 194.591916 242.92365 
C 194.591916 237.209462 192.321645 231.728542 188.281104 227.688001 
C 184.240562 223.64746 178.759643 221.377189 173.045455 221.377189 
C 167.331266 221.377189 161.850347 223.64746 157.809806 227.688001 
C 153.769264 231.728542 151.498993 237.209462 151.498993 242.92365 
C 151.498993 248.637838 153.769264 254.118758 157.809806 258.159299 
C 161.850347 262.19984 167.331266 264.470112 173.045455 264.470112 
z
" style="fill:#808080;fill-opacity:0.298039;stroke:#000000;"/>
    <path clip-path="url(#p85e2bd5c73)" d="M 216.255864 298.369294 
C 222.019076 298.369294 227.547017 296.079545 231.622223 292.004339 
C 235.697429 287.929133 237.987178 282.401192 237.987178 276.63798 
C 237.987178 270.874768 235.697429 265.346827 231.622223 261.271621 
C 227.547017 257.196414 222.019076 254.906666 216.255864 254.906666 
C 210.492652 254.906666 204.964711 257.196414 200.889505 261.271621 
C 196.814298 265.346827 194.52455 270.874768 194.52455 276.63798 
C 194.52455 282.401192 196.814298 287.929133 200.889505 292.004339 
C 204.964711 296.079545 210.492652 298.369294 216.255864 298.369294 
z
" style="fill:#808080;fill-opacity:0.298039;stroke:#000000;"/>
    <path clip-path="url(#p85e2bd5c73)" d="M 382.617899 207.915238 
C 384.948821 207.915238 387.184589 206.989153 388.8328 205.340942 
C 390.481011 203.692731 391.407097 201.456963 391.407097 199.12604 
C 391.407097 196.795118 390.481011 194.55935 388.8328 192.911139 
C 387.184589 191.262928 384.948821 190.336842 382.617899 190.336842 
C 380.286976 190.336842 378.051208 191.262928 376.402997 192.911139 
C 374.754786 194.55935 373.828701 196.795118 373.828701 199.12604 
C 373.828701 201.456963 374.754786 203.692731 376.402997 205.340942 
C 378.051208 206.989153 380.286976 207.915238 382.617899 207.915238 
z
" style="fill:#db0023;fill-opacity:0.298039;stroke:#000000;"/>
    <path clip-path="url(#p85e2bd5c73)" d="M 329.197614 260.925316 
C 331.65343 260.925316 334.008991 259.94961 335.745515 258.213087 
C 337.482038 256.476563 338.457744 254.121001 338.457744 251.665186 
C 338.457744 249.209371 337.482038 246.853809 335.745515 245.117286 
C 334.008991 243.380762 331.65343 242.405057 329.197614 242.405057 
C 326.741799 242.405057 324.386238 243.380762 322.649714 245.117286 
C 320.913191 246.853809 319.937485 249.209371 319.937485 251.665186 
C 319.937485 254.121001 320.913191 256.476563 322.649714 258.213087 
C 324.386238 259.94961 326.741799 260.925316 329.197614 260.925316 
z
" style="fill:#dc0022;fill-opacity:0.298039;stroke:#000000;"/>
    <path clip-path="url(#p85e2bd5c73)" d="M 801.682516 537.807344 
C 806.738792 537.807344 811.588657 535.798465 815.163984 532.223137 
C 818.739312 528.64781 820.748192 523.797945 820.748192 518.741668 
C 820.748192 513.685392 818.739312 508.835527 815.163984 505.2602 
C 811.588657 501.684872 806.738792 499.675993 801.682516 499.675993 
C 796.626239 499.675993 791.776374 501.684872 788.201047 505.2602 
C 784.62572 508.835527 782.61684 513.685392 782.61684 518.741668 
C 782.61684 523.797945 784.62572 528.64781 788.201047 532.223137 
C 791.776374 535.798465 796.626239 537.807344 801.682516 537.807344 
z
" style="fill:#2200dc;fill-opacity:0.298039;stroke:#000000;"/>
    <path clip-path="url(#p85e2bd5c73)" d="M 277.156258 335.173786 
C 282.81634 335.173786 288.245363 332.925011 292.247646 328.922728 
C 296.249929 324.920445 298.498704 319.491423 298.498704 313.83134 
C 298.498704 308.171257 296.249929 302.742235 292.247646 298.739952 
C 288.245363 294.737669 282.81634 292.488894 277.156258 292.488894 
C 271.496175 292.488894 266.067152 294.737669 262.064869 298.739952 
C 258.062586 302.742235 255.813812 308.171257 255.813812 313.83134 
C 255.813812 319.491423 258.062586 324.920445 262.064869 328.922728 
C 266.067152 332.925011 271.496175 335.173786 277.156258 335.173786 
z
" style="fill:#2400da;fill-opacity:0.298039;stroke:#000000;"/>
    <path clip-path="url(#p85e2bd5c73)" d="M 752.814225 572.449726 
C 758.039802 572.449726 763.052058 570.373582 766.747099 566.67854 
C 770.442141 562.983499 772.518285 557.971243 772.518285 552.745666 
C 772.518285 547.520088 770.442141 542.507832 766.747099 538.812791 
C 763.052058 535.117749 758.039802 533.041605 752.814225 533.041605 
C 747.588647 533.041605 742.576391 535.117749 738.88135 538.812791 
C 735.186308 542.507832 733.110164 547.520088 733.110164 552.745666 
C 733.110164 557.971243 735.186308 562.983499 738.88135 566.67854 
C 742.576391 570.373582 747.588647 572.449726 752.814225 572.449726 
z
" style="fill:#2200dc;fill-opacity:0.298039;stroke:#000000;"/>
    <path clip-path="url(#p85e2bd5c73)" d="M 802.351738 764.065527 
C 805.04978 764.065527 807.637681 762.993583 809.545485 761.085779 
C 811.453289 759.177975 812.525233 756.590074 812.525233 753.892032 
C 812.525233 751.193989 811.453289 748.606089 809.545485 746.698284 
C 807.637681 744.79048 805.04978 743.718537 802.351738 743.718537 
C 799.653695 743.718537 797.065795 744.79048 795.157991 746.698284 
C 793.250186 748.606089 792.178243 751.193989 792.178243 753.892032 
C 792.178243 756.590074 793.250186 759.177975 795.157991 761.085779 
C 797.065795 762.993583 799.653695 764.065527 802.351738 764.065527 
z
" style="fill:#db0023;fill-opacity:0.298039;stroke:#000000;"/>
    <path clip-path="url(#p85e2bd5c73)" d="M 731.441809 808.624877 
C 737.131327 808.624877 742.588584 806.364408 746.611681 802.341311 
C 750.634778 798.318214 752.895247 792.860958 752.895247 787.171439 
C 752.895247 781.481921 750.634778 776.024665 746.611681 772.001568 
C 742.588584 767.978471 737.131327 765.718001 731.441809 765.718001 
C 725.752291 765.718001 720.295035 767.978471 716.271938 772.001568 
C 712.248841 776.024665 709.988371 781.481921 709.988371 787.171439 
C 709.988371 792.860958 712.248841 798.318214 716.271938 802.341311 
C 720.295035 806.364408 725.752291 808.624877 731.441809 808.624877 
z
" style="fill:#808080;fill-opacity:0.298039;stroke:#000000;"/>
    <path clip-path="url(#p85e2bd5c73)" d="M 933.954545 437.540409 
C 938.989914 437.540409 943.819724 435.539836 947.380267 431.979293 
C 950.94081 428.41875 952.941383 423.58894 952.941383 418.553572 
C 952.941383 413.518203 950.94081 408.688393 947.380267 405.12785 
C 943.819724 401.567307 938.989914 399.566734 933.954545 399.566734 
C 928.919177 399.566734 924.089367 401.567307 920.528824 405.12785 
C 916.968281 408.688393 914.967708 413.518203 914.967708 418.553572 
C 914.967708 423.58894 916.968281 428.41875 920.528824 431.979293 
C 924.089367 435.539836 928.919177 437.540409 933.954545 437.540409 
z
" style="fill:#2400da;fill-opacity:0.298039;stroke:#000000;"/>
    <path clip-path="url(#p85e2bd5c73)" d="M 838.936624 881.954162 
C 840.934468 881.954162 842.850754 881.16041 844.263443 879.747721 
C 845.676132 878.335032 846.469883 876.418746 846.469883 874.420902 
C 846.469883 872.423058 845.676132 870.506772 844.263443 869.094083 
C 842.850754 867.681394 840.934468 866.887642 838.936624 866.887642 
C 836.93878 866.887642 835.022494 867.681394 833.609805 869.094083 
C 832.197116 870.506772 831.403364 872.423058 831.403364 874.420902 
C 831.403364 876.418746 832.197116 878.335032 833.609805 879.747721 
C 835.022494 881.16041 836.93878 881.954162 838.936624 881.954162 
z
" style="fill:#da0024;fill-opacity:0.298039;stroke:#000000;"/>
    <path clip-path="url(#p85e2bd5c73)" d="M 892.040564 466.51494 
C 897.074186 466.51494 901.902321 464.515061 905.461629 460.955753 
C 909.020937 457.396445 911.020817 452.568309 911.020817 447.534688 
C 911.020817 442.501066 909.020937 437.67293 905.461629 434.113622 
C 901.902321 430.554314 897.074186 428.554435 892.040564 428.554435 
C 887.006942 428.554435 882.178806 430.554314 878.619498 434.113622 
C 875.06019 437.67293 873.060311 442.501066 873.060311 447.534688 
C 873.060311 452.568309 875.06019 457.396445 878.619498 460.955753 
C 882.178806 464.515061 887.006942 466.51494 892.040564 466.51494 
z
" style="fill:#2400da;fill-opacity:0.298039;stroke:#000000;"/>
   </g>
   <g id="patch_3">
    <path d="M 135 945 
L 135 129.6 
" style="fill:none;stroke:#000000;stroke-linecap:square;stroke-linejoin:miter;stroke-width:0.8;"/>
   </g>
   <g id="patch_4">
    <path d="M 972 945 
L 972 129.6 
" style="fill:none;stroke:#000000;stroke-linecap:square;stroke-linejoin:miter;stroke-width:0.8;"/>
   </g>
   <g id="patch_5">
    <path d="M 135 945 
L 972 945 
" style="fill:none;stroke:#000000;stroke-linecap:square;stroke-linejoin:miter;stroke-width:0.8;"/>
   </g>
   <g id="patch_6">
    <path d="M 135 129.6 
L 972 129.6 
" style="fill:none;stroke:#000000;stroke-linecap:square;stroke-linejoin:miter;stroke-width:0.8;"/>
   </g>
  </g>
 </g>
 <defs>
  <clipPath id="p85e2bd5c73">
   <rect height="815.4" width="837" x="135" y="129.6"/>
  </clipPath>
 </defs>
</svg>
