<?xml version="1.0" encoding="utf-8" standalone="no"?>
<!DOCTYPE svg PUBLIC "-//W3C//DTD SVG 1.1//EN"
  "http://www.w3.org/Graphics/SVG/1.1/DTD/svg11.dtd">
<!-- Created with matplotlib (https://matplotlib.org/) -->
<svg height="288pt" version="1.1" viewBox="0 0 864 288" width="864pt" xmlns="http://www.w3.org/2000/svg" xmlns:xlink="http://www.w3.org/1999/xlink">
 <metadata>
  <rdf:RDF xmlns:cc="http://creativecommons.org/ns#" xmlns:dc="http://purl.org/dc/elements/1.1/" xmlns:rdf="http://www.w3.org/1999/02/22-rdf-syntax-ns#">
   <cc:Work>
    <dc:type rdf:resource="http://purl.org/dc/dcmitype/StillImage"/>
    <dc:date>2022-02-01T13:19:55.117551</dc:date>
    <dc:format>image/svg+xml</dc:format>
    <dc:creator>
     <cc:Agent>
      <dc:title>Matplotlib v3.3.4, https://matplotlib.org/</dc:title>
     </cc:Agent>
    </dc:creator>
   </cc:Work>
  </rdf:RDF>
 </metadata>
 <defs>
  <style type="text/css">*{stroke-linecap:butt;stroke-linejoin:round;}</style>
 </defs>
 <g id="figure_1">
  <g id="patch_1">
   <path d="M 0 288 
L 864 288 
L 864 0 
L 0 0 
z
" style="fill:#ffffff;"/>
  </g>
  <g id="axes_1">
   <g id="patch_2">
    <path d="M 108 256.32 
L 777.6 256.32 
L 777.6 34.56 
L 108 34.56 
z
" style="fill:#ffffff;"/>
   </g>
   <g id="patch_3">
    <path clip-path="url(#p0095419edf)" d="M 211.250631 256.32 
L 240.376338 256.32 
L 240.376338 19.776 
L 211.250631 19.776 
z
" style="fill:#f68b1b;opacity:0.6;stroke:#f68b1b;stroke-linejoin:miter;"/>
   </g>
   <g id="patch_4">
    <path clip-path="url(#p0095419edf)" d="M 415.130579 256.32 
L 444.256285 256.32 
L 444.256285 19.776 
L 415.130579 19.776 
z
" style="fill:#f15a22;opacity:0.6;stroke:#f15a22;stroke-linejoin:miter;"/>
   </g>
   <g id="patch_5">
    <path clip-path="url(#p0095419edf)" d="M 662.699087 256.32 
L 691.824793 256.32 
L 691.824793 19.776 
L 662.699087 19.776 
z
" style="fill:#ed1c24;opacity:0.6;stroke:#ed1c24;stroke-linejoin:miter;"/>
   </g>
   <g id="matplotlib.axis_1">
    <g id="xtick_1">
     <g id="line2d_1">
      <defs>
       <path d="M 0 0 
L 0 -4 
" id="mf2a3e39ca7" style="stroke:#000000;stroke-width:0.8;"/>
      </defs>
      <g>
       <use style="stroke:#000000;stroke-width:0.8;" x="138.436364" xlink:href="#mf2a3e39ca7" y="266.32"/>
      </g>
     </g>
    </g>
    <g id="xtick_2">
     <g id="line2d_2">
      <g>
       <use style="stroke:#000000;stroke-width:0.8;" x="284.064898" xlink:href="#mf2a3e39ca7" y="266.32"/>
      </g>
     </g>
    </g>
    <g id="xtick_3">
     <g id="line2d_3">
      <g>
       <use style="stroke:#000000;stroke-width:0.8;" x="429.693432" xlink:href="#mf2a3e39ca7" y="266.32"/>
      </g>
     </g>
    </g>
    <g id="xtick_4">
     <g id="line2d_4">
      <g>
       <use style="stroke:#000000;stroke-width:0.8;" x="575.321966" xlink:href="#mf2a3e39ca7" y="266.32"/>
      </g>
     </g>
    </g>
    <g id="xtick_5">
     <g id="line2d_5">
      <g>
       <use style="stroke:#000000;stroke-width:0.8;" x="720.9505" xlink:href="#mf2a3e39ca7" y="266.32"/>
      </g>
     </g>
    </g>
    <g id="xtick_6">
     <g id="line2d_6">
      <defs>
       <path d="M 0 0 
L 0 -2 
" id="me257f88b35" style="stroke:#000000;stroke-width:0.6;"/>
      </defs>
      <g>
       <use style="stroke:#000000;stroke-width:0.6;" x="109.310657" xlink:href="#me257f88b35" y="266.32"/>
      </g>
     </g>
    </g>
    <g id="xtick_7">
     <g id="line2d_7">
      <g>
       <use style="stroke:#000000;stroke-width:0.6;" x="115.135798" xlink:href="#me257f88b35" y="266.32"/>
      </g>
     </g>
    </g>
    <g id="xtick_8">
     <g id="line2d_8">
      <g>
       <use style="stroke:#000000;stroke-width:0.6;" x="120.96094" xlink:href="#me257f88b35" y="266.32"/>
      </g>
     </g>
    </g>
    <g id="xtick_9">
     <g id="line2d_9">
      <g>
       <use style="stroke:#000000;stroke-width:0.6;" x="126.786081" xlink:href="#me257f88b35" y="266.32"/>
      </g>
     </g>
    </g>
    <g id="xtick_10">
     <g id="line2d_10">
      <g>
       <use style="stroke:#000000;stroke-width:0.6;" x="132.611222" xlink:href="#me257f88b35" y="266.32"/>
      </g>
     </g>
    </g>
    <g id="xtick_11">
     <g id="line2d_11">
      <g>
       <use style="stroke:#000000;stroke-width:0.6;" x="144.261505" xlink:href="#me257f88b35" y="266.32"/>
      </g>
     </g>
    </g>
    <g id="xtick_12">
     <g id="line2d_12">
      <g>
       <use style="stroke:#000000;stroke-width:0.6;" x="150.086646" xlink:href="#me257f88b35" y="266.32"/>
      </g>
     </g>
    </g>
    <g id="xtick_13">
     <g id="line2d_13">
      <g>
       <use style="stroke:#000000;stroke-width:0.6;" x="155.911788" xlink:href="#me257f88b35" y="266.32"/>
      </g>
     </g>
    </g>
    <g id="xtick_14">
     <g id="line2d_14">
      <g>
       <use style="stroke:#000000;stroke-width:0.6;" x="161.736929" xlink:href="#me257f88b35" y="266.32"/>
      </g>
     </g>
    </g>
    <g id="xtick_15">
     <g id="line2d_15">
      <g>
       <use style="stroke:#000000;stroke-width:0.6;" x="167.56207" xlink:href="#me257f88b35" y="266.32"/>
      </g>
     </g>
    </g>
    <g id="xtick_16">
     <g id="line2d_16">
      <g>
       <use style="stroke:#000000;stroke-width:0.6;" x="173.387212" xlink:href="#me257f88b35" y="266.32"/>
      </g>
     </g>
    </g>
    <g id="xtick_17">
     <g id="line2d_17">
      <g>
       <use style="stroke:#000000;stroke-width:0.6;" x="179.212353" xlink:href="#me257f88b35" y="266.32"/>
      </g>
     </g>
    </g>
    <g id="xtick_18">
     <g id="line2d_18">
      <g>
       <use style="stroke:#000000;stroke-width:0.6;" x="185.037495" xlink:href="#me257f88b35" y="266.32"/>
      </g>
     </g>
    </g>
    <g id="xtick_19">
     <g id="line2d_19">
      <g>
       <use style="stroke:#000000;stroke-width:0.6;" x="190.862636" xlink:href="#me257f88b35" y="266.32"/>
      </g>
     </g>
    </g>
    <g id="xtick_20">
     <g id="line2d_20">
      <g>
       <use style="stroke:#000000;stroke-width:0.6;" x="196.687777" xlink:href="#me257f88b35" y="266.32"/>
      </g>
     </g>
    </g>
    <g id="xtick_21">
     <g id="line2d_21">
      <g>
       <use style="stroke:#000000;stroke-width:0.6;" x="202.512919" xlink:href="#me257f88b35" y="266.32"/>
      </g>
     </g>
    </g>
    <g id="xtick_22">
     <g id="line2d_22">
      <g>
       <use style="stroke:#000000;stroke-width:0.6;" x="208.33806" xlink:href="#me257f88b35" y="266.32"/>
      </g>
     </g>
    </g>
    <g id="xtick_23">
     <g id="line2d_23">
      <g>
       <use style="stroke:#000000;stroke-width:0.6;" x="214.163201" xlink:href="#me257f88b35" y="266.32"/>
      </g>
     </g>
    </g>
    <g id="xtick_24">
     <g id="line2d_24">
      <g>
       <use style="stroke:#000000;stroke-width:0.6;" x="219.988343" xlink:href="#me257f88b35" y="266.32"/>
      </g>
     </g>
    </g>
    <g id="xtick_25">
     <g id="line2d_25">
      <g>
       <use style="stroke:#000000;stroke-width:0.6;" x="225.813484" xlink:href="#me257f88b35" y="266.32"/>
      </g>
     </g>
    </g>
    <g id="xtick_26">
     <g id="line2d_26">
      <g>
       <use style="stroke:#000000;stroke-width:0.6;" x="231.638625" xlink:href="#me257f88b35" y="266.32"/>
      </g>
     </g>
    </g>
    <g id="xtick_27">
     <g id="line2d_27">
      <g>
       <use style="stroke:#000000;stroke-width:0.6;" x="237.463767" xlink:href="#me257f88b35" y="266.32"/>
      </g>
     </g>
    </g>
    <g id="xtick_28">
     <g id="line2d_28">
      <g>
       <use style="stroke:#000000;stroke-width:0.6;" x="243.288908" xlink:href="#me257f88b35" y="266.32"/>
      </g>
     </g>
    </g>
    <g id="xtick_29">
     <g id="line2d_29">
      <g>
       <use style="stroke:#000000;stroke-width:0.6;" x="249.11405" xlink:href="#me257f88b35" y="266.32"/>
      </g>
     </g>
    </g>
    <g id="xtick_30">
     <g id="line2d_30">
      <g>
       <use style="stroke:#000000;stroke-width:0.6;" x="254.939191" xlink:href="#me257f88b35" y="266.32"/>
      </g>
     </g>
    </g>
    <g id="xtick_31">
     <g id="line2d_31">
      <g>
       <use style="stroke:#000000;stroke-width:0.6;" x="260.764332" xlink:href="#me257f88b35" y="266.32"/>
      </g>
     </g>
    </g>
    <g id="xtick_32">
     <g id="line2d_32">
      <g>
       <use style="stroke:#000000;stroke-width:0.6;" x="266.589474" xlink:href="#me257f88b35" y="266.32"/>
      </g>
     </g>
    </g>
    <g id="xtick_33">
     <g id="line2d_33">
      <g>
       <use style="stroke:#000000;stroke-width:0.6;" x="272.414615" xlink:href="#me257f88b35" y="266.32"/>
      </g>
     </g>
    </g>
    <g id="xtick_34">
     <g id="line2d_34">
      <g>
       <use style="stroke:#000000;stroke-width:0.6;" x="278.239756" xlink:href="#me257f88b35" y="266.32"/>
      </g>
     </g>
    </g>
    <g id="xtick_35">
     <g id="line2d_35">
      <g>
       <use style="stroke:#000000;stroke-width:0.6;" x="289.890039" xlink:href="#me257f88b35" y="266.32"/>
      </g>
     </g>
    </g>
    <g id="xtick_36">
     <g id="line2d_36">
      <g>
       <use style="stroke:#000000;stroke-width:0.6;" x="295.715181" xlink:href="#me257f88b35" y="266.32"/>
      </g>
     </g>
    </g>
    <g id="xtick_37">
     <g id="line2d_37">
      <g>
       <use style="stroke:#000000;stroke-width:0.6;" x="301.540322" xlink:href="#me257f88b35" y="266.32"/>
      </g>
     </g>
    </g>
    <g id="xtick_38">
     <g id="line2d_38">
      <g>
       <use style="stroke:#000000;stroke-width:0.6;" x="307.365463" xlink:href="#me257f88b35" y="266.32"/>
      </g>
     </g>
    </g>
    <g id="xtick_39">
     <g id="line2d_39">
      <g>
       <use style="stroke:#000000;stroke-width:0.6;" x="313.190605" xlink:href="#me257f88b35" y="266.32"/>
      </g>
     </g>
    </g>
    <g id="xtick_40">
     <g id="line2d_40">
      <g>
       <use style="stroke:#000000;stroke-width:0.6;" x="319.015746" xlink:href="#me257f88b35" y="266.32"/>
      </g>
     </g>
    </g>
    <g id="xtick_41">
     <g id="line2d_41">
      <g>
       <use style="stroke:#000000;stroke-width:0.6;" x="324.840887" xlink:href="#me257f88b35" y="266.32"/>
      </g>
     </g>
    </g>
    <g id="xtick_42">
     <g id="line2d_42">
      <g>
       <use style="stroke:#000000;stroke-width:0.6;" x="330.666029" xlink:href="#me257f88b35" y="266.32"/>
      </g>
     </g>
    </g>
    <g id="xtick_43">
     <g id="line2d_43">
      <g>
       <use style="stroke:#000000;stroke-width:0.6;" x="336.49117" xlink:href="#me257f88b35" y="266.32"/>
      </g>
     </g>
    </g>
    <g id="xtick_44">
     <g id="line2d_44">
      <g>
       <use style="stroke:#000000;stroke-width:0.6;" x="342.316311" xlink:href="#me257f88b35" y="266.32"/>
      </g>
     </g>
    </g>
    <g id="xtick_45">
     <g id="line2d_45">
      <g>
       <use style="stroke:#000000;stroke-width:0.6;" x="348.141453" xlink:href="#me257f88b35" y="266.32"/>
      </g>
     </g>
    </g>
    <g id="xtick_46">
     <g id="line2d_46">
      <g>
       <use style="stroke:#000000;stroke-width:0.6;" x="353.966594" xlink:href="#me257f88b35" y="266.32"/>
      </g>
     </g>
    </g>
    <g id="xtick_47">
     <g id="line2d_47">
      <g>
       <use style="stroke:#000000;stroke-width:0.6;" x="359.791736" xlink:href="#me257f88b35" y="266.32"/>
      </g>
     </g>
    </g>
    <g id="xtick_48">
     <g id="line2d_48">
      <g>
       <use style="stroke:#000000;stroke-width:0.6;" x="365.616877" xlink:href="#me257f88b35" y="266.32"/>
      </g>
     </g>
    </g>
    <g id="xtick_49">
     <g id="line2d_49">
      <g>
       <use style="stroke:#000000;stroke-width:0.6;" x="371.442018" xlink:href="#me257f88b35" y="266.32"/>
      </g>
     </g>
    </g>
    <g id="xtick_50">
     <g id="line2d_50">
      <g>
       <use style="stroke:#000000;stroke-width:0.6;" x="377.26716" xlink:href="#me257f88b35" y="266.32"/>
      </g>
     </g>
    </g>
    <g id="xtick_51">
     <g id="line2d_51">
      <g>
       <use style="stroke:#000000;stroke-width:0.6;" x="383.092301" xlink:href="#me257f88b35" y="266.32"/>
      </g>
     </g>
    </g>
    <g id="xtick_52">
     <g id="line2d_52">
      <g>
       <use style="stroke:#000000;stroke-width:0.6;" x="388.917442" xlink:href="#me257f88b35" y="266.32"/>
      </g>
     </g>
    </g>
    <g id="xtick_53">
     <g id="line2d_53">
      <g>
       <use style="stroke:#000000;stroke-width:0.6;" x="394.742584" xlink:href="#me257f88b35" y="266.32"/>
      </g>
     </g>
    </g>
    <g id="xtick_54">
     <g id="line2d_54">
      <g>
       <use style="stroke:#000000;stroke-width:0.6;" x="400.567725" xlink:href="#me257f88b35" y="266.32"/>
      </g>
     </g>
    </g>
    <g id="xtick_55">
     <g id="line2d_55">
      <g>
       <use style="stroke:#000000;stroke-width:0.6;" x="406.392866" xlink:href="#me257f88b35" y="266.32"/>
      </g>
     </g>
    </g>
    <g id="xtick_56">
     <g id="line2d_56">
      <g>
       <use style="stroke:#000000;stroke-width:0.6;" x="412.218008" xlink:href="#me257f88b35" y="266.32"/>
      </g>
     </g>
    </g>
    <g id="xtick_57">
     <g id="line2d_57">
      <g>
       <use style="stroke:#000000;stroke-width:0.6;" x="418.043149" xlink:href="#me257f88b35" y="266.32"/>
      </g>
     </g>
    </g>
    <g id="xtick_58">
     <g id="line2d_58">
      <g>
       <use style="stroke:#000000;stroke-width:0.6;" x="423.868291" xlink:href="#me257f88b35" y="266.32"/>
      </g>
     </g>
    </g>
    <g id="xtick_59">
     <g id="line2d_59">
      <g>
       <use style="stroke:#000000;stroke-width:0.6;" x="435.518573" xlink:href="#me257f88b35" y="266.32"/>
      </g>
     </g>
    </g>
    <g id="xtick_60">
     <g id="line2d_60">
      <g>
       <use style="stroke:#000000;stroke-width:0.6;" x="441.343715" xlink:href="#me257f88b35" y="266.32"/>
      </g>
     </g>
    </g>
    <g id="xtick_61">
     <g id="line2d_61">
      <g>
       <use style="stroke:#000000;stroke-width:0.6;" x="447.168856" xlink:href="#me257f88b35" y="266.32"/>
      </g>
     </g>
    </g>
    <g id="xtick_62">
     <g id="line2d_62">
      <g>
       <use style="stroke:#000000;stroke-width:0.6;" x="452.993997" xlink:href="#me257f88b35" y="266.32"/>
      </g>
     </g>
    </g>
    <g id="xtick_63">
     <g id="line2d_63">
      <g>
       <use style="stroke:#000000;stroke-width:0.6;" x="458.819139" xlink:href="#me257f88b35" y="266.32"/>
      </g>
     </g>
    </g>
    <g id="xtick_64">
     <g id="line2d_64">
      <g>
       <use style="stroke:#000000;stroke-width:0.6;" x="464.64428" xlink:href="#me257f88b35" y="266.32"/>
      </g>
     </g>
    </g>
    <g id="xtick_65">
     <g id="line2d_65">
      <g>
       <use style="stroke:#000000;stroke-width:0.6;" x="470.469421" xlink:href="#me257f88b35" y="266.32"/>
      </g>
     </g>
    </g>
    <g id="xtick_66">
     <g id="line2d_66">
      <g>
       <use style="stroke:#000000;stroke-width:0.6;" x="476.294563" xlink:href="#me257f88b35" y="266.32"/>
      </g>
     </g>
    </g>
    <g id="xtick_67">
     <g id="line2d_67">
      <g>
       <use style="stroke:#000000;stroke-width:0.6;" x="482.119704" xlink:href="#me257f88b35" y="266.32"/>
      </g>
     </g>
    </g>
    <g id="xtick_68">
     <g id="line2d_68">
      <g>
       <use style="stroke:#000000;stroke-width:0.6;" x="487.944846" xlink:href="#me257f88b35" y="266.32"/>
      </g>
     </g>
    </g>
    <g id="xtick_69">
     <g id="line2d_69">
      <g>
       <use style="stroke:#000000;stroke-width:0.6;" x="493.769987" xlink:href="#me257f88b35" y="266.32"/>
      </g>
     </g>
    </g>
    <g id="xtick_70">
     <g id="line2d_70">
      <g>
       <use style="stroke:#000000;stroke-width:0.6;" x="499.595128" xlink:href="#me257f88b35" y="266.32"/>
      </g>
     </g>
    </g>
    <g id="xtick_71">
     <g id="line2d_71">
      <g>
       <use style="stroke:#000000;stroke-width:0.6;" x="505.42027" xlink:href="#me257f88b35" y="266.32"/>
      </g>
     </g>
    </g>
    <g id="xtick_72">
     <g id="line2d_72">
      <g>
       <use style="stroke:#000000;stroke-width:0.6;" x="511.245411" xlink:href="#me257f88b35" y="266.32"/>
      </g>
     </g>
    </g>
    <g id="xtick_73">
     <g id="line2d_73">
      <g>
       <use style="stroke:#000000;stroke-width:0.6;" x="517.070552" xlink:href="#me257f88b35" y="266.32"/>
      </g>
     </g>
    </g>
    <g id="xtick_74">
     <g id="line2d_74">
      <g>
       <use style="stroke:#000000;stroke-width:0.6;" x="522.895694" xlink:href="#me257f88b35" y="266.32"/>
      </g>
     </g>
    </g>
    <g id="xtick_75">
     <g id="line2d_75">
      <g>
       <use style="stroke:#000000;stroke-width:0.6;" x="528.720835" xlink:href="#me257f88b35" y="266.32"/>
      </g>
     </g>
    </g>
    <g id="xtick_76">
     <g id="line2d_76">
      <g>
       <use style="stroke:#000000;stroke-width:0.6;" x="534.545977" xlink:href="#me257f88b35" y="266.32"/>
      </g>
     </g>
    </g>
    <g id="xtick_77">
     <g id="line2d_77">
      <g>
       <use style="stroke:#000000;stroke-width:0.6;" x="540.371118" xlink:href="#me257f88b35" y="266.32"/>
      </g>
     </g>
    </g>
    <g id="xtick_78">
     <g id="line2d_78">
      <g>
       <use style="stroke:#000000;stroke-width:0.6;" x="546.196259" xlink:href="#me257f88b35" y="266.32"/>
      </g>
     </g>
    </g>
    <g id="xtick_79">
     <g id="line2d_79">
      <g>
       <use style="stroke:#000000;stroke-width:0.6;" x="552.021401" xlink:href="#me257f88b35" y="266.32"/>
      </g>
     </g>
    </g>
    <g id="xtick_80">
     <g id="line2d_80">
      <g>
       <use style="stroke:#000000;stroke-width:0.6;" x="557.846542" xlink:href="#me257f88b35" y="266.32"/>
      </g>
     </g>
    </g>
    <g id="xtick_81">
     <g id="line2d_81">
      <g>
       <use style="stroke:#000000;stroke-width:0.6;" x="563.671683" xlink:href="#me257f88b35" y="266.32"/>
      </g>
     </g>
    </g>
    <g id="xtick_82">
     <g id="line2d_82">
      <g>
       <use style="stroke:#000000;stroke-width:0.6;" x="569.496825" xlink:href="#me257f88b35" y="266.32"/>
      </g>
     </g>
    </g>
    <g id="xtick_83">
     <g id="line2d_83">
      <g>
       <use style="stroke:#000000;stroke-width:0.6;" x="581.147107" xlink:href="#me257f88b35" y="266.32"/>
      </g>
     </g>
    </g>
    <g id="xtick_84">
     <g id="line2d_84">
      <g>
       <use style="stroke:#000000;stroke-width:0.6;" x="586.972249" xlink:href="#me257f88b35" y="266.32"/>
      </g>
     </g>
    </g>
    <g id="xtick_85">
     <g id="line2d_85">
      <g>
       <use style="stroke:#000000;stroke-width:0.6;" x="592.79739" xlink:href="#me257f88b35" y="266.32"/>
      </g>
     </g>
    </g>
    <g id="xtick_86">
     <g id="line2d_86">
      <g>
       <use style="stroke:#000000;stroke-width:0.6;" x="598.622532" xlink:href="#me257f88b35" y="266.32"/>
      </g>
     </g>
    </g>
    <g id="xtick_87">
     <g id="line2d_87">
      <g>
       <use style="stroke:#000000;stroke-width:0.6;" x="604.447673" xlink:href="#me257f88b35" y="266.32"/>
      </g>
     </g>
    </g>
    <g id="xtick_88">
     <g id="line2d_88">
      <g>
       <use style="stroke:#000000;stroke-width:0.6;" x="610.272814" xlink:href="#me257f88b35" y="266.32"/>
      </g>
     </g>
    </g>
    <g id="xtick_89">
     <g id="line2d_89">
      <g>
       <use style="stroke:#000000;stroke-width:0.6;" x="616.097956" xlink:href="#me257f88b35" y="266.32"/>
      </g>
     </g>
    </g>
    <g id="xtick_90">
     <g id="line2d_90">
      <g>
       <use style="stroke:#000000;stroke-width:0.6;" x="621.923097" xlink:href="#me257f88b35" y="266.32"/>
      </g>
     </g>
    </g>
    <g id="xtick_91">
     <g id="line2d_91">
      <g>
       <use style="stroke:#000000;stroke-width:0.6;" x="627.748238" xlink:href="#me257f88b35" y="266.32"/>
      </g>
     </g>
    </g>
    <g id="xtick_92">
     <g id="line2d_92">
      <g>
       <use style="stroke:#000000;stroke-width:0.6;" x="633.57338" xlink:href="#me257f88b35" y="266.32"/>
      </g>
     </g>
    </g>
    <g id="xtick_93">
     <g id="line2d_93">
      <g>
       <use style="stroke:#000000;stroke-width:0.6;" x="639.398521" xlink:href="#me257f88b35" y="266.32"/>
      </g>
     </g>
    </g>
    <g id="xtick_94">
     <g id="line2d_94">
      <g>
       <use style="stroke:#000000;stroke-width:0.6;" x="645.223662" xlink:href="#me257f88b35" y="266.32"/>
      </g>
     </g>
    </g>
    <g id="xtick_95">
     <g id="line2d_95">
      <g>
       <use style="stroke:#000000;stroke-width:0.6;" x="651.048804" xlink:href="#me257f88b35" y="266.32"/>
      </g>
     </g>
    </g>
    <g id="xtick_96">
     <g id="line2d_96">
      <g>
       <use style="stroke:#000000;stroke-width:0.6;" x="656.873945" xlink:href="#me257f88b35" y="266.32"/>
      </g>
     </g>
    </g>
    <g id="xtick_97">
     <g id="line2d_97">
      <g>
       <use style="stroke:#000000;stroke-width:0.6;" x="662.699087" xlink:href="#me257f88b35" y="266.32"/>
      </g>
     </g>
    </g>
    <g id="xtick_98">
     <g id="line2d_98">
      <g>
       <use style="stroke:#000000;stroke-width:0.6;" x="668.524228" xlink:href="#me257f88b35" y="266.32"/>
      </g>
     </g>
    </g>
    <g id="xtick_99">
     <g id="line2d_99">
      <g>
       <use style="stroke:#000000;stroke-width:0.6;" x="674.349369" xlink:href="#me257f88b35" y="266.32"/>
      </g>
     </g>
    </g>
    <g id="xtick_100">
     <g id="line2d_100">
      <g>
       <use style="stroke:#000000;stroke-width:0.6;" x="680.174511" xlink:href="#me257f88b35" y="266.32"/>
      </g>
     </g>
    </g>
    <g id="xtick_101">
     <g id="line2d_101">
      <g>
       <use style="stroke:#000000;stroke-width:0.6;" x="685.999652" xlink:href="#me257f88b35" y="266.32"/>
      </g>
     </g>
    </g>
    <g id="xtick_102">
     <g id="line2d_102">
      <g>
       <use style="stroke:#000000;stroke-width:0.6;" x="691.824793" xlink:href="#me257f88b35" y="266.32"/>
      </g>
     </g>
    </g>
    <g id="xtick_103">
     <g id="line2d_103">
      <g>
       <use style="stroke:#000000;stroke-width:0.6;" x="697.649935" xlink:href="#me257f88b35" y="266.32"/>
      </g>
     </g>
    </g>
    <g id="xtick_104">
     <g id="line2d_104">
      <g>
       <use style="stroke:#000000;stroke-width:0.6;" x="703.475076" xlink:href="#me257f88b35" y="266.32"/>
      </g>
     </g>
    </g>
    <g id="xtick_105">
     <g id="line2d_105">
      <g>
       <use style="stroke:#000000;stroke-width:0.6;" x="709.300217" xlink:href="#me257f88b35" y="266.32"/>
      </g>
     </g>
    </g>
    <g id="xtick_106">
     <g id="line2d_106">
      <g>
       <use style="stroke:#000000;stroke-width:0.6;" x="715.125359" xlink:href="#me257f88b35" y="266.32"/>
      </g>
     </g>
    </g>
    <g id="xtick_107">
     <g id="line2d_107">
      <g>
       <use style="stroke:#000000;stroke-width:0.6;" x="726.775642" xlink:href="#me257f88b35" y="266.32"/>
      </g>
     </g>
    </g>
    <g id="xtick_108">
     <g id="line2d_108">
      <g>
       <use style="stroke:#000000;stroke-width:0.6;" x="732.600783" xlink:href="#me257f88b35" y="266.32"/>
      </g>
     </g>
    </g>
    <g id="xtick_109">
     <g id="line2d_109">
      <g>
       <use style="stroke:#000000;stroke-width:0.6;" x="738.425924" xlink:href="#me257f88b35" y="266.32"/>
      </g>
     </g>
    </g>
    <g id="xtick_110">
     <g id="line2d_110">
      <g>
       <use style="stroke:#000000;stroke-width:0.6;" x="744.251066" xlink:href="#me257f88b35" y="266.32"/>
      </g>
     </g>
    </g>
    <g id="xtick_111">
     <g id="line2d_111">
      <g>
       <use style="stroke:#000000;stroke-width:0.6;" x="750.076207" xlink:href="#me257f88b35" y="266.32"/>
      </g>
     </g>
    </g>
    <g id="xtick_112">
     <g id="line2d_112">
      <g>
       <use style="stroke:#000000;stroke-width:0.6;" x="755.901348" xlink:href="#me257f88b35" y="266.32"/>
      </g>
     </g>
    </g>
    <g id="xtick_113">
     <g id="line2d_113">
      <g>
       <use style="stroke:#000000;stroke-width:0.6;" x="761.72649" xlink:href="#me257f88b35" y="266.32"/>
      </g>
     </g>
    </g>
    <g id="xtick_114">
     <g id="line2d_114">
      <g>
       <use style="stroke:#000000;stroke-width:0.6;" x="767.551631" xlink:href="#me257f88b35" y="266.32"/>
      </g>
     </g>
    </g>
    <g id="xtick_115">
     <g id="line2d_115">
      <g>
       <use style="stroke:#000000;stroke-width:0.6;" x="773.376773" xlink:href="#me257f88b35" y="266.32"/>
      </g>
     </g>
    </g>
    <g id="text_1">
     <!-- MSA Position -->
     <g transform="translate(338.721484 298.872344)scale(0.35 -0.35)">
      <defs>
       <path d="M 7.421875 0 
L 7.421875 71.578125 
L 21.6875 71.578125 
L 38.625 20.90625 
Q 40.96875 13.8125 42.046875 10.296875 
Q 43.265625 14.203125 45.84375 21.78125 
L 62.984375 71.578125 
L 75.734375 71.578125 
L 75.734375 0 
L 66.609375 0 
L 66.609375 59.90625 
L 45.796875 0 
L 37.25 0 
L 16.546875 60.9375 
L 16.546875 0 
z
" id="ArialMT-77"/>
       <path d="M 4.5 23 
L 13.421875 23.78125 
Q 14.0625 18.40625 16.375 14.96875 
Q 18.703125 11.53125 23.578125 9.40625 
Q 28.46875 7.28125 34.578125 7.28125 
Q 39.984375 7.28125 44.140625 8.890625 
Q 48.296875 10.5 50.3125 13.296875 
Q 52.34375 16.109375 52.34375 19.4375 
Q 52.34375 22.796875 50.390625 25.3125 
Q 48.4375 27.828125 43.953125 29.546875 
Q 41.0625 30.671875 31.203125 33.03125 
Q 21.34375 35.40625 17.390625 37.5 
Q 12.25 40.1875 9.734375 44.15625 
Q 7.234375 48.140625 7.234375 53.078125 
Q 7.234375 58.5 10.296875 63.203125 
Q 13.375 67.921875 19.28125 70.359375 
Q 25.203125 72.796875 32.421875 72.796875 
Q 40.375 72.796875 46.453125 70.234375 
Q 52.546875 67.671875 55.8125 62.6875 
Q 59.078125 57.71875 59.328125 51.421875 
L 50.25 50.734375 
Q 49.515625 57.515625 45.28125 60.984375 
Q 41.0625 64.453125 32.8125 64.453125 
Q 24.21875 64.453125 20.28125 61.296875 
Q 16.359375 58.15625 16.359375 53.71875 
Q 16.359375 49.859375 19.140625 47.359375 
Q 21.875 44.875 33.421875 42.265625 
Q 44.96875 39.65625 49.265625 37.703125 
Q 55.515625 34.8125 58.484375 30.390625 
Q 61.46875 25.984375 61.46875 20.21875 
Q 61.46875 14.5 58.203125 9.4375 
Q 54.9375 4.390625 48.796875 1.578125 
Q 42.671875 -1.21875 35.015625 -1.21875 
Q 25.296875 -1.21875 18.71875 1.609375 
Q 12.15625 4.4375 8.421875 10.125 
Q 4.6875 15.828125 4.5 23 
z
" id="ArialMT-83"/>
       <path d="M -0.140625 0 
L 27.34375 71.578125 
L 37.546875 71.578125 
L 66.84375 0 
L 56.0625 0 
L 47.703125 21.6875 
L 17.78125 21.6875 
L 9.90625 0 
z
M 20.515625 29.390625 
L 44.78125 29.390625 
L 37.3125 49.21875 
Q 33.890625 58.25 32.234375 64.0625 
Q 30.859375 57.171875 28.375 50.390625 
z
" id="ArialMT-65"/>
       <path id="ArialMT-32"/>
       <path d="M 7.71875 0 
L 7.71875 71.578125 
L 34.71875 71.578125 
Q 41.84375 71.578125 45.609375 70.90625 
Q 50.875 70.015625 54.4375 67.546875 
Q 58.015625 65.09375 60.1875 60.640625 
Q 62.359375 56.203125 62.359375 50.875 
Q 62.359375 41.75 56.546875 35.421875 
Q 50.734375 29.109375 35.546875 29.109375 
L 17.1875 29.109375 
L 17.1875 0 
z
M 17.1875 37.546875 
L 35.6875 37.546875 
Q 44.875 37.546875 48.734375 40.96875 
Q 52.59375 44.390625 52.59375 50.59375 
Q 52.59375 55.078125 50.3125 58.265625 
Q 48.046875 61.46875 44.34375 62.5 
Q 41.9375 63.140625 35.5 63.140625 
L 17.1875 63.140625 
z
" id="ArialMT-80"/>
       <path d="M 3.328125 25.921875 
Q 3.328125 40.328125 11.328125 47.265625 
Q 18.015625 53.03125 27.640625 53.03125 
Q 38.328125 53.03125 45.109375 46.015625 
Q 51.90625 39.015625 51.90625 26.65625 
Q 51.90625 16.65625 48.90625 10.90625 
Q 45.90625 5.171875 40.15625 2 
Q 34.421875 -1.171875 27.640625 -1.171875 
Q 16.75 -1.171875 10.03125 5.8125 
Q 3.328125 12.796875 3.328125 25.921875 
z
M 12.359375 25.921875 
Q 12.359375 15.96875 16.703125 11.015625 
Q 21.046875 6.0625 27.640625 6.0625 
Q 34.1875 6.0625 38.53125 11.03125 
Q 42.875 16.015625 42.875 26.21875 
Q 42.875 35.84375 38.5 40.796875 
Q 34.125 45.75 27.640625 45.75 
Q 21.046875 45.75 16.703125 40.8125 
Q 12.359375 35.890625 12.359375 25.921875 
z
" id="ArialMT-111"/>
       <path d="M 3.078125 15.484375 
L 11.765625 16.84375 
Q 12.5 11.625 15.84375 8.84375 
Q 19.1875 6.0625 25.203125 6.0625 
Q 31.25 6.0625 34.171875 8.515625 
Q 37.109375 10.984375 37.109375 14.3125 
Q 37.109375 17.28125 34.515625 19 
Q 32.71875 20.171875 25.53125 21.96875 
Q 15.875 24.421875 12.140625 26.203125 
Q 8.40625 27.984375 6.46875 31.125 
Q 4.546875 34.28125 4.546875 38.09375 
Q 4.546875 41.546875 6.125 44.5 
Q 7.71875 47.46875 10.453125 49.421875 
Q 12.5 50.921875 16.03125 51.96875 
Q 19.578125 53.03125 23.640625 53.03125 
Q 29.734375 53.03125 34.34375 51.265625 
Q 38.96875 49.515625 41.15625 46.5 
Q 43.359375 43.5 44.1875 38.484375 
L 35.59375 37.3125 
Q 35.015625 41.3125 32.203125 43.546875 
Q 29.390625 45.796875 24.265625 45.796875 
Q 18.21875 45.796875 15.625 43.796875 
Q 13.03125 41.796875 13.03125 39.109375 
Q 13.03125 37.40625 14.109375 36.03125 
Q 15.1875 34.625 17.484375 33.6875 
Q 18.796875 33.203125 25.25 31.453125 
Q 34.578125 28.953125 38.25 27.359375 
Q 41.9375 25.78125 44.03125 22.75 
Q 46.140625 19.734375 46.140625 15.234375 
Q 46.140625 10.84375 43.578125 6.953125 
Q 41.015625 3.078125 36.171875 0.953125 
Q 31.34375 -1.171875 25.25 -1.171875 
Q 15.140625 -1.171875 9.84375 3.03125 
Q 4.546875 7.234375 3.078125 15.484375 
z
" id="ArialMT-115"/>
       <path d="M 6.640625 61.46875 
L 6.640625 71.578125 
L 15.4375 71.578125 
L 15.4375 61.46875 
z
M 6.640625 0 
L 6.640625 51.859375 
L 15.4375 51.859375 
L 15.4375 0 
z
" id="ArialMT-105"/>
       <path d="M 25.78125 7.859375 
L 27.046875 0.09375 
Q 23.34375 -0.6875 20.40625 -0.6875 
Q 15.625 -0.6875 12.984375 0.828125 
Q 10.359375 2.34375 9.28125 4.8125 
Q 8.203125 7.28125 8.203125 15.1875 
L 8.203125 45.015625 
L 1.765625 45.015625 
L 1.765625 51.859375 
L 8.203125 51.859375 
L 8.203125 64.703125 
L 16.9375 69.96875 
L 16.9375 51.859375 
L 25.78125 51.859375 
L 25.78125 45.015625 
L 16.9375 45.015625 
L 16.9375 14.703125 
Q 16.9375 10.9375 17.40625 9.859375 
Q 17.875 8.796875 18.921875 8.15625 
Q 19.96875 7.515625 21.921875 7.515625 
Q 23.390625 7.515625 25.78125 7.859375 
z
" id="ArialMT-116"/>
       <path d="M 6.59375 0 
L 6.59375 51.859375 
L 14.5 51.859375 
L 14.5 44.484375 
Q 20.21875 53.03125 31 53.03125 
Q 35.6875 53.03125 39.625 51.34375 
Q 43.5625 49.65625 45.515625 46.921875 
Q 47.46875 44.1875 48.25 40.4375 
Q 48.734375 37.984375 48.734375 31.890625 
L 48.734375 0 
L 39.9375 0 
L 39.9375 31.546875 
Q 39.9375 36.921875 38.90625 39.578125 
Q 37.890625 42.234375 35.28125 43.8125 
Q 32.671875 45.40625 29.15625 45.40625 
Q 23.53125 45.40625 19.453125 41.84375 
Q 15.375 38.28125 15.375 28.328125 
L 15.375 0 
z
" id="ArialMT-110"/>
      </defs>
      <use xlink:href="#ArialMT-77"/>
      <use x="83.300781" xlink:href="#ArialMT-83"/>
      <use x="150" xlink:href="#ArialMT-65"/>
      <use x="211.199219" xlink:href="#ArialMT-32"/>
      <use x="238.982422" xlink:href="#ArialMT-80"/>
      <use x="305.681641" xlink:href="#ArialMT-111"/>
      <use x="361.296875" xlink:href="#ArialMT-115"/>
      <use x="411.296875" xlink:href="#ArialMT-105"/>
      <use x="433.513672" xlink:href="#ArialMT-116"/>
      <use x="461.296875" xlink:href="#ArialMT-105"/>
      <use x="483.513672" xlink:href="#ArialMT-111"/>
      <use x="539.128906" xlink:href="#ArialMT-110"/>
     </g>
    </g>
   </g>
   <g id="matplotlib.axis_2">
    <g id="ytick_1">
     <g id="line2d_116">
      <defs>
       <path d="M 0 0 
L 4 0 
" id="m49ad07f7c2" style="stroke:#000000;stroke-width:0.8;"/>
      </defs>
      <g>
       <use style="stroke:#000000;stroke-width:0.8;" x="98" xlink:href="#m49ad07f7c2" y="256.32"/>
      </g>
     </g>
    </g>
    <g id="ytick_2">
     <g id="line2d_117">
      <g>
       <use style="stroke:#000000;stroke-width:0.8;" x="98" xlink:href="#m49ad07f7c2" y="226.752"/>
      </g>
     </g>
    </g>
    <g id="ytick_3">
     <g id="line2d_118">
      <g>
       <use style="stroke:#000000;stroke-width:0.8;" x="98" xlink:href="#m49ad07f7c2" y="197.184"/>
      </g>
     </g>
    </g>
    <g id="ytick_4">
     <g id="line2d_119">
      <g>
       <use style="stroke:#000000;stroke-width:0.8;" x="98" xlink:href="#m49ad07f7c2" y="167.616"/>
      </g>
     </g>
    </g>
    <g id="ytick_5">
     <g id="line2d_120">
      <g>
       <use style="stroke:#000000;stroke-width:0.8;" x="98" xlink:href="#m49ad07f7c2" y="138.048"/>
      </g>
     </g>
    </g>
    <g id="ytick_6">
     <g id="line2d_121">
      <g>
       <use style="stroke:#000000;stroke-width:0.8;" x="98" xlink:href="#m49ad07f7c2" y="108.48"/>
      </g>
     </g>
    </g>
    <g id="ytick_7">
     <g id="line2d_122">
      <g>
       <use style="stroke:#000000;stroke-width:0.8;" x="98" xlink:href="#m49ad07f7c2" y="78.912"/>
      </g>
     </g>
    </g>
    <g id="ytick_8">
     <g id="line2d_123">
      <g>
       <use style="stroke:#000000;stroke-width:0.8;" x="98" xlink:href="#m49ad07f7c2" y="49.344"/>
      </g>
     </g>
    </g>
    <g id="ytick_9">
     <g id="line2d_124">
      <defs>
       <path d="M 0 0 
L 2 0 
" id="m927685f55f" style="stroke:#000000;stroke-width:0.6;"/>
      </defs>
      <g>
       <use style="stroke:#000000;stroke-width:0.6;" x="98" xlink:href="#m927685f55f" y="253.3632"/>
      </g>
     </g>
    </g>
    <g id="ytick_10">
     <g id="line2d_125">
      <g>
       <use style="stroke:#000000;stroke-width:0.6;" x="98" xlink:href="#m927685f55f" y="250.4064"/>
      </g>
     </g>
    </g>
    <g id="ytick_11">
     <g id="line2d_126">
      <g>
       <use style="stroke:#000000;stroke-width:0.6;" x="98" xlink:href="#m927685f55f" y="247.4496"/>
      </g>
     </g>
    </g>
    <g id="ytick_12">
     <g id="line2d_127">
      <g>
       <use style="stroke:#000000;stroke-width:0.6;" x="98" xlink:href="#m927685f55f" y="244.4928"/>
      </g>
     </g>
    </g>
    <g id="ytick_13">
     <g id="line2d_128">
      <g>
       <use style="stroke:#000000;stroke-width:0.6;" x="98" xlink:href="#m927685f55f" y="241.536"/>
      </g>
     </g>
    </g>
    <g id="ytick_14">
     <g id="line2d_129">
      <g>
       <use style="stroke:#000000;stroke-width:0.6;" x="98" xlink:href="#m927685f55f" y="238.5792"/>
      </g>
     </g>
    </g>
    <g id="ytick_15">
     <g id="line2d_130">
      <g>
       <use style="stroke:#000000;stroke-width:0.6;" x="98" xlink:href="#m927685f55f" y="235.6224"/>
      </g>
     </g>
    </g>
    <g id="ytick_16">
     <g id="line2d_131">
      <g>
       <use style="stroke:#000000;stroke-width:0.6;" x="98" xlink:href="#m927685f55f" y="232.6656"/>
      </g>
     </g>
    </g>
    <g id="ytick_17">
     <g id="line2d_132">
      <g>
       <use style="stroke:#000000;stroke-width:0.6;" x="98" xlink:href="#m927685f55f" y="229.7088"/>
      </g>
     </g>
    </g>
    <g id="ytick_18">
     <g id="line2d_133">
      <g>
       <use style="stroke:#000000;stroke-width:0.6;" x="98" xlink:href="#m927685f55f" y="223.7952"/>
      </g>
     </g>
    </g>
    <g id="ytick_19">
     <g id="line2d_134">
      <g>
       <use style="stroke:#000000;stroke-width:0.6;" x="98" xlink:href="#m927685f55f" y="220.8384"/>
      </g>
     </g>
    </g>
    <g id="ytick_20">
     <g id="line2d_135">
      <g>
       <use style="stroke:#000000;stroke-width:0.6;" x="98" xlink:href="#m927685f55f" y="217.8816"/>
      </g>
     </g>
    </g>
    <g id="ytick_21">
     <g id="line2d_136">
      <g>
       <use style="stroke:#000000;stroke-width:0.6;" x="98" xlink:href="#m927685f55f" y="214.9248"/>
      </g>
     </g>
    </g>
    <g id="ytick_22">
     <g id="line2d_137">
      <g>
       <use style="stroke:#000000;stroke-width:0.6;" x="98" xlink:href="#m927685f55f" y="211.968"/>
      </g>
     </g>
    </g>
    <g id="ytick_23">
     <g id="line2d_138">
      <g>
       <use style="stroke:#000000;stroke-width:0.6;" x="98" xlink:href="#m927685f55f" y="209.0112"/>
      </g>
     </g>
    </g>
    <g id="ytick_24">
     <g id="line2d_139">
      <g>
       <use style="stroke:#000000;stroke-width:0.6;" x="98" xlink:href="#m927685f55f" y="206.0544"/>
      </g>
     </g>
    </g>
    <g id="ytick_25">
     <g id="line2d_140">
      <g>
       <use style="stroke:#000000;stroke-width:0.6;" x="98" xlink:href="#m927685f55f" y="203.0976"/>
      </g>
     </g>
    </g>
    <g id="ytick_26">
     <g id="line2d_141">
      <g>
       <use style="stroke:#000000;stroke-width:0.6;" x="98" xlink:href="#m927685f55f" y="200.1408"/>
      </g>
     </g>
    </g>
    <g id="ytick_27">
     <g id="line2d_142">
      <g>
       <use style="stroke:#000000;stroke-width:0.6;" x="98" xlink:href="#m927685f55f" y="194.2272"/>
      </g>
     </g>
    </g>
    <g id="ytick_28">
     <g id="line2d_143">
      <g>
       <use style="stroke:#000000;stroke-width:0.6;" x="98" xlink:href="#m927685f55f" y="191.2704"/>
      </g>
     </g>
    </g>
    <g id="ytick_29">
     <g id="line2d_144">
      <g>
       <use style="stroke:#000000;stroke-width:0.6;" x="98" xlink:href="#m927685f55f" y="188.3136"/>
      </g>
     </g>
    </g>
    <g id="ytick_30">
     <g id="line2d_145">
      <g>
       <use style="stroke:#000000;stroke-width:0.6;" x="98" xlink:href="#m927685f55f" y="185.3568"/>
      </g>
     </g>
    </g>
    <g id="ytick_31">
     <g id="line2d_146">
      <g>
       <use style="stroke:#000000;stroke-width:0.6;" x="98" xlink:href="#m927685f55f" y="182.4"/>
      </g>
     </g>
    </g>
    <g id="ytick_32">
     <g id="line2d_147">
      <g>
       <use style="stroke:#000000;stroke-width:0.6;" x="98" xlink:href="#m927685f55f" y="179.4432"/>
      </g>
     </g>
    </g>
    <g id="ytick_33">
     <g id="line2d_148">
      <g>
       <use style="stroke:#000000;stroke-width:0.6;" x="98" xlink:href="#m927685f55f" y="176.4864"/>
      </g>
     </g>
    </g>
    <g id="ytick_34">
     <g id="line2d_149">
      <g>
       <use style="stroke:#000000;stroke-width:0.6;" x="98" xlink:href="#m927685f55f" y="173.5296"/>
      </g>
     </g>
    </g>
    <g id="ytick_35">
     <g id="line2d_150">
      <g>
       <use style="stroke:#000000;stroke-width:0.6;" x="98" xlink:href="#m927685f55f" y="170.5728"/>
      </g>
     </g>
    </g>
    <g id="ytick_36">
     <g id="line2d_151">
      <g>
       <use style="stroke:#000000;stroke-width:0.6;" x="98" xlink:href="#m927685f55f" y="164.6592"/>
      </g>
     </g>
    </g>
    <g id="ytick_37">
     <g id="line2d_152">
      <g>
       <use style="stroke:#000000;stroke-width:0.6;" x="98" xlink:href="#m927685f55f" y="161.7024"/>
      </g>
     </g>
    </g>
    <g id="ytick_38">
     <g id="line2d_153">
      <g>
       <use style="stroke:#000000;stroke-width:0.6;" x="98" xlink:href="#m927685f55f" y="158.7456"/>
      </g>
     </g>
    </g>
    <g id="ytick_39">
     <g id="line2d_154">
      <g>
       <use style="stroke:#000000;stroke-width:0.6;" x="98" xlink:href="#m927685f55f" y="155.7888"/>
      </g>
     </g>
    </g>
    <g id="ytick_40">
     <g id="line2d_155">
      <g>
       <use style="stroke:#000000;stroke-width:0.6;" x="98" xlink:href="#m927685f55f" y="152.832"/>
      </g>
     </g>
    </g>
    <g id="ytick_41">
     <g id="line2d_156">
      <g>
       <use style="stroke:#000000;stroke-width:0.6;" x="98" xlink:href="#m927685f55f" y="149.8752"/>
      </g>
     </g>
    </g>
    <g id="ytick_42">
     <g id="line2d_157">
      <g>
       <use style="stroke:#000000;stroke-width:0.6;" x="98" xlink:href="#m927685f55f" y="146.9184"/>
      </g>
     </g>
    </g>
    <g id="ytick_43">
     <g id="line2d_158">
      <g>
       <use style="stroke:#000000;stroke-width:0.6;" x="98" xlink:href="#m927685f55f" y="143.9616"/>
      </g>
     </g>
    </g>
    <g id="ytick_44">
     <g id="line2d_159">
      <g>
       <use style="stroke:#000000;stroke-width:0.6;" x="98" xlink:href="#m927685f55f" y="141.0048"/>
      </g>
     </g>
    </g>
    <g id="ytick_45">
     <g id="line2d_160">
      <g>
       <use style="stroke:#000000;stroke-width:0.6;" x="98" xlink:href="#m927685f55f" y="135.0912"/>
      </g>
     </g>
    </g>
    <g id="ytick_46">
     <g id="line2d_161">
      <g>
       <use style="stroke:#000000;stroke-width:0.6;" x="98" xlink:href="#m927685f55f" y="132.1344"/>
      </g>
     </g>
    </g>
    <g id="ytick_47">
     <g id="line2d_162">
      <g>
       <use style="stroke:#000000;stroke-width:0.6;" x="98" xlink:href="#m927685f55f" y="129.1776"/>
      </g>
     </g>
    </g>
    <g id="ytick_48">
     <g id="line2d_163">
      <g>
       <use style="stroke:#000000;stroke-width:0.6;" x="98" xlink:href="#m927685f55f" y="126.2208"/>
      </g>
     </g>
    </g>
    <g id="ytick_49">
     <g id="line2d_164">
      <g>
       <use style="stroke:#000000;stroke-width:0.6;" x="98" xlink:href="#m927685f55f" y="123.264"/>
      </g>
     </g>
    </g>
    <g id="ytick_50">
     <g id="line2d_165">
      <g>
       <use style="stroke:#000000;stroke-width:0.6;" x="98" xlink:href="#m927685f55f" y="120.3072"/>
      </g>
     </g>
    </g>
    <g id="ytick_51">
     <g id="line2d_166">
      <g>
       <use style="stroke:#000000;stroke-width:0.6;" x="98" xlink:href="#m927685f55f" y="117.3504"/>
      </g>
     </g>
    </g>
    <g id="ytick_52">
     <g id="line2d_167">
      <g>
       <use style="stroke:#000000;stroke-width:0.6;" x="98" xlink:href="#m927685f55f" y="114.3936"/>
      </g>
     </g>
    </g>
    <g id="ytick_53">
     <g id="line2d_168">
      <g>
       <use style="stroke:#000000;stroke-width:0.6;" x="98" xlink:href="#m927685f55f" y="111.4368"/>
      </g>
     </g>
    </g>
    <g id="ytick_54">
     <g id="line2d_169">
      <g>
       <use style="stroke:#000000;stroke-width:0.6;" x="98" xlink:href="#m927685f55f" y="105.5232"/>
      </g>
     </g>
    </g>
    <g id="ytick_55">
     <g id="line2d_170">
      <g>
       <use style="stroke:#000000;stroke-width:0.6;" x="98" xlink:href="#m927685f55f" y="102.5664"/>
      </g>
     </g>
    </g>
    <g id="ytick_56">
     <g id="line2d_171">
      <g>
       <use style="stroke:#000000;stroke-width:0.6;" x="98" xlink:href="#m927685f55f" y="99.6096"/>
      </g>
     </g>
    </g>
    <g id="ytick_57">
     <g id="line2d_172">
      <g>
       <use style="stroke:#000000;stroke-width:0.6;" x="98" xlink:href="#m927685f55f" y="96.6528"/>
      </g>
     </g>
    </g>
    <g id="ytick_58">
     <g id="line2d_173">
      <g>
       <use style="stroke:#000000;stroke-width:0.6;" x="98" xlink:href="#m927685f55f" y="93.696"/>
      </g>
     </g>
    </g>
    <g id="ytick_59">
     <g id="line2d_174">
      <g>
       <use style="stroke:#000000;stroke-width:0.6;" x="98" xlink:href="#m927685f55f" y="90.7392"/>
      </g>
     </g>
    </g>
    <g id="ytick_60">
     <g id="line2d_175">
      <g>
       <use style="stroke:#000000;stroke-width:0.6;" x="98" xlink:href="#m927685f55f" y="87.7824"/>
      </g>
     </g>
    </g>
    <g id="ytick_61">
     <g id="line2d_176">
      <g>
       <use style="stroke:#000000;stroke-width:0.6;" x="98" xlink:href="#m927685f55f" y="84.8256"/>
      </g>
     </g>
    </g>
    <g id="ytick_62">
     <g id="line2d_177">
      <g>
       <use style="stroke:#000000;stroke-width:0.6;" x="98" xlink:href="#m927685f55f" y="81.8688"/>
      </g>
     </g>
    </g>
    <g id="ytick_63">
     <g id="line2d_178">
      <g>
       <use style="stroke:#000000;stroke-width:0.6;" x="98" xlink:href="#m927685f55f" y="75.9552"/>
      </g>
     </g>
    </g>
    <g id="ytick_64">
     <g id="line2d_179">
      <g>
       <use style="stroke:#000000;stroke-width:0.6;" x="98" xlink:href="#m927685f55f" y="72.9984"/>
      </g>
     </g>
    </g>
    <g id="ytick_65">
     <g id="line2d_180">
      <g>
       <use style="stroke:#000000;stroke-width:0.6;" x="98" xlink:href="#m927685f55f" y="70.0416"/>
      </g>
     </g>
    </g>
    <g id="ytick_66">
     <g id="line2d_181">
      <g>
       <use style="stroke:#000000;stroke-width:0.6;" x="98" xlink:href="#m927685f55f" y="67.0848"/>
      </g>
     </g>
    </g>
    <g id="ytick_67">
     <g id="line2d_182">
      <g>
       <use style="stroke:#000000;stroke-width:0.6;" x="98" xlink:href="#m927685f55f" y="64.128"/>
      </g>
     </g>
    </g>
    <g id="ytick_68">
     <g id="line2d_183">
      <g>
       <use style="stroke:#000000;stroke-width:0.6;" x="98" xlink:href="#m927685f55f" y="61.1712"/>
      </g>
     </g>
    </g>
    <g id="ytick_69">
     <g id="line2d_184">
      <g>
       <use style="stroke:#000000;stroke-width:0.6;" x="98" xlink:href="#m927685f55f" y="58.2144"/>
      </g>
     </g>
    </g>
    <g id="ytick_70">
     <g id="line2d_185">
      <g>
       <use style="stroke:#000000;stroke-width:0.6;" x="98" xlink:href="#m927685f55f" y="55.2576"/>
      </g>
     </g>
    </g>
    <g id="ytick_71">
     <g id="line2d_186">
      <g>
       <use style="stroke:#000000;stroke-width:0.6;" x="98" xlink:href="#m927685f55f" y="52.3008"/>
      </g>
     </g>
    </g>
    <g id="ytick_72">
     <g id="line2d_187">
      <g>
       <use style="stroke:#000000;stroke-width:0.6;" x="98" xlink:href="#m927685f55f" y="46.3872"/>
      </g>
     </g>
    </g>
    <g id="ytick_73">
     <g id="line2d_188">
      <g>
       <use style="stroke:#000000;stroke-width:0.6;" x="98" xlink:href="#m927685f55f" y="43.4304"/>
      </g>
     </g>
    </g>
    <g id="ytick_74">
     <g id="line2d_189">
      <g>
       <use style="stroke:#000000;stroke-width:0.6;" x="98" xlink:href="#m927685f55f" y="40.4736"/>
      </g>
     </g>
    </g>
    <g id="ytick_75">
     <g id="line2d_190">
      <g>
       <use style="stroke:#000000;stroke-width:0.6;" x="98" xlink:href="#m927685f55f" y="37.5168"/>
      </g>
     </g>
    </g>
    <g id="ytick_76">
     <g id="line2d_191">
      <g>
       <use style="stroke:#000000;stroke-width:0.6;" x="98" xlink:href="#m927685f55f" y="34.56"/>
      </g>
     </g>
    </g>
    <g id="text_2">
     <!-- Position Entropy -->
     <g transform="translate(83.133594 272.864609)rotate(-90)scale(0.35 -0.35)">
      <defs>
       <path d="M 7.90625 0 
L 7.90625 71.578125 
L 59.671875 71.578125 
L 59.671875 63.140625 
L 17.390625 63.140625 
L 17.390625 41.21875 
L 56.984375 41.21875 
L 56.984375 32.8125 
L 17.390625 32.8125 
L 17.390625 8.453125 
L 61.328125 8.453125 
L 61.328125 0 
z
" id="ArialMT-69"/>
       <path d="M 6.5 0 
L 6.5 51.859375 
L 14.40625 51.859375 
L 14.40625 44 
Q 17.4375 49.515625 20 51.265625 
Q 22.5625 53.03125 25.640625 53.03125 
Q 30.078125 53.03125 34.671875 50.203125 
L 31.640625 42.046875 
Q 28.421875 43.953125 25.203125 43.953125 
Q 22.3125 43.953125 20.015625 42.21875 
Q 17.71875 40.484375 16.75 37.40625 
Q 15.28125 32.71875 15.28125 27.15625 
L 15.28125 0 
z
" id="ArialMT-114"/>
       <path d="M 6.59375 -19.875 
L 6.59375 51.859375 
L 14.59375 51.859375 
L 14.59375 45.125 
Q 17.4375 49.078125 21 51.046875 
Q 24.5625 53.03125 29.640625 53.03125 
Q 36.28125 53.03125 41.359375 49.609375 
Q 46.4375 46.1875 49.015625 39.953125 
Q 51.609375 33.734375 51.609375 26.3125 
Q 51.609375 18.359375 48.75 11.984375 
Q 45.90625 5.609375 40.453125 2.21875 
Q 35.015625 -1.171875 29 -1.171875 
Q 24.609375 -1.171875 21.109375 0.6875 
Q 17.625 2.546875 15.375 5.375 
L 15.375 -19.875 
z
M 14.546875 25.640625 
Q 14.546875 15.625 18.59375 10.84375 
Q 22.65625 6.0625 28.421875 6.0625 
Q 34.28125 6.0625 38.453125 11.015625 
Q 42.625 15.96875 42.625 26.375 
Q 42.625 36.28125 38.546875 41.203125 
Q 34.46875 46.140625 28.8125 46.140625 
Q 23.1875 46.140625 18.859375 40.890625 
Q 14.546875 35.640625 14.546875 25.640625 
z
" id="ArialMT-112"/>
       <path d="M 6.203125 -19.96875 
L 5.21875 -11.71875 
Q 8.109375 -12.5 10.25 -12.5 
Q 13.1875 -12.5 14.9375 -11.515625 
Q 16.703125 -10.546875 17.828125 -8.796875 
Q 18.65625 -7.46875 20.515625 -2.25 
Q 20.75 -1.515625 21.296875 -0.09375 
L 1.609375 51.859375 
L 11.078125 51.859375 
L 21.875 21.828125 
Q 23.96875 16.109375 25.640625 9.8125 
Q 27.15625 15.875 29.25 21.625 
L 40.328125 51.859375 
L 49.125 51.859375 
L 29.390625 -0.875 
Q 26.21875 -9.421875 24.46875 -12.640625 
Q 22.125 -17 19.09375 -19.015625 
Q 16.0625 -21.046875 11.859375 -21.046875 
Q 9.328125 -21.046875 6.203125 -19.96875 
z
" id="ArialMT-121"/>
      </defs>
      <use xlink:href="#ArialMT-80"/>
      <use x="66.699219" xlink:href="#ArialMT-111"/>
      <use x="122.314453" xlink:href="#ArialMT-115"/>
      <use x="172.314453" xlink:href="#ArialMT-105"/>
      <use x="194.53125" xlink:href="#ArialMT-116"/>
      <use x="222.314453" xlink:href="#ArialMT-105"/>
      <use x="244.53125" xlink:href="#ArialMT-111"/>
      <use x="300.146484" xlink:href="#ArialMT-110"/>
      <use x="355.761719" xlink:href="#ArialMT-32"/>
      <use x="383.544922" xlink:href="#ArialMT-69"/>
      <use x="450.244141" xlink:href="#ArialMT-110"/>
      <use x="505.859375" xlink:href="#ArialMT-116"/>
      <use x="533.642578" xlink:href="#ArialMT-114"/>
      <use x="566.943359" xlink:href="#ArialMT-111"/>
      <use x="622.558594" xlink:href="#ArialMT-112"/>
      <use x="678.173828" xlink:href="#ArialMT-121"/>
     </g>
    </g>
   </g>
   <g id="line2d_192">
    <path clip-path="url(#p0095419edf)" d="M 138.436364 256.32 
L 222.900913 256.32 
L 225.813484 226.752 
L 228.726055 256.32 
L 426.780861 256.32 
L 429.693432 138.048 
L 432.606003 256.32 
L 674.349369 256.32 
L 677.26194 49.344 
L 680.174511 256.32 
L 747.163636 256.32 
L 747.163636 256.32 
" style="fill:none;stroke:#000000;stroke-linecap:square;stroke-width:1.5;"/>
   </g>
   <g id="patch_6">
    <path d="M 98 256.32 
L 98 34.56 
" style="fill:none;stroke:#000000;stroke-linecap:square;stroke-linejoin:miter;stroke-width:0.8;"/>
   </g>
   <g id="patch_7">
    <path d="M 108 266.32 
L 777.6 266.32 
" style="fill:none;stroke:#000000;stroke-linecap:square;stroke-linejoin:miter;stroke-width:0.8;"/>
   </g>
  </g>
 </g>
 <defs>
  <clipPath id="p0095419edf">
   <rect height="221.76" width="669.6" x="108" y="34.56"/>
  </clipPath>
 </defs>
</svg>
