<?xml version="1.0" encoding="utf-8" standalone="no"?>
<!DOCTYPE svg PUBLIC "-//W3C//DTD SVG 1.1//EN"
  "http://www.w3.org/Graphics/SVG/1.1/DTD/svg11.dtd">
<!-- Created with matplotlib (https://matplotlib.org/) -->
<svg height="345.6pt" version="1.1" viewBox="0 0 460.8 345.6" width="460.8pt" xmlns="http://www.w3.org/2000/svg" xmlns:xlink="http://www.w3.org/1999/xlink">
 <metadata>
  <rdf:RDF xmlns:cc="http://creativecommons.org/ns#" xmlns:dc="http://purl.org/dc/elements/1.1/" xmlns:rdf="http://www.w3.org/1999/02/22-rdf-syntax-ns#">
   <cc:Work>
    <dc:type rdf:resource="http://purl.org/dc/dcmitype/StillImage"/>
    <dc:date>2022-03-04T00:44:11.558465</dc:date>
    <dc:format>image/svg+xml</dc:format>
    <dc:creator>
     <cc:Agent>
      <dc:title>Matplotlib v3.3.4, https://matplotlib.org/</dc:title>
     </cc:Agent>
    </dc:creator>
   </cc:Work>
  </rdf:RDF>
 </metadata>
 <defs>
  <style type="text/css">*{stroke-linecap:butt;stroke-linejoin:round;}</style>
 </defs>
 <g id="figure_1">
  <g id="patch_1">
   <path d="M 0 345.6 
L 460.8 345.6 
L 460.8 0 
L 0 0 
z
" style="fill:#ffffff;"/>
  </g>
  <g id="axes_1">
   <g id="patch_2">
    <path d="M 57.6 307.584 
L 414.72 307.584 
L 414.72 41.472 
L 57.6 41.472 
z
" style="fill:#ffffff;"/>
   </g>
   <g id="matplotlib.axis_1">
    <g id="xtick_1">
     <g id="line2d_1">
      <defs>
       <path d="M 0 0 
L 0 -3.5 
" id="mc385a85274" style="stroke:#000000;stroke-width:0.8;"/>
      </defs>
      <g>
       <use style="stroke:#000000;stroke-width:0.8;" x="73.832727" xlink:href="#mc385a85274" y="307.584"/>
      </g>
     </g>
     <g id="line2d_2">
      <defs>
       <path d="M 0 0 
L 0 3.5 
" id="ma2a78a79c7" style="stroke:#000000;stroke-width:0.8;"/>
      </defs>
      <g>
       <use style="stroke:#000000;stroke-width:0.8;" x="73.832727" xlink:href="#ma2a78a79c7" y="41.472"/>
      </g>
     </g>
     <g id="text_1">
      <!-- 0 -->
      <g transform="translate(69.383977 322.5365)scale(0.16 -0.16)">
       <defs>
        <path d="M 4.15625 35.296875 
Q 4.15625 48 6.765625 55.734375 
Q 9.375 63.484375 14.515625 67.671875 
Q 19.671875 71.875 27.484375 71.875 
Q 33.25 71.875 37.59375 69.546875 
Q 41.9375 67.234375 44.765625 62.859375 
Q 47.609375 58.5 49.21875 52.21875 
Q 50.828125 45.953125 50.828125 35.296875 
Q 50.828125 22.703125 48.234375 14.96875 
Q 45.65625 7.234375 40.5 3 
Q 35.359375 -1.21875 27.484375 -1.21875 
Q 17.140625 -1.21875 11.234375 6.203125 
Q 4.15625 15.140625 4.15625 35.296875 
z
M 13.1875 35.296875 
Q 13.1875 17.671875 17.3125 11.828125 
Q 21.4375 6 27.484375 6 
Q 33.546875 6 37.671875 11.859375 
Q 41.796875 17.71875 41.796875 35.296875 
Q 41.796875 52.984375 37.671875 58.78125 
Q 33.546875 64.59375 27.390625 64.59375 
Q 21.34375 64.59375 17.71875 59.46875 
Q 13.1875 52.9375 13.1875 35.296875 
z
" id="ArialMT-48"/>
       </defs>
       <use xlink:href="#ArialMT-48"/>
      </g>
     </g>
    </g>
    <g id="xtick_2">
     <g id="line2d_3">
      <g>
       <use style="stroke:#000000;stroke-width:0.8;" x="153.56125" xlink:href="#mc385a85274" y="307.584"/>
      </g>
     </g>
     <g id="line2d_4">
      <g>
       <use style="stroke:#000000;stroke-width:0.8;" x="153.56125" xlink:href="#ma2a78a79c7" y="41.472"/>
      </g>
     </g>
     <g id="text_2">
      <!-- 500 -->
      <g transform="translate(140.215 322.5365)scale(0.16 -0.16)">
       <defs>
        <path d="M 4.15625 18.75 
L 13.375 19.53125 
Q 14.40625 12.796875 18.140625 9.390625 
Q 21.875 6 27.15625 6 
Q 33.5 6 37.890625 10.78125 
Q 42.28125 15.578125 42.28125 23.484375 
Q 42.28125 31 38.0625 35.34375 
Q 33.84375 39.703125 27 39.703125 
Q 22.75 39.703125 19.328125 37.765625 
Q 15.921875 35.84375 13.96875 32.765625 
L 5.71875 33.84375 
L 12.640625 70.609375 
L 48.25 70.609375 
L 48.25 62.203125 
L 19.671875 62.203125 
L 15.828125 42.96875 
Q 22.265625 47.46875 29.34375 47.46875 
Q 38.71875 47.46875 45.15625 40.96875 
Q 51.609375 34.46875 51.609375 24.265625 
Q 51.609375 14.546875 45.953125 7.46875 
Q 39.0625 -1.21875 27.15625 -1.21875 
Q 17.390625 -1.21875 11.203125 4.25 
Q 5.03125 9.71875 4.15625 18.75 
z
" id="ArialMT-53"/>
       </defs>
       <use xlink:href="#ArialMT-53"/>
       <use x="55.615234" xlink:href="#ArialMT-48"/>
       <use x="111.230469" xlink:href="#ArialMT-48"/>
      </g>
     </g>
    </g>
    <g id="xtick_3">
     <g id="line2d_5">
      <g>
       <use style="stroke:#000000;stroke-width:0.8;" x="233.289773" xlink:href="#mc385a85274" y="307.584"/>
      </g>
     </g>
     <g id="line2d_6">
      <g>
       <use style="stroke:#000000;stroke-width:0.8;" x="233.289773" xlink:href="#ma2a78a79c7" y="41.472"/>
      </g>
     </g>
     <g id="text_3">
      <!-- 1000 -->
      <g transform="translate(215.494773 322.5365)scale(0.16 -0.16)">
       <defs>
        <path d="M 37.25 0 
L 28.46875 0 
L 28.46875 56 
Q 25.296875 52.984375 20.140625 49.953125 
Q 14.984375 46.921875 10.890625 45.40625 
L 10.890625 53.90625 
Q 18.265625 57.375 23.78125 62.296875 
Q 29.296875 67.234375 31.59375 71.875 
L 37.25 71.875 
z
" id="ArialMT-49"/>
       </defs>
       <use xlink:href="#ArialMT-49"/>
       <use x="55.615234" xlink:href="#ArialMT-48"/>
       <use x="111.230469" xlink:href="#ArialMT-48"/>
       <use x="166.845703" xlink:href="#ArialMT-48"/>
      </g>
     </g>
    </g>
    <g id="xtick_4">
     <g id="line2d_7">
      <g>
       <use style="stroke:#000000;stroke-width:0.8;" x="313.018296" xlink:href="#mc385a85274" y="307.584"/>
      </g>
     </g>
     <g id="line2d_8">
      <g>
       <use style="stroke:#000000;stroke-width:0.8;" x="313.018296" xlink:href="#ma2a78a79c7" y="41.472"/>
      </g>
     </g>
     <g id="text_4">
      <!-- 1500 -->
      <g transform="translate(295.223296 322.5365)scale(0.16 -0.16)">
       <use xlink:href="#ArialMT-49"/>
       <use x="55.615234" xlink:href="#ArialMT-53"/>
       <use x="111.230469" xlink:href="#ArialMT-48"/>
       <use x="166.845703" xlink:href="#ArialMT-48"/>
      </g>
     </g>
    </g>
    <g id="xtick_5">
     <g id="line2d_9">
      <g>
       <use style="stroke:#000000;stroke-width:0.8;" x="392.746819" xlink:href="#mc385a85274" y="307.584"/>
      </g>
     </g>
     <g id="line2d_10">
      <g>
       <use style="stroke:#000000;stroke-width:0.8;" x="392.746819" xlink:href="#ma2a78a79c7" y="41.472"/>
      </g>
     </g>
     <g id="text_5">
      <!-- 2000 -->
      <g transform="translate(374.951819 322.5365)scale(0.16 -0.16)">
       <defs>
        <path d="M 50.34375 8.453125 
L 50.34375 0 
L 3.03125 0 
Q 2.9375 3.171875 4.046875 6.109375 
Q 5.859375 10.9375 9.828125 15.625 
Q 13.8125 20.3125 21.34375 26.46875 
Q 33.015625 36.03125 37.109375 41.625 
Q 41.21875 47.21875 41.21875 52.203125 
Q 41.21875 57.421875 37.46875 61 
Q 33.734375 64.59375 27.734375 64.59375 
Q 21.390625 64.59375 17.578125 60.78125 
Q 13.765625 56.984375 13.71875 50.25 
L 4.6875 51.171875 
Q 5.609375 61.28125 11.65625 66.578125 
Q 17.71875 71.875 27.9375 71.875 
Q 38.234375 71.875 44.234375 66.15625 
Q 50.25 60.453125 50.25 52 
Q 50.25 47.703125 48.484375 43.546875 
Q 46.734375 39.40625 42.65625 34.8125 
Q 38.578125 30.21875 29.109375 22.21875 
Q 21.1875 15.578125 18.9375 13.203125 
Q 16.703125 10.84375 15.234375 8.453125 
z
" id="ArialMT-50"/>
       </defs>
       <use xlink:href="#ArialMT-50"/>
       <use x="55.615234" xlink:href="#ArialMT-48"/>
       <use x="111.230469" xlink:href="#ArialMT-48"/>
       <use x="166.845703" xlink:href="#ArialMT-48"/>
      </g>
     </g>
    </g>
    <g id="text_6">
     <!-- Genomes -->
     <g transform="translate(197.143594 342.600562)scale(0.18 -0.18)">
      <defs>
       <path d="M 41.21875 28.078125 
L 41.21875 36.46875 
L 71.53125 36.53125 
L 71.53125 9.96875 
Q 64.546875 4.390625 57.125 1.578125 
Q 49.703125 -1.21875 41.890625 -1.21875 
Q 31.34375 -1.21875 22.71875 3.296875 
Q 14.109375 7.8125 9.71875 16.359375 
Q 5.328125 24.90625 5.328125 35.453125 
Q 5.328125 45.90625 9.6875 54.953125 
Q 14.0625 64.015625 22.265625 68.40625 
Q 30.46875 72.796875 41.15625 72.796875 
Q 48.921875 72.796875 55.1875 70.28125 
Q 61.46875 67.78125 65.03125 63.28125 
Q 68.609375 58.796875 70.453125 51.5625 
L 61.921875 49.21875 
Q 60.296875 54.6875 57.90625 57.8125 
Q 55.515625 60.9375 51.0625 62.8125 
Q 46.625 64.703125 41.21875 64.703125 
Q 34.71875 64.703125 29.984375 62.71875 
Q 25.25 60.75 22.34375 57.515625 
Q 19.4375 54.296875 17.828125 50.4375 
Q 15.09375 43.796875 15.09375 36.03125 
Q 15.09375 26.46875 18.390625 20.015625 
Q 21.6875 13.578125 27.984375 10.453125 
Q 34.28125 7.328125 41.359375 7.328125 
Q 47.515625 7.328125 53.375 9.6875 
Q 59.234375 12.0625 62.25 14.75 
L 62.25 28.078125 
z
" id="ArialMT-71"/>
       <path d="M 42.09375 16.703125 
L 51.171875 15.578125 
Q 49.03125 7.625 43.21875 3.21875 
Q 37.40625 -1.171875 28.375 -1.171875 
Q 17 -1.171875 10.328125 5.828125 
Q 3.65625 12.84375 3.65625 25.484375 
Q 3.65625 38.578125 10.390625 45.796875 
Q 17.140625 53.03125 27.875 53.03125 
Q 38.28125 53.03125 44.875 45.953125 
Q 51.46875 38.875 51.46875 26.03125 
Q 51.46875 25.25 51.421875 23.6875 
L 12.75 23.6875 
Q 13.234375 15.140625 17.578125 10.59375 
Q 21.921875 6.0625 28.421875 6.0625 
Q 33.25 6.0625 36.671875 8.59375 
Q 40.09375 11.140625 42.09375 16.703125 
z
M 13.234375 30.90625 
L 42.1875 30.90625 
Q 41.609375 37.453125 38.875 40.71875 
Q 34.671875 45.796875 27.984375 45.796875 
Q 21.921875 45.796875 17.796875 41.75 
Q 13.671875 37.703125 13.234375 30.90625 
z
" id="ArialMT-101"/>
       <path d="M 6.59375 0 
L 6.59375 51.859375 
L 14.5 51.859375 
L 14.5 44.484375 
Q 20.21875 53.03125 31 53.03125 
Q 35.6875 53.03125 39.625 51.34375 
Q 43.5625 49.65625 45.515625 46.921875 
Q 47.46875 44.1875 48.25 40.4375 
Q 48.734375 37.984375 48.734375 31.890625 
L 48.734375 0 
L 39.9375 0 
L 39.9375 31.546875 
Q 39.9375 36.921875 38.90625 39.578125 
Q 37.890625 42.234375 35.28125 43.8125 
Q 32.671875 45.40625 29.15625 45.40625 
Q 23.53125 45.40625 19.453125 41.84375 
Q 15.375 38.28125 15.375 28.328125 
L 15.375 0 
z
" id="ArialMT-110"/>
       <path d="M 3.328125 25.921875 
Q 3.328125 40.328125 11.328125 47.265625 
Q 18.015625 53.03125 27.640625 53.03125 
Q 38.328125 53.03125 45.109375 46.015625 
Q 51.90625 39.015625 51.90625 26.65625 
Q 51.90625 16.65625 48.90625 10.90625 
Q 45.90625 5.171875 40.15625 2 
Q 34.421875 -1.171875 27.640625 -1.171875 
Q 16.75 -1.171875 10.03125 5.8125 
Q 3.328125 12.796875 3.328125 25.921875 
z
M 12.359375 25.921875 
Q 12.359375 15.96875 16.703125 11.015625 
Q 21.046875 6.0625 27.640625 6.0625 
Q 34.1875 6.0625 38.53125 11.03125 
Q 42.875 16.015625 42.875 26.21875 
Q 42.875 35.84375 38.5 40.796875 
Q 34.125 45.75 27.640625 45.75 
Q 21.046875 45.75 16.703125 40.8125 
Q 12.359375 35.890625 12.359375 25.921875 
z
" id="ArialMT-111"/>
       <path d="M 6.59375 0 
L 6.59375 51.859375 
L 14.453125 51.859375 
L 14.453125 44.578125 
Q 16.890625 48.390625 20.9375 50.703125 
Q 25 53.03125 30.171875 53.03125 
Q 35.9375 53.03125 39.625 50.640625 
Q 43.3125 48.25 44.828125 43.953125 
Q 50.984375 53.03125 60.84375 53.03125 
Q 68.5625 53.03125 72.703125 48.75 
Q 76.859375 44.484375 76.859375 35.59375 
L 76.859375 0 
L 68.109375 0 
L 68.109375 32.671875 
Q 68.109375 37.9375 67.25 40.25 
Q 66.40625 42.578125 64.15625 43.984375 
Q 61.921875 45.40625 58.890625 45.40625 
Q 53.421875 45.40625 49.796875 41.765625 
Q 46.1875 38.140625 46.1875 30.125 
L 46.1875 0 
L 37.40625 0 
L 37.40625 33.6875 
Q 37.40625 39.546875 35.25 42.46875 
Q 33.109375 45.40625 28.21875 45.40625 
Q 24.515625 45.40625 21.359375 43.453125 
Q 18.21875 41.5 16.796875 37.734375 
Q 15.375 33.984375 15.375 26.90625 
L 15.375 0 
z
" id="ArialMT-109"/>
       <path d="M 3.078125 15.484375 
L 11.765625 16.84375 
Q 12.5 11.625 15.84375 8.84375 
Q 19.1875 6.0625 25.203125 6.0625 
Q 31.25 6.0625 34.171875 8.515625 
Q 37.109375 10.984375 37.109375 14.3125 
Q 37.109375 17.28125 34.515625 19 
Q 32.71875 20.171875 25.53125 21.96875 
Q 15.875 24.421875 12.140625 26.203125 
Q 8.40625 27.984375 6.46875 31.125 
Q 4.546875 34.28125 4.546875 38.09375 
Q 4.546875 41.546875 6.125 44.5 
Q 7.71875 47.46875 10.453125 49.421875 
Q 12.5 50.921875 16.03125 51.96875 
Q 19.578125 53.03125 23.640625 53.03125 
Q 29.734375 53.03125 34.34375 51.265625 
Q 38.96875 49.515625 41.15625 46.5 
Q 43.359375 43.5 44.1875 38.484375 
L 35.59375 37.3125 
Q 35.015625 41.3125 32.203125 43.546875 
Q 29.390625 45.796875 24.265625 45.796875 
Q 18.21875 45.796875 15.625 43.796875 
Q 13.03125 41.796875 13.03125 39.109375 
Q 13.03125 37.40625 14.109375 36.03125 
Q 15.1875 34.625 17.484375 33.6875 
Q 18.796875 33.203125 25.25 31.453125 
Q 34.578125 28.953125 38.25 27.359375 
Q 41.9375 25.78125 44.03125 22.75 
Q 46.140625 19.734375 46.140625 15.234375 
Q 46.140625 10.84375 43.578125 6.953125 
Q 41.015625 3.078125 36.171875 0.953125 
Q 31.34375 -1.171875 25.25 -1.171875 
Q 15.140625 -1.171875 9.84375 3.03125 
Q 4.546875 7.234375 3.078125 15.484375 
z
" id="ArialMT-115"/>
      </defs>
      <use xlink:href="#ArialMT-71"/>
      <use x="77.783203" xlink:href="#ArialMT-101"/>
      <use x="133.398438" xlink:href="#ArialMT-110"/>
      <use x="189.013672" xlink:href="#ArialMT-111"/>
      <use x="244.628906" xlink:href="#ArialMT-109"/>
      <use x="327.929688" xlink:href="#ArialMT-101"/>
      <use x="383.544922" xlink:href="#ArialMT-115"/>
     </g>
    </g>
   </g>
   <g id="matplotlib.axis_2">
    <g id="ytick_1">
     <g id="line2d_11">
      <defs>
       <path d="M 0 0 
L 3.5 0 
" id="m3adf25b62a" style="stroke:#000000;stroke-width:0.8;"/>
      </defs>
      <g>
       <use style="stroke:#000000;stroke-width:0.8;" x="57.6" xlink:href="#m3adf25b62a" y="295.488"/>
      </g>
     </g>
     <g id="line2d_12">
      <defs>
       <path d="M 0 0 
L -3.5 0 
" id="m1f1c91dfb0" style="stroke:#000000;stroke-width:0.8;"/>
      </defs>
      <g>
       <use style="stroke:#000000;stroke-width:0.8;" x="414.72" xlink:href="#m1f1c91dfb0" y="295.488"/>
      </g>
     </g>
     <g id="text_7">
      <!-- 0 -->
      <g transform="translate(45.2025 301.21425)scale(0.16 -0.16)">
       <use xlink:href="#ArialMT-48"/>
      </g>
     </g>
    </g>
    <g id="ytick_2">
     <g id="line2d_13">
      <g>
       <use style="stroke:#000000;stroke-width:0.8;" x="57.6" xlink:href="#m3adf25b62a" y="243.418477"/>
      </g>
     </g>
     <g id="line2d_14">
      <g>
       <use style="stroke:#000000;stroke-width:0.8;" x="414.72" xlink:href="#m1f1c91dfb0" y="243.418477"/>
      </g>
     </g>
     <g id="text_8">
      <!-- 20000 -->
      <g transform="translate(9.6125 249.144727)scale(0.16 -0.16)">
       <use xlink:href="#ArialMT-50"/>
       <use x="55.615234" xlink:href="#ArialMT-48"/>
       <use x="111.230469" xlink:href="#ArialMT-48"/>
       <use x="166.845703" xlink:href="#ArialMT-48"/>
       <use x="222.460938" xlink:href="#ArialMT-48"/>
      </g>
     </g>
    </g>
    <g id="ytick_3">
     <g id="line2d_15">
      <g>
       <use style="stroke:#000000;stroke-width:0.8;" x="57.6" xlink:href="#m3adf25b62a" y="191.348954"/>
      </g>
     </g>
     <g id="line2d_16">
      <g>
       <use style="stroke:#000000;stroke-width:0.8;" x="414.72" xlink:href="#m1f1c91dfb0" y="191.348954"/>
      </g>
     </g>
     <g id="text_9">
      <!-- 40000 -->
      <g transform="translate(9.6125 197.075204)scale(0.16 -0.16)">
       <defs>
        <path d="M 32.328125 0 
L 32.328125 17.140625 
L 1.265625 17.140625 
L 1.265625 25.203125 
L 33.9375 71.578125 
L 41.109375 71.578125 
L 41.109375 25.203125 
L 50.78125 25.203125 
L 50.78125 17.140625 
L 41.109375 17.140625 
L 41.109375 0 
z
M 32.328125 25.203125 
L 32.328125 57.46875 
L 9.90625 25.203125 
z
" id="ArialMT-52"/>
       </defs>
       <use xlink:href="#ArialMT-52"/>
       <use x="55.615234" xlink:href="#ArialMT-48"/>
       <use x="111.230469" xlink:href="#ArialMT-48"/>
       <use x="166.845703" xlink:href="#ArialMT-48"/>
       <use x="222.460938" xlink:href="#ArialMT-48"/>
      </g>
     </g>
    </g>
    <g id="ytick_4">
     <g id="line2d_17">
      <g>
       <use style="stroke:#000000;stroke-width:0.8;" x="57.6" xlink:href="#m3adf25b62a" y="139.27943"/>
      </g>
     </g>
     <g id="line2d_18">
      <g>
       <use style="stroke:#000000;stroke-width:0.8;" x="414.72" xlink:href="#m1f1c91dfb0" y="139.27943"/>
      </g>
     </g>
     <g id="text_10">
      <!-- 60000 -->
      <g transform="translate(9.6125 145.00568)scale(0.16 -0.16)">
       <defs>
        <path d="M 49.75 54.046875 
L 41.015625 53.375 
Q 39.84375 58.546875 37.703125 60.890625 
Q 34.125 64.65625 28.90625 64.65625 
Q 24.703125 64.65625 21.53125 62.3125 
Q 17.390625 59.28125 14.984375 53.46875 
Q 12.59375 47.65625 12.5 36.921875 
Q 15.671875 41.75 20.265625 44.09375 
Q 24.859375 46.4375 29.890625 46.4375 
Q 38.671875 46.4375 44.84375 39.96875 
Q 51.03125 33.5 51.03125 23.25 
Q 51.03125 16.5 48.125 10.71875 
Q 45.21875 4.9375 40.140625 1.859375 
Q 35.0625 -1.21875 28.609375 -1.21875 
Q 17.625 -1.21875 10.6875 6.859375 
Q 3.765625 14.9375 3.765625 33.5 
Q 3.765625 54.25 11.421875 63.671875 
Q 18.109375 71.875 29.4375 71.875 
Q 37.890625 71.875 43.28125 67.140625 
Q 48.6875 62.40625 49.75 54.046875 
z
M 13.875 23.1875 
Q 13.875 18.65625 15.796875 14.5 
Q 17.71875 10.359375 21.1875 8.171875 
Q 24.65625 6 28.46875 6 
Q 34.03125 6 38.03125 10.484375 
Q 42.046875 14.984375 42.046875 22.703125 
Q 42.046875 30.125 38.078125 34.390625 
Q 34.125 38.671875 28.125 38.671875 
Q 22.171875 38.671875 18.015625 34.390625 
Q 13.875 30.125 13.875 23.1875 
z
" id="ArialMT-54"/>
       </defs>
       <use xlink:href="#ArialMT-54"/>
       <use x="55.615234" xlink:href="#ArialMT-48"/>
       <use x="111.230469" xlink:href="#ArialMT-48"/>
       <use x="166.845703" xlink:href="#ArialMT-48"/>
       <use x="222.460938" xlink:href="#ArialMT-48"/>
      </g>
     </g>
    </g>
    <g id="ytick_5">
     <g id="line2d_19">
      <g>
       <use style="stroke:#000000;stroke-width:0.8;" x="57.6" xlink:href="#m3adf25b62a" y="87.209907"/>
      </g>
     </g>
     <g id="line2d_20">
      <g>
       <use style="stroke:#000000;stroke-width:0.8;" x="414.72" xlink:href="#m1f1c91dfb0" y="87.209907"/>
      </g>
     </g>
     <g id="text_11">
      <!-- 80000 -->
      <g transform="translate(9.6125 92.936157)scale(0.16 -0.16)">
       <defs>
        <path d="M 17.671875 38.8125 
Q 12.203125 40.828125 9.5625 44.53125 
Q 6.9375 48.25 6.9375 53.421875 
Q 6.9375 61.234375 12.546875 66.546875 
Q 18.171875 71.875 27.484375 71.875 
Q 36.859375 71.875 42.578125 66.421875 
Q 48.296875 60.984375 48.296875 53.171875 
Q 48.296875 48.1875 45.671875 44.5 
Q 43.0625 40.828125 37.75 38.8125 
Q 44.34375 36.671875 47.78125 31.875 
Q 51.21875 27.09375 51.21875 20.453125 
Q 51.21875 11.28125 44.71875 5.03125 
Q 38.234375 -1.21875 27.640625 -1.21875 
Q 17.046875 -1.21875 10.546875 5.046875 
Q 4.046875 11.328125 4.046875 20.703125 
Q 4.046875 27.6875 7.59375 32.390625 
Q 11.140625 37.109375 17.671875 38.8125 
z
M 15.921875 53.71875 
Q 15.921875 48.640625 19.1875 45.40625 
Q 22.46875 42.1875 27.6875 42.1875 
Q 32.765625 42.1875 36.015625 45.375 
Q 39.265625 48.578125 39.265625 53.21875 
Q 39.265625 58.0625 35.90625 61.359375 
Q 32.5625 64.65625 27.59375 64.65625 
Q 22.5625 64.65625 19.234375 61.421875 
Q 15.921875 58.203125 15.921875 53.71875 
z
M 13.09375 20.65625 
Q 13.09375 16.890625 14.875 13.375 
Q 16.65625 9.859375 20.171875 7.921875 
Q 23.6875 6 27.734375 6 
Q 34.03125 6 38.125 10.046875 
Q 42.234375 14.109375 42.234375 20.359375 
Q 42.234375 26.703125 38.015625 30.859375 
Q 33.796875 35.015625 27.4375 35.015625 
Q 21.234375 35.015625 17.15625 30.90625 
Q 13.09375 26.8125 13.09375 20.65625 
z
" id="ArialMT-56"/>
       </defs>
       <use xlink:href="#ArialMT-56"/>
       <use x="55.615234" xlink:href="#ArialMT-48"/>
       <use x="111.230469" xlink:href="#ArialMT-48"/>
       <use x="166.845703" xlink:href="#ArialMT-48"/>
       <use x="222.460938" xlink:href="#ArialMT-48"/>
      </g>
     </g>
    </g>
    <g id="text_12">
     <!-- Unique Occurence -->
     <g transform="translate(2.035 249.063469)rotate(-90)scale(0.18 -0.18)">
      <defs>
       <path d="M 54.6875 71.578125 
L 64.15625 71.578125 
L 64.15625 30.21875 
Q 64.15625 19.4375 61.71875 13.078125 
Q 59.28125 6.734375 52.90625 2.75 
Q 46.53125 -1.21875 36.1875 -1.21875 
Q 26.125 -1.21875 19.71875 2.25 
Q 13.328125 5.71875 10.59375 12.28125 
Q 7.859375 18.84375 7.859375 30.21875 
L 7.859375 71.578125 
L 17.328125 71.578125 
L 17.328125 30.28125 
Q 17.328125 20.953125 19.0625 16.53125 
Q 20.796875 12.109375 25.015625 9.71875 
Q 29.25 7.328125 35.359375 7.328125 
Q 45.796875 7.328125 50.234375 12.0625 
Q 54.6875 16.796875 54.6875 30.28125 
z
" id="ArialMT-85"/>
       <path d="M 6.640625 61.46875 
L 6.640625 71.578125 
L 15.4375 71.578125 
L 15.4375 61.46875 
z
M 6.640625 0 
L 6.640625 51.859375 
L 15.4375 51.859375 
L 15.4375 0 
z
" id="ArialMT-105"/>
       <path d="M 39.65625 -19.875 
L 39.65625 5.515625 
Q 37.59375 2.640625 33.90625 0.734375 
Q 30.21875 -1.171875 26.078125 -1.171875 
Q 16.84375 -1.171875 10.171875 6.203125 
Q 3.515625 13.578125 3.515625 26.421875 
Q 3.515625 34.234375 6.21875 40.421875 
Q 8.9375 46.625 14.078125 49.828125 
Q 19.234375 53.03125 25.390625 53.03125 
Q 35.015625 53.03125 40.53125 44.921875 
L 40.53125 51.859375 
L 48.4375 51.859375 
L 48.4375 -19.875 
z
M 12.546875 26.078125 
Q 12.546875 16.0625 16.75 11.0625 
Q 20.953125 6.0625 26.8125 6.0625 
Q 32.421875 6.0625 36.46875 10.8125 
Q 40.53125 15.578125 40.53125 25.296875 
Q 40.53125 35.640625 36.25 40.859375 
Q 31.984375 46.09375 26.21875 46.09375 
Q 20.515625 46.09375 16.53125 41.234375 
Q 12.546875 36.375 12.546875 26.078125 
z
" id="ArialMT-113"/>
       <path d="M 40.578125 0 
L 40.578125 7.625 
Q 34.515625 -1.171875 24.125 -1.171875 
Q 19.53125 -1.171875 15.546875 0.578125 
Q 11.578125 2.34375 9.640625 5 
Q 7.71875 7.671875 6.9375 11.53125 
Q 6.390625 14.109375 6.390625 19.734375 
L 6.390625 51.859375 
L 15.1875 51.859375 
L 15.1875 23.09375 
Q 15.1875 16.21875 15.71875 13.8125 
Q 16.546875 10.359375 19.234375 8.375 
Q 21.921875 6.390625 25.875 6.390625 
Q 29.828125 6.390625 33.296875 8.421875 
Q 36.765625 10.453125 38.203125 13.9375 
Q 39.65625 17.4375 39.65625 24.078125 
L 39.65625 51.859375 
L 48.4375 51.859375 
L 48.4375 0 
z
" id="ArialMT-117"/>
       <path id="ArialMT-32"/>
       <path d="M 4.828125 34.859375 
Q 4.828125 52.6875 14.390625 62.765625 
Q 23.96875 72.859375 39.109375 72.859375 
Q 49.03125 72.859375 56.984375 68.109375 
Q 64.9375 63.375 69.109375 54.90625 
Q 73.296875 46.4375 73.296875 35.6875 
Q 73.296875 24.8125 68.890625 16.21875 
Q 64.5 7.625 56.4375 3.203125 
Q 48.390625 -1.21875 39.0625 -1.21875 
Q 28.953125 -1.21875 20.984375 3.65625 
Q 13.03125 8.546875 8.921875 16.984375 
Q 4.828125 25.4375 4.828125 34.859375 
z
M 14.59375 34.71875 
Q 14.59375 21.78125 21.546875 14.328125 
Q 28.515625 6.890625 39.015625 6.890625 
Q 49.703125 6.890625 56.609375 14.40625 
Q 63.53125 21.921875 63.53125 35.75 
Q 63.53125 44.484375 60.578125 51 
Q 57.625 57.515625 51.921875 61.109375 
Q 46.234375 64.703125 39.15625 64.703125 
Q 29.109375 64.703125 21.84375 57.78125 
Q 14.59375 50.875 14.59375 34.71875 
z
" id="ArialMT-79"/>
       <path d="M 40.4375 19 
L 49.078125 17.875 
Q 47.65625 8.9375 41.8125 3.875 
Q 35.984375 -1.171875 27.484375 -1.171875 
Q 16.84375 -1.171875 10.375 5.78125 
Q 3.90625 12.75 3.90625 25.734375 
Q 3.90625 34.125 6.6875 40.421875 
Q 9.46875 46.734375 15.15625 49.875 
Q 20.84375 53.03125 27.546875 53.03125 
Q 35.984375 53.03125 41.359375 48.75 
Q 46.734375 44.484375 48.25 36.625 
L 39.703125 35.296875 
Q 38.484375 40.53125 35.375 43.15625 
Q 32.28125 45.796875 27.875 45.796875 
Q 21.234375 45.796875 17.078125 41.03125 
Q 12.9375 36.28125 12.9375 25.984375 
Q 12.9375 15.53125 16.9375 10.796875 
Q 20.953125 6.0625 27.390625 6.0625 
Q 32.5625 6.0625 36.03125 9.234375 
Q 39.5 12.40625 40.4375 19 
z
" id="ArialMT-99"/>
       <path d="M 6.5 0 
L 6.5 51.859375 
L 14.40625 51.859375 
L 14.40625 44 
Q 17.4375 49.515625 20 51.265625 
Q 22.5625 53.03125 25.640625 53.03125 
Q 30.078125 53.03125 34.671875 50.203125 
L 31.640625 42.046875 
Q 28.421875 43.953125 25.203125 43.953125 
Q 22.3125 43.953125 20.015625 42.21875 
Q 17.71875 40.484375 16.75 37.40625 
Q 15.28125 32.71875 15.28125 27.15625 
L 15.28125 0 
z
" id="ArialMT-114"/>
      </defs>
      <use xlink:href="#ArialMT-85"/>
      <use x="72.216797" xlink:href="#ArialMT-110"/>
      <use x="127.832031" xlink:href="#ArialMT-105"/>
      <use x="150.048828" xlink:href="#ArialMT-113"/>
      <use x="205.664062" xlink:href="#ArialMT-117"/>
      <use x="261.279297" xlink:href="#ArialMT-101"/>
      <use x="316.894531" xlink:href="#ArialMT-32"/>
      <use x="344.677734" xlink:href="#ArialMT-79"/>
      <use x="422.460938" xlink:href="#ArialMT-99"/>
      <use x="472.460938" xlink:href="#ArialMT-99"/>
      <use x="522.460938" xlink:href="#ArialMT-117"/>
      <use x="578.076172" xlink:href="#ArialMT-114"/>
      <use x="611.376953" xlink:href="#ArialMT-101"/>
      <use x="666.992188" xlink:href="#ArialMT-110"/>
      <use x="722.607422" xlink:href="#ArialMT-99"/>
      <use x="772.607422" xlink:href="#ArialMT-101"/>
     </g>
    </g>
   </g>
   <g id="line2d_21">
    <path clip-path="url(#p958df7fe31)" d="M 73.832727 295.488 
L 74.151641 292.8011 
L 74.630013 291.538363 
L 75.427298 290.202098 
L 76.38404 289.04724 
L 77.659696 287.850151 
L 79.413724 286.537212 
L 81.646123 285.177071 
L 84.356892 283.801635 
L 87.70549 282.362357 
L 91.851373 280.837103 
L 96.794542 279.265091 
L 102.694453 277.62789 
L 109.710563 275.916849 
L 118.002329 274.129045 
L 127.729209 272.264877 
L 139.050659 270.326591 
L 152.126137 268.317385 
L 167.274556 266.219853 
L 184.655374 264.043575 
L 204.428048 261.796535 
L 226.911491 259.469619 
L 252.424619 257.057982 
L 281.126887 254.572956 
L 313.33721 252.011445 
L 349.374503 249.372358 
L 389.557678 246.655984 
L 398.487273 246.080015 
L 398.487273 246.080015 
" style="fill:none;stroke:#1b9e77;stroke-linecap:square;stroke-width:1.5;"/>
   </g>
   <g id="line2d_22">
    <path clip-path="url(#p958df7fe31)" d="M 73.832727 295.488 
L 74.151641 292.279036 
L 74.78947 289.117648 
L 75.746212 285.669313 
L 77.021868 281.982152 
L 78.616439 278.092758 
L 80.529923 274.027625 
L 82.762322 269.8066 
L 85.313635 265.445091 
L 88.343318 260.716429 
L 91.691916 255.905002 
L 95.518886 250.805428 
L 99.664769 245.650163 
L 104.289023 240.255097 
L 109.391649 234.648471 
L 114.972645 228.852716 
L 121.032013 222.885938 
L 127.569752 216.762971 
L 134.585862 210.496141 
L 142.2398 203.962611 
L 150.372109 197.31537 
L 159.142247 190.438001 
L 168.390755 183.467775 
L 178.277092 176.294749 
L 188.801257 168.934183 
L 199.963251 161.399328 
L 211.763072 153.701751 
L 224.360179 145.752579 
L 237.595113 137.665933 
L 251.627333 129.356153 
L 266.297382 120.928246 
L 281.764715 112.299894 
L 298.029334 103.483224 
L 315.091238 94.489098 
L 332.950427 85.327272 
L 351.606901 76.006534 
L 371.220118 66.458168 
L 391.63062 56.769794 
L 398.487273 53.568 
L 398.487273 53.568 
" style="fill:none;stroke:#d95f02;stroke-linecap:square;stroke-width:1.5;"/>
   </g>
   <g id="line2d_23">
    <path clip-path="url(#p958df7fe31)" d="M 73.832727 295.488 
L 74.151641 290.950691 
L 74.78947 287.143386 
L 75.586755 283.809205 
L 76.702954 280.141328 
L 78.138068 276.271551 
L 79.732638 272.602391 
L 81.646123 268.744413 
L 83.878521 264.744708 
L 86.429834 260.633459 
L 89.300061 256.431049 
L 92.489202 252.151881 
L 96.156714 247.616595 
L 100.14314 243.049575 
L 104.44848 238.45169 
L 109.232191 233.669359 
L 114.494274 228.730688 
L 120.234728 223.65793 
L 126.453552 218.46886 
L 133.150748 213.177817 
L 140.326315 207.79649 
L 147.980254 202.334505 
L 156.27202 196.693843 
L 165.042158 190.99651 
L 174.450123 185.150013 
L 184.495917 179.170132 
L 195.179539 173.070331 
L 206.500989 166.862141 
L 218.619725 160.472999 
L 231.376289 154.00002 
L 244.930138 147.373462 
L 259.281272 140.607288 
L 274.429691 133.713726 
L 290.375396 126.703506 
L 307.118385 119.586072 
L 324.818118 112.305203 
L 343.474592 104.874314 
L 362.928351 97.36594 
L 383.49831 89.667696 
L 398.487273 84.200795 
L 398.487273 84.200795 
" style="fill:none;stroke:#7570b3;stroke-linecap:square;stroke-width:1.5;"/>
   </g>
   <g id="line2d_24">
    <path clip-path="url(#p958df7fe31)" d="M 73.832727 295.488 
L 74.151641 291.208732 
L 74.78947 287.606582 
L 75.586755 284.448688 
L 76.702954 280.972259 
L 78.138068 277.302322 
L 79.892095 273.497401 
L 81.80558 269.873046 
L 84.037978 266.105259 
L 86.589291 262.224708 
L 89.459518 258.252203 
L 92.808116 254.008339 
L 96.475628 249.726923 
L 100.462054 245.409917 
L 104.926851 240.90338 
L 109.87002 236.237863 
L 115.291559 231.437199 
L 121.19147 226.520169 
L 127.569752 221.501738 
L 134.426405 216.393976 
L 141.761429 211.206726 
L 149.734281 205.843362 
L 158.344962 200.325054 
L 167.434013 194.764888 
L 177.160893 189.074178 
L 187.685058 183.178987 
L 198.847051 177.185385 
L 210.646873 171.102463 
L 223.243979 164.860507 
L 236.638371 158.474863 
L 250.830048 151.958859 
L 265.819011 145.324101 
L 281.605258 138.580718 
L 298.348248 131.672897 
L 315.888523 124.677362 
L 334.38554 117.54006 
L 353.8393 110.272413 
L 374.409259 102.827741 
L 395.93596 95.275318 
L 398.487273 94.395282 
L 398.487273 94.395282 
" style="fill:none;stroke:#e6ab02;stroke-linecap:square;stroke-width:1.5;"/>
   </g>
   <g id="patch_3">
    <path d="M 57.6 307.584 
L 57.6 41.472 
" style="fill:none;stroke:#000000;stroke-linecap:square;stroke-linejoin:miter;stroke-width:0.8;"/>
   </g>
   <g id="patch_4">
    <path d="M 414.72 307.584 
L 414.72 41.472 
" style="fill:none;stroke:#000000;stroke-linecap:square;stroke-linejoin:miter;stroke-width:0.8;"/>
   </g>
   <g id="patch_5">
    <path d="M 57.6 307.584 
L 414.72 307.584 
" style="fill:none;stroke:#000000;stroke-linecap:square;stroke-linejoin:miter;stroke-width:0.8;"/>
   </g>
   <g id="patch_6">
    <path d="M 57.6 41.472 
L 414.72 41.472 
" style="fill:none;stroke:#000000;stroke-linecap:square;stroke-linejoin:miter;stroke-width:0.8;"/>
   </g>
   <g id="legend_1">
    <g id="patch_7">
     <path d="M 67.4 131.88575 
L 186.11125 131.88575 
Q 188.91125 131.88575 188.91125 129.08575 
L 188.91125 51.272 
Q 188.91125 48.472 186.11125 48.472 
L 67.4 48.472 
Q 64.6 48.472 64.6 51.272 
L 64.6 129.08575 
Q 64.6 131.88575 67.4 131.88575 
z
" style="fill:#ffffff;opacity:0.8;stroke:#cccccc;stroke-linejoin:miter;"/>
    </g>
    <g id="line2d_25">
     <path d="M 70.2 59.192938 
L 98.2 59.192938 
" style="fill:none;stroke:#1b9e77;stroke-linecap:square;stroke-width:1.5;"/>
    </g>
    <g id="line2d_26"/>
    <g id="text_13">
     <!-- Genes -->
     <g transform="translate(109.4 64.092938)scale(0.14 -0.14)">
      <use xlink:href="#ArialMT-71"/>
      <use x="77.783203" xlink:href="#ArialMT-101"/>
      <use x="133.398438" xlink:href="#ArialMT-110"/>
      <use x="189.013672" xlink:href="#ArialMT-101"/>
      <use x="244.628906" xlink:href="#ArialMT-115"/>
     </g>
    </g>
    <g id="line2d_27">
     <path d="M 70.2 78.996375 
L 98.2 78.996375 
" style="fill:none;stroke:#d95f02;stroke-linecap:square;stroke-width:1.5;"/>
    </g>
    <g id="line2d_28"/>
    <g id="text_14">
     <!-- ORF Alleles -->
     <g transform="translate(109.4 83.896375)scale(0.14 -0.14)">
      <defs>
       <path d="M 7.859375 0 
L 7.859375 71.578125 
L 39.59375 71.578125 
Q 49.171875 71.578125 54.140625 69.640625 
Q 59.125 67.71875 62.109375 62.828125 
Q 65.09375 57.953125 65.09375 52.046875 
Q 65.09375 44.4375 60.15625 39.203125 
Q 55.21875 33.984375 44.921875 32.5625 
Q 48.6875 30.765625 50.640625 29 
Q 54.78125 25.203125 58.5 19.484375 
L 70.953125 0 
L 59.03125 0 
L 49.5625 14.890625 
Q 45.40625 21.34375 42.71875 24.75 
Q 40.046875 28.171875 37.921875 29.53125 
Q 35.796875 30.90625 33.59375 31.453125 
Q 31.984375 31.78125 28.328125 31.78125 
L 17.328125 31.78125 
L 17.328125 0 
z
M 17.328125 39.984375 
L 37.703125 39.984375 
Q 44.1875 39.984375 47.84375 41.328125 
Q 51.515625 42.671875 53.421875 45.625 
Q 55.328125 48.578125 55.328125 52.046875 
Q 55.328125 57.125 51.640625 60.390625 
Q 47.953125 63.671875 39.984375 63.671875 
L 17.328125 63.671875 
z
" id="ArialMT-82"/>
       <path d="M 8.203125 0 
L 8.203125 71.578125 
L 56.5 71.578125 
L 56.5 63.140625 
L 17.671875 63.140625 
L 17.671875 40.96875 
L 51.265625 40.96875 
L 51.265625 32.515625 
L 17.671875 32.515625 
L 17.671875 0 
z
" id="ArialMT-70"/>
       <path d="M -0.140625 0 
L 27.34375 71.578125 
L 37.546875 71.578125 
L 66.84375 0 
L 56.0625 0 
L 47.703125 21.6875 
L 17.78125 21.6875 
L 9.90625 0 
z
M 20.515625 29.390625 
L 44.78125 29.390625 
L 37.3125 49.21875 
Q 33.890625 58.25 32.234375 64.0625 
Q 30.859375 57.171875 28.375 50.390625 
z
" id="ArialMT-65"/>
       <path d="M 6.390625 0 
L 6.390625 71.578125 
L 15.1875 71.578125 
L 15.1875 0 
z
" id="ArialMT-108"/>
      </defs>
      <use xlink:href="#ArialMT-79"/>
      <use x="77.783203" xlink:href="#ArialMT-82"/>
      <use x="150" xlink:href="#ArialMT-70"/>
      <use x="211.083984" xlink:href="#ArialMT-32"/>
      <use x="233.367188" xlink:href="#ArialMT-65"/>
      <use x="300.066406" xlink:href="#ArialMT-108"/>
      <use x="322.283203" xlink:href="#ArialMT-108"/>
      <use x="344.5" xlink:href="#ArialMT-101"/>
      <use x="400.115234" xlink:href="#ArialMT-108"/>
      <use x="422.332031" xlink:href="#ArialMT-101"/>
      <use x="477.947266" xlink:href="#ArialMT-115"/>
     </g>
    </g>
    <g id="line2d_29">
     <path d="M 70.2 98.799813 
L 98.2 98.799813 
" style="fill:none;stroke:#7570b3;stroke-linecap:square;stroke-width:1.5;"/>
    </g>
    <g id="line2d_30"/>
    <g id="text_15">
     <!-- 5' Alleles -->
     <g transform="translate(109.4 103.699813)scale(0.14 -0.14)">
      <defs>
       <path d="M 6.640625 46.234375 
L 4.390625 59.625 
L 4.390625 71.578125 
L 14.40625 71.578125 
L 14.40625 59.625 
L 12.0625 46.234375 
z
" id="ArialMT-39"/>
      </defs>
      <use xlink:href="#ArialMT-53"/>
      <use x="55.615234" xlink:href="#ArialMT-39"/>
      <use x="74.707031" xlink:href="#ArialMT-32"/>
      <use x="96.990234" xlink:href="#ArialMT-65"/>
      <use x="163.689453" xlink:href="#ArialMT-108"/>
      <use x="185.90625" xlink:href="#ArialMT-108"/>
      <use x="208.123047" xlink:href="#ArialMT-101"/>
      <use x="263.738281" xlink:href="#ArialMT-108"/>
      <use x="285.955078" xlink:href="#ArialMT-101"/>
      <use x="341.570312" xlink:href="#ArialMT-115"/>
     </g>
    </g>
    <g id="line2d_31">
     <path d="M 70.2 118.60325 
L 98.2 118.60325 
" style="fill:none;stroke:#e6ab02;stroke-linecap:square;stroke-width:1.5;"/>
    </g>
    <g id="line2d_32"/>
    <g id="text_16">
     <!-- 3' Alleles -->
     <g transform="translate(109.4 123.50325)scale(0.14 -0.14)">
      <defs>
       <path d="M 4.203125 18.890625 
L 12.984375 20.0625 
Q 14.5 12.59375 18.140625 9.296875 
Q 21.78125 6 27 6 
Q 33.203125 6 37.46875 10.296875 
Q 41.75 14.59375 41.75 20.953125 
Q 41.75 27 37.796875 30.921875 
Q 33.84375 34.859375 27.734375 34.859375 
Q 25.25 34.859375 21.53125 33.890625 
L 22.515625 41.609375 
Q 23.390625 41.5 23.921875 41.5 
Q 29.546875 41.5 34.03125 44.421875 
Q 38.53125 47.359375 38.53125 53.46875 
Q 38.53125 58.296875 35.25 61.46875 
Q 31.984375 64.65625 26.8125 64.65625 
Q 21.6875 64.65625 18.265625 61.421875 
Q 14.84375 58.203125 13.875 51.765625 
L 5.078125 53.328125 
Q 6.6875 62.15625 12.390625 67.015625 
Q 18.109375 71.875 26.609375 71.875 
Q 32.46875 71.875 37.390625 69.359375 
Q 42.328125 66.84375 44.9375 62.5 
Q 47.5625 58.15625 47.5625 53.265625 
Q 47.5625 48.640625 45.0625 44.828125 
Q 42.578125 41.015625 37.703125 38.765625 
Q 44.046875 37.3125 47.5625 32.6875 
Q 51.078125 28.078125 51.078125 21.140625 
Q 51.078125 11.765625 44.234375 5.25 
Q 37.40625 -1.265625 26.953125 -1.265625 
Q 17.53125 -1.265625 11.296875 4.34375 
Q 5.078125 9.96875 4.203125 18.890625 
z
" id="ArialMT-51"/>
      </defs>
      <use xlink:href="#ArialMT-51"/>
      <use x="55.615234" xlink:href="#ArialMT-39"/>
      <use x="74.707031" xlink:href="#ArialMT-32"/>
      <use x="96.990234" xlink:href="#ArialMT-65"/>
      <use x="163.689453" xlink:href="#ArialMT-108"/>
      <use x="185.90625" xlink:href="#ArialMT-108"/>
      <use x="208.123047" xlink:href="#ArialMT-101"/>
      <use x="263.738281" xlink:href="#ArialMT-108"/>
      <use x="285.955078" xlink:href="#ArialMT-101"/>
      <use x="341.570312" xlink:href="#ArialMT-115"/>
     </g>
    </g>
   </g>
  </g>
 </g>
 <defs>
  <clipPath id="p958df7fe31">
   <rect height="266.112" width="357.12" x="57.6" y="41.472"/>
  </clipPath>
 </defs>
</svg>
