<?xml version="1.0" encoding="utf-8" standalone="no"?>
<!DOCTYPE svg PUBLIC "-//W3C//DTD SVG 1.1//EN"
  "http://www.w3.org/Graphics/SVG/1.1/DTD/svg11.dtd">
<!-- Created with matplotlib (https://matplotlib.org/) -->
<svg height="345.6pt" version="1.1" viewBox="0 0 460.8 345.6" width="460.8pt" xmlns="http://www.w3.org/2000/svg" xmlns:xlink="http://www.w3.org/1999/xlink">
 <metadata>
  <rdf:RDF xmlns:cc="http://creativecommons.org/ns#" xmlns:dc="http://purl.org/dc/elements/1.1/" xmlns:rdf="http://www.w3.org/1999/02/22-rdf-syntax-ns#">
   <cc:Work>
    <dc:type rdf:resource="http://purl.org/dc/dcmitype/StillImage"/>
    <dc:date>2022-02-02T12:50:44.860688</dc:date>
    <dc:format>image/svg+xml</dc:format>
    <dc:creator>
     <cc:Agent>
      <dc:title>Matplotlib v3.3.4, https://matplotlib.org/</dc:title>
     </cc:Agent>
    </dc:creator>
   </cc:Work>
  </rdf:RDF>
 </metadata>
 <defs>
  <style type="text/css">*{stroke-linecap:butt;stroke-linejoin:round;}</style>
 </defs>
 <g id="figure_1">
  <g id="patch_1">
   <path d="M 0 345.6 
L 460.8 345.6 
L 460.8 0 
L 0 0 
z
" style="fill:#ffffff;"/>
  </g>
  <g id="axes_1">
   <g id="patch_2">
    <path d="M 57.6 307.584 
L 414.72 307.584 
L 414.72 41.472 
L 57.6 41.472 
z
" style="fill:#ffffff;"/>
   </g>
   <g id="patch_3">
    <path clip-path="url(#pf7cb473fee)" d="M 57.6 295.488 
L 57.6 295.488 
L 57.6 289.658602 
L 57.6 289.658602 
z
" style="fill:#67001f;opacity:0.9;"/>
   </g>
   <g id="patch_4">
    <path clip-path="url(#pf7cb473fee)" d="M 57.6 286.743904 
L 62.390342 286.743904 
L 62.390342 280.914506 
L 57.6 280.914506 
z
" style="fill:#700320;opacity:0.9;"/>
   </g>
   <g id="patch_5">
    <path clip-path="url(#pf7cb473fee)" d="M 57.6 277.999807 
L 62.390342 277.999807 
L 62.390342 272.17041 
L 57.6 272.17041 
z
" style="fill:#700320;opacity:0.9;"/>
   </g>
   <g id="patch_6">
    <path clip-path="url(#pf7cb473fee)" d="M 57.6 269.255711 
L 62.390342 269.255711 
L 62.390342 263.426313 
L 57.6 263.426313 
z
" style="fill:#700320;opacity:0.9;"/>
   </g>
   <g id="patch_7">
    <path clip-path="url(#pf7cb473fee)" d="M 57.6 260.511614 
L 67.180684 260.511614 
L 67.180684 254.682217 
L 57.6 254.682217 
z
" style="fill:#7c0722;opacity:0.9;"/>
   </g>
   <g id="patch_8">
    <path clip-path="url(#pf7cb473fee)" d="M 57.6 251.767518 
L 67.180684 251.767518 
L 67.180684 245.93812 
L 57.6 245.93812 
z
" style="fill:#7c0722;opacity:0.9;"/>
   </g>
   <g id="patch_9">
    <path clip-path="url(#pf7cb473fee)" d="M 57.6 243.023422 
L 71.971026 243.023422 
L 71.971026 237.194024 
L 57.6 237.194024 
z
" style="fill:#840924;opacity:0.9;"/>
   </g>
   <g id="patch_10">
    <path clip-path="url(#pf7cb473fee)" d="M 57.6 234.279325 
L 86.342052 234.279325 
L 86.342052 228.449928 
L 57.6 228.449928 
z
" style="fill:#a51429;opacity:0.9;"/>
   </g>
   <g id="patch_11">
    <path clip-path="url(#pf7cb473fee)" d="M 57.6 225.535229 
L 100.713078 225.535229 
L 100.713078 219.705831 
L 57.6 219.705831 
z
" style="fill:#bb2a34;opacity:0.9;"/>
   </g>
   <g id="patch_12">
    <path clip-path="url(#pf7cb473fee)" d="M 57.6 216.791133 
L 100.713078 216.791133 
L 100.713078 210.961735 
L 57.6 210.961735 
z
" style="fill:#bb2a34;opacity:0.9;"/>
   </g>
   <g id="patch_13">
    <path clip-path="url(#pf7cb473fee)" d="M 57.6 208.047036 
L 105.503421 208.047036 
L 105.503421 202.217639 
L 57.6 202.217639 
z
" style="fill:#c13639;opacity:0.9;"/>
   </g>
   <g id="patch_14">
    <path clip-path="url(#pf7cb473fee)" d="M 57.6 199.30294 
L 110.293763 199.30294 
L 110.293763 193.473542 
L 57.6 193.473542 
z
" style="fill:#c53e3d;opacity:0.9;"/>
   </g>
   <g id="patch_15">
    <path clip-path="url(#pf7cb473fee)" d="M 57.6 190.558843 
L 110.293763 190.558843 
L 110.293763 184.729446 
L 57.6 184.729446 
z
" style="fill:#c53e3d;opacity:0.9;"/>
   </g>
   <g id="patch_16">
    <path clip-path="url(#pf7cb473fee)" d="M 57.6 181.814747 
L 124.664789 181.814747 
L 124.664789 175.985349 
L 57.6 175.985349 
z
" style="fill:#d55d4c;opacity:0.9;"/>
   </g>
   <g id="patch_17">
    <path clip-path="url(#pf7cb473fee)" d="M 57.6 173.070651 
L 124.664789 173.070651 
L 124.664789 167.241253 
L 57.6 167.241253 
z
" style="fill:#d55d4c;opacity:0.9;"/>
   </g>
   <g id="patch_18">
    <path clip-path="url(#pf7cb473fee)" d="M 57.6 164.326554 
L 129.455131 164.326554 
L 129.455131 158.497157 
L 57.6 158.497157 
z
" style="fill:#da6853;opacity:0.9;"/>
   </g>
   <g id="patch_19">
    <path clip-path="url(#pf7cb473fee)" d="M 57.6 155.582458 
L 143.826157 155.582458 
L 143.826157 149.75306 
L 57.6 149.75306 
z
" style="fill:#e58368;opacity:0.9;"/>
   </g>
   <g id="patch_20">
    <path clip-path="url(#pf7cb473fee)" d="M 57.6 146.838361 
L 148.616499 146.838361 
L 148.616499 141.008964 
L 57.6 141.008964 
z
" style="fill:#ea8e70;opacity:0.9;"/>
   </g>
   <g id="patch_21">
    <path clip-path="url(#pf7cb473fee)" d="M 57.6 138.094265 
L 153.406841 138.094265 
L 153.406841 132.264867 
L 57.6 132.264867 
z
" style="fill:#ef9979;opacity:0.9;"/>
   </g>
   <g id="patch_22">
    <path clip-path="url(#pf7cb473fee)" d="M 57.6 129.350169 
L 182.148893 129.350169 
L 182.148893 123.520771 
L 57.6 123.520771 
z
" style="fill:#fac8af;opacity:0.9;"/>
   </g>
   <g id="patch_23">
    <path clip-path="url(#pf7cb473fee)" d="M 57.6 120.606072 
L 186.939235 120.606072 
L 186.939235 114.776675 
L 57.6 114.776675 
z
" style="fill:#fbd0b9;opacity:0.9;"/>
   </g>
   <g id="patch_24">
    <path clip-path="url(#pf7cb473fee)" d="M 57.6 111.861976 
L 196.51992 111.861976 
L 196.51992 106.032578 
L 57.6 106.032578 
z
" style="fill:#fdddcb;opacity:0.9;"/>
   </g>
   <g id="patch_25">
    <path clip-path="url(#pf7cb473fee)" d="M 57.6 103.11788 
L 206.100604 103.11788 
L 206.100604 97.288482 
L 57.6 97.288482 
z
" style="fill:#fbe5d8;opacity:0.9;"/>
   </g>
   <g id="patch_26">
    <path clip-path="url(#pf7cb473fee)" d="M 57.6 94.373783 
L 206.100604 94.373783 
L 206.100604 88.544386 
L 57.6 88.544386 
z
" style="fill:#fbe5d8;opacity:0.9;"/>
   </g>
   <g id="patch_27">
    <path clip-path="url(#pf7cb473fee)" d="M 57.6 85.629687 
L 206.100604 85.629687 
L 206.100604 79.800289 
L 57.6 79.800289 
z
" style="fill:#fbe5d8;opacity:0.9;"/>
   </g>
   <g id="patch_28">
    <path clip-path="url(#pf7cb473fee)" d="M 57.6 76.88559 
L 263.584708 76.88559 
L 263.584708 71.056193 
L 57.6 71.056193 
z
" style="fill:#cce2ef;opacity:0.9;"/>
   </g>
   <g id="patch_29">
    <path clip-path="url(#pf7cb473fee)" d="M 57.6 68.141494 
L 292.326761 68.141494 
L 292.326761 62.312096 
L 57.6 62.312096 
z
" style="fill:#98c8e0;opacity:0.9;"/>
   </g>
   <g id="patch_30">
    <path clip-path="url(#pf7cb473fee)" d="M 57.6 59.397398 
L 397.714286 59.397398 
L 397.714286 53.568 
L 57.6 53.568 
z
" style="fill:#053061;opacity:0.9;"/>
   </g>
   <g id="matplotlib.axis_1">
    <g id="xtick_1">
     <g id="line2d_1">
      <defs>
       <path d="M 0 0 
L 0 3.5 
" id="m5083dc1e8c" style="stroke:#000000;stroke-width:0.8;"/>
      </defs>
      <g>
       <use style="stroke:#000000;stroke-width:0.8;" x="57.6" xlink:href="#m5083dc1e8c" y="317.584"/>
      </g>
     </g>
     <g id="text_1">
      <!-- 0 -->
      <g transform="translate(54.41875 332.182437)scale(0.1 -0.1)">
       <defs>
        <path d="M 31.78125 66.40625 
Q 24.171875 66.40625 20.328125 58.90625 
Q 16.5 51.421875 16.5 36.375 
Q 16.5 21.390625 20.328125 13.890625 
Q 24.171875 6.390625 31.78125 6.390625 
Q 39.453125 6.390625 43.28125 13.890625 
Q 47.125 21.390625 47.125 36.375 
Q 47.125 51.421875 43.28125 58.90625 
Q 39.453125 66.40625 31.78125 66.40625 
z
M 31.78125 74.21875 
Q 44.046875 74.21875 50.515625 64.515625 
Q 56.984375 54.828125 56.984375 36.375 
Q 56.984375 17.96875 50.515625 8.265625 
Q 44.046875 -1.421875 31.78125 -1.421875 
Q 19.53125 -1.421875 13.0625 8.265625 
Q 6.59375 17.96875 6.59375 36.375 
Q 6.59375 54.828125 13.0625 64.515625 
Q 19.53125 74.21875 31.78125 74.21875 
z
" id="DejaVuSans-48"/>
       </defs>
       <use xlink:href="#DejaVuSans-48"/>
      </g>
     </g>
    </g>
    <g id="xtick_2">
     <g id="line2d_2">
      <g>
       <use style="stroke:#000000;stroke-width:0.8;" x="105.503421" xlink:href="#m5083dc1e8c" y="317.584"/>
      </g>
     </g>
     <g id="text_2">
      <!-- 10 -->
      <g transform="translate(99.140921 332.182437)scale(0.1 -0.1)">
       <defs>
        <path d="M 12.40625 8.296875 
L 28.515625 8.296875 
L 28.515625 63.921875 
L 10.984375 60.40625 
L 10.984375 69.390625 
L 28.421875 72.90625 
L 38.28125 72.90625 
L 38.28125 8.296875 
L 54.390625 8.296875 
L 54.390625 0 
L 12.40625 0 
z
" id="DejaVuSans-49"/>
       </defs>
       <use xlink:href="#DejaVuSans-49"/>
       <use x="63.623047" xlink:href="#DejaVuSans-48"/>
      </g>
     </g>
    </g>
    <g id="xtick_3">
     <g id="line2d_3">
      <g>
       <use style="stroke:#000000;stroke-width:0.8;" x="153.406841" xlink:href="#m5083dc1e8c" y="317.584"/>
      </g>
     </g>
     <g id="text_3">
      <!-- 20 -->
      <g transform="translate(147.044341 332.182437)scale(0.1 -0.1)">
       <defs>
        <path d="M 19.1875 8.296875 
L 53.609375 8.296875 
L 53.609375 0 
L 7.328125 0 
L 7.328125 8.296875 
Q 12.9375 14.109375 22.625 23.890625 
Q 32.328125 33.6875 34.8125 36.53125 
Q 39.546875 41.84375 41.421875 45.53125 
Q 43.3125 49.21875 43.3125 52.78125 
Q 43.3125 58.59375 39.234375 62.25 
Q 35.15625 65.921875 28.609375 65.921875 
Q 23.96875 65.921875 18.8125 64.3125 
Q 13.671875 62.703125 7.8125 59.421875 
L 7.8125 69.390625 
Q 13.765625 71.78125 18.9375 73 
Q 24.125 74.21875 28.421875 74.21875 
Q 39.75 74.21875 46.484375 68.546875 
Q 53.21875 62.890625 53.21875 53.421875 
Q 53.21875 48.921875 51.53125 44.890625 
Q 49.859375 40.875 45.40625 35.40625 
Q 44.1875 33.984375 37.640625 27.21875 
Q 31.109375 20.453125 19.1875 8.296875 
z
" id="DejaVuSans-50"/>
       </defs>
       <use xlink:href="#DejaVuSans-50"/>
       <use x="63.623047" xlink:href="#DejaVuSans-48"/>
      </g>
     </g>
    </g>
    <g id="xtick_4">
     <g id="line2d_4">
      <g>
       <use style="stroke:#000000;stroke-width:0.8;" x="201.310262" xlink:href="#m5083dc1e8c" y="317.584"/>
      </g>
     </g>
     <g id="text_4">
      <!-- 30 -->
      <g transform="translate(194.947762 332.182437)scale(0.1 -0.1)">
       <defs>
        <path d="M 40.578125 39.3125 
Q 47.65625 37.796875 51.625 33 
Q 55.609375 28.21875 55.609375 21.1875 
Q 55.609375 10.40625 48.1875 4.484375 
Q 40.765625 -1.421875 27.09375 -1.421875 
Q 22.515625 -1.421875 17.65625 -0.515625 
Q 12.796875 0.390625 7.625 2.203125 
L 7.625 11.71875 
Q 11.71875 9.328125 16.59375 8.109375 
Q 21.484375 6.890625 26.8125 6.890625 
Q 36.078125 6.890625 40.9375 10.546875 
Q 45.796875 14.203125 45.796875 21.1875 
Q 45.796875 27.640625 41.28125 31.265625 
Q 36.765625 34.90625 28.71875 34.90625 
L 20.21875 34.90625 
L 20.21875 43.015625 
L 29.109375 43.015625 
Q 36.375 43.015625 40.234375 45.921875 
Q 44.09375 48.828125 44.09375 54.296875 
Q 44.09375 59.90625 40.109375 62.90625 
Q 36.140625 65.921875 28.71875 65.921875 
Q 24.65625 65.921875 20.015625 65.03125 
Q 15.375 64.15625 9.8125 62.3125 
L 9.8125 71.09375 
Q 15.4375 72.65625 20.34375 73.4375 
Q 25.25 74.21875 29.59375 74.21875 
Q 40.828125 74.21875 47.359375 69.109375 
Q 53.90625 64.015625 53.90625 55.328125 
Q 53.90625 49.265625 50.4375 45.09375 
Q 46.96875 40.921875 40.578125 39.3125 
z
" id="DejaVuSans-51"/>
       </defs>
       <use xlink:href="#DejaVuSans-51"/>
       <use x="63.623047" xlink:href="#DejaVuSans-48"/>
      </g>
     </g>
    </g>
    <g id="xtick_5">
     <g id="line2d_5">
      <g>
       <use style="stroke:#000000;stroke-width:0.8;" x="249.213682" xlink:href="#m5083dc1e8c" y="317.584"/>
      </g>
     </g>
     <g id="text_5">
      <!-- 40 -->
      <g transform="translate(242.851182 332.182437)scale(0.1 -0.1)">
       <defs>
        <path d="M 37.796875 64.3125 
L 12.890625 25.390625 
L 37.796875 25.390625 
z
M 35.203125 72.90625 
L 47.609375 72.90625 
L 47.609375 25.390625 
L 58.015625 25.390625 
L 58.015625 17.1875 
L 47.609375 17.1875 
L 47.609375 0 
L 37.796875 0 
L 37.796875 17.1875 
L 4.890625 17.1875 
L 4.890625 26.703125 
z
" id="DejaVuSans-52"/>
       </defs>
       <use xlink:href="#DejaVuSans-52"/>
       <use x="63.623047" xlink:href="#DejaVuSans-48"/>
      </g>
     </g>
    </g>
    <g id="xtick_6">
     <g id="line2d_6">
      <g>
       <use style="stroke:#000000;stroke-width:0.8;" x="297.117103" xlink:href="#m5083dc1e8c" y="317.584"/>
      </g>
     </g>
     <g id="text_6">
      <!-- 50 -->
      <g transform="translate(290.754603 332.182437)scale(0.1 -0.1)">
       <defs>
        <path d="M 10.796875 72.90625 
L 49.515625 72.90625 
L 49.515625 64.59375 
L 19.828125 64.59375 
L 19.828125 46.734375 
Q 21.96875 47.46875 24.109375 47.828125 
Q 26.265625 48.1875 28.421875 48.1875 
Q 40.625 48.1875 47.75 41.5 
Q 54.890625 34.8125 54.890625 23.390625 
Q 54.890625 11.625 47.5625 5.09375 
Q 40.234375 -1.421875 26.90625 -1.421875 
Q 22.3125 -1.421875 17.546875 -0.640625 
Q 12.796875 0.140625 7.71875 1.703125 
L 7.71875 11.625 
Q 12.109375 9.234375 16.796875 8.0625 
Q 21.484375 6.890625 26.703125 6.890625 
Q 35.15625 6.890625 40.078125 11.328125 
Q 45.015625 15.765625 45.015625 23.390625 
Q 45.015625 31 40.078125 35.4375 
Q 35.15625 39.890625 26.703125 39.890625 
Q 22.75 39.890625 18.8125 39.015625 
Q 14.890625 38.140625 10.796875 36.28125 
z
" id="DejaVuSans-53"/>
       </defs>
       <use xlink:href="#DejaVuSans-53"/>
       <use x="63.623047" xlink:href="#DejaVuSans-48"/>
      </g>
     </g>
    </g>
    <g id="xtick_7">
     <g id="line2d_7">
      <g>
       <use style="stroke:#000000;stroke-width:0.8;" x="345.020523" xlink:href="#m5083dc1e8c" y="317.584"/>
      </g>
     </g>
     <g id="text_7">
      <!-- 60 -->
      <g transform="translate(338.658023 332.182437)scale(0.1 -0.1)">
       <defs>
        <path d="M 33.015625 40.375 
Q 26.375 40.375 22.484375 35.828125 
Q 18.609375 31.296875 18.609375 23.390625 
Q 18.609375 15.53125 22.484375 10.953125 
Q 26.375 6.390625 33.015625 6.390625 
Q 39.65625 6.390625 43.53125 10.953125 
Q 47.40625 15.53125 47.40625 23.390625 
Q 47.40625 31.296875 43.53125 35.828125 
Q 39.65625 40.375 33.015625 40.375 
z
M 52.59375 71.296875 
L 52.59375 62.3125 
Q 48.875 64.0625 45.09375 64.984375 
Q 41.3125 65.921875 37.59375 65.921875 
Q 27.828125 65.921875 22.671875 59.328125 
Q 17.53125 52.734375 16.796875 39.40625 
Q 19.671875 43.65625 24.015625 45.921875 
Q 28.375 48.1875 33.59375 48.1875 
Q 44.578125 48.1875 50.953125 41.515625 
Q 57.328125 34.859375 57.328125 23.390625 
Q 57.328125 12.15625 50.6875 5.359375 
Q 44.046875 -1.421875 33.015625 -1.421875 
Q 20.359375 -1.421875 13.671875 8.265625 
Q 6.984375 17.96875 6.984375 36.375 
Q 6.984375 53.65625 15.1875 63.9375 
Q 23.390625 74.21875 37.203125 74.21875 
Q 40.921875 74.21875 44.703125 73.484375 
Q 48.484375 72.75 52.59375 71.296875 
z
" id="DejaVuSans-54"/>
       </defs>
       <use xlink:href="#DejaVuSans-54"/>
       <use x="63.623047" xlink:href="#DejaVuSans-48"/>
      </g>
     </g>
    </g>
    <g id="xtick_8">
     <g id="line2d_8">
      <g>
       <use style="stroke:#000000;stroke-width:0.8;" x="392.923944" xlink:href="#m5083dc1e8c" y="317.584"/>
      </g>
     </g>
     <g id="text_8">
      <!-- 70 -->
      <g transform="translate(386.561444 332.182437)scale(0.1 -0.1)">
       <defs>
        <path d="M 8.203125 72.90625 
L 55.078125 72.90625 
L 55.078125 68.703125 
L 28.609375 0 
L 18.3125 0 
L 43.21875 64.59375 
L 8.203125 64.59375 
z
" id="DejaVuSans-55"/>
       </defs>
       <use xlink:href="#DejaVuSans-55"/>
       <use x="63.623047" xlink:href="#DejaVuSans-48"/>
      </g>
     </g>
    </g>
    <g id="text_9">
     <!-- Distance to USA300 enriched mutations -->
     <g transform="translate(75.78625 350.419625)scale(0.16 -0.16)">
      <defs>
       <path d="M 19.671875 64.796875 
L 19.671875 8.109375 
L 31.59375 8.109375 
Q 46.6875 8.109375 53.6875 14.9375 
Q 60.6875 21.78125 60.6875 36.53125 
Q 60.6875 51.171875 53.6875 57.984375 
Q 46.6875 64.796875 31.59375 64.796875 
z
M 9.8125 72.90625 
L 30.078125 72.90625 
Q 51.265625 72.90625 61.171875 64.09375 
Q 71.09375 55.28125 71.09375 36.53125 
Q 71.09375 17.671875 61.125 8.828125 
Q 51.171875 0 30.078125 0 
L 9.8125 0 
z
" id="DejaVuSans-68"/>
       <path d="M 9.421875 54.6875 
L 18.40625 54.6875 
L 18.40625 0 
L 9.421875 0 
z
M 9.421875 75.984375 
L 18.40625 75.984375 
L 18.40625 64.59375 
L 9.421875 64.59375 
z
" id="DejaVuSans-105"/>
       <path d="M 44.28125 53.078125 
L 44.28125 44.578125 
Q 40.484375 46.53125 36.375 47.5 
Q 32.28125 48.484375 27.875 48.484375 
Q 21.1875 48.484375 17.84375 46.4375 
Q 14.5 44.390625 14.5 40.28125 
Q 14.5 37.15625 16.890625 35.375 
Q 19.28125 33.59375 26.515625 31.984375 
L 29.59375 31.296875 
Q 39.15625 29.25 43.1875 25.515625 
Q 47.21875 21.78125 47.21875 15.09375 
Q 47.21875 7.46875 41.1875 3.015625 
Q 35.15625 -1.421875 24.609375 -1.421875 
Q 20.21875 -1.421875 15.453125 -0.5625 
Q 10.6875 0.296875 5.421875 2 
L 5.421875 11.28125 
Q 10.40625 8.6875 15.234375 7.390625 
Q 20.0625 6.109375 24.8125 6.109375 
Q 31.15625 6.109375 34.5625 8.28125 
Q 37.984375 10.453125 37.984375 14.40625 
Q 37.984375 18.0625 35.515625 20.015625 
Q 33.0625 21.96875 24.703125 23.78125 
L 21.578125 24.515625 
Q 13.234375 26.265625 9.515625 29.90625 
Q 5.8125 33.546875 5.8125 39.890625 
Q 5.8125 47.609375 11.28125 51.796875 
Q 16.75 56 26.8125 56 
Q 31.78125 56 36.171875 55.265625 
Q 40.578125 54.546875 44.28125 53.078125 
z
" id="DejaVuSans-115"/>
       <path d="M 18.3125 70.21875 
L 18.3125 54.6875 
L 36.8125 54.6875 
L 36.8125 47.703125 
L 18.3125 47.703125 
L 18.3125 18.015625 
Q 18.3125 11.328125 20.140625 9.421875 
Q 21.96875 7.515625 27.59375 7.515625 
L 36.8125 7.515625 
L 36.8125 0 
L 27.59375 0 
Q 17.1875 0 13.234375 3.875 
Q 9.28125 7.765625 9.28125 18.015625 
L 9.28125 47.703125 
L 2.6875 47.703125 
L 2.6875 54.6875 
L 9.28125 54.6875 
L 9.28125 70.21875 
z
" id="DejaVuSans-116"/>
       <path d="M 34.28125 27.484375 
Q 23.390625 27.484375 19.1875 25 
Q 14.984375 22.515625 14.984375 16.5 
Q 14.984375 11.71875 18.140625 8.90625 
Q 21.296875 6.109375 26.703125 6.109375 
Q 34.1875 6.109375 38.703125 11.40625 
Q 43.21875 16.703125 43.21875 25.484375 
L 43.21875 27.484375 
z
M 52.203125 31.203125 
L 52.203125 0 
L 43.21875 0 
L 43.21875 8.296875 
Q 40.140625 3.328125 35.546875 0.953125 
Q 30.953125 -1.421875 24.3125 -1.421875 
Q 15.921875 -1.421875 10.953125 3.296875 
Q 6 8.015625 6 15.921875 
Q 6 25.140625 12.171875 29.828125 
Q 18.359375 34.515625 30.609375 34.515625 
L 43.21875 34.515625 
L 43.21875 35.40625 
Q 43.21875 41.609375 39.140625 45 
Q 35.0625 48.390625 27.6875 48.390625 
Q 23 48.390625 18.546875 47.265625 
Q 14.109375 46.140625 10.015625 43.890625 
L 10.015625 52.203125 
Q 14.9375 54.109375 19.578125 55.046875 
Q 24.21875 56 28.609375 56 
Q 40.484375 56 46.34375 49.84375 
Q 52.203125 43.703125 52.203125 31.203125 
z
" id="DejaVuSans-97"/>
       <path d="M 54.890625 33.015625 
L 54.890625 0 
L 45.90625 0 
L 45.90625 32.71875 
Q 45.90625 40.484375 42.875 44.328125 
Q 39.84375 48.1875 33.796875 48.1875 
Q 26.515625 48.1875 22.3125 43.546875 
Q 18.109375 38.921875 18.109375 30.90625 
L 18.109375 0 
L 9.078125 0 
L 9.078125 54.6875 
L 18.109375 54.6875 
L 18.109375 46.1875 
Q 21.34375 51.125 25.703125 53.5625 
Q 30.078125 56 35.796875 56 
Q 45.21875 56 50.046875 50.171875 
Q 54.890625 44.34375 54.890625 33.015625 
z
" id="DejaVuSans-110"/>
       <path d="M 48.78125 52.59375 
L 48.78125 44.1875 
Q 44.96875 46.296875 41.140625 47.34375 
Q 37.3125 48.390625 33.40625 48.390625 
Q 24.65625 48.390625 19.8125 42.84375 
Q 14.984375 37.3125 14.984375 27.296875 
Q 14.984375 17.28125 19.8125 11.734375 
Q 24.65625 6.203125 33.40625 6.203125 
Q 37.3125 6.203125 41.140625 7.25 
Q 44.96875 8.296875 48.78125 10.40625 
L 48.78125 2.09375 
Q 45.015625 0.34375 40.984375 -0.53125 
Q 36.96875 -1.421875 32.421875 -1.421875 
Q 20.0625 -1.421875 12.78125 6.34375 
Q 5.515625 14.109375 5.515625 27.296875 
Q 5.515625 40.671875 12.859375 48.328125 
Q 20.21875 56 33.015625 56 
Q 37.15625 56 41.109375 55.140625 
Q 45.0625 54.296875 48.78125 52.59375 
z
" id="DejaVuSans-99"/>
       <path d="M 56.203125 29.59375 
L 56.203125 25.203125 
L 14.890625 25.203125 
Q 15.484375 15.921875 20.484375 11.0625 
Q 25.484375 6.203125 34.421875 6.203125 
Q 39.59375 6.203125 44.453125 7.46875 
Q 49.3125 8.734375 54.109375 11.28125 
L 54.109375 2.78125 
Q 49.265625 0.734375 44.1875 -0.34375 
Q 39.109375 -1.421875 33.890625 -1.421875 
Q 20.796875 -1.421875 13.15625 6.1875 
Q 5.515625 13.8125 5.515625 26.8125 
Q 5.515625 40.234375 12.765625 48.109375 
Q 20.015625 56 32.328125 56 
Q 43.359375 56 49.78125 48.890625 
Q 56.203125 41.796875 56.203125 29.59375 
z
M 47.21875 32.234375 
Q 47.125 39.59375 43.09375 43.984375 
Q 39.0625 48.390625 32.421875 48.390625 
Q 24.90625 48.390625 20.390625 44.140625 
Q 15.875 39.890625 15.1875 32.171875 
z
" id="DejaVuSans-101"/>
       <path id="DejaVuSans-32"/>
       <path d="M 30.609375 48.390625 
Q 23.390625 48.390625 19.1875 42.75 
Q 14.984375 37.109375 14.984375 27.296875 
Q 14.984375 17.484375 19.15625 11.84375 
Q 23.34375 6.203125 30.609375 6.203125 
Q 37.796875 6.203125 41.984375 11.859375 
Q 46.1875 17.53125 46.1875 27.296875 
Q 46.1875 37.015625 41.984375 42.703125 
Q 37.796875 48.390625 30.609375 48.390625 
z
M 30.609375 56 
Q 42.328125 56 49.015625 48.375 
Q 55.71875 40.765625 55.71875 27.296875 
Q 55.71875 13.875 49.015625 6.21875 
Q 42.328125 -1.421875 30.609375 -1.421875 
Q 18.84375 -1.421875 12.171875 6.21875 
Q 5.515625 13.875 5.515625 27.296875 
Q 5.515625 40.765625 12.171875 48.375 
Q 18.84375 56 30.609375 56 
z
" id="DejaVuSans-111"/>
       <path d="M 8.6875 72.90625 
L 18.609375 72.90625 
L 18.609375 28.609375 
Q 18.609375 16.890625 22.84375 11.734375 
Q 27.09375 6.59375 36.625 6.59375 
Q 46.09375 6.59375 50.34375 11.734375 
Q 54.59375 16.890625 54.59375 28.609375 
L 54.59375 72.90625 
L 64.5 72.90625 
L 64.5 27.390625 
Q 64.5 13.140625 57.4375 5.859375 
Q 50.390625 -1.421875 36.625 -1.421875 
Q 22.796875 -1.421875 15.734375 5.859375 
Q 8.6875 13.140625 8.6875 27.390625 
z
" id="DejaVuSans-85"/>
       <path d="M 53.515625 70.515625 
L 53.515625 60.890625 
Q 47.90625 63.578125 42.921875 64.890625 
Q 37.9375 66.21875 33.296875 66.21875 
Q 25.25 66.21875 20.875 63.09375 
Q 16.5 59.96875 16.5 54.203125 
Q 16.5 49.359375 19.40625 46.890625 
Q 22.3125 44.4375 30.421875 42.921875 
L 36.375 41.703125 
Q 47.40625 39.59375 52.65625 34.296875 
Q 57.90625 29 57.90625 20.125 
Q 57.90625 9.515625 50.796875 4.046875 
Q 43.703125 -1.421875 29.984375 -1.421875 
Q 24.8125 -1.421875 18.96875 -0.25 
Q 13.140625 0.921875 6.890625 3.21875 
L 6.890625 13.375 
Q 12.890625 10.015625 18.65625 8.296875 
Q 24.421875 6.59375 29.984375 6.59375 
Q 38.421875 6.59375 43.015625 9.90625 
Q 47.609375 13.234375 47.609375 19.390625 
Q 47.609375 24.75 44.3125 27.78125 
Q 41.015625 30.8125 33.5 32.328125 
L 27.484375 33.5 
Q 16.453125 35.6875 11.515625 40.375 
Q 6.59375 45.0625 6.59375 53.421875 
Q 6.59375 63.09375 13.40625 68.65625 
Q 20.21875 74.21875 32.171875 74.21875 
Q 37.3125 74.21875 42.625 73.28125 
Q 47.953125 72.359375 53.515625 70.515625 
z
" id="DejaVuSans-83"/>
       <path d="M 34.1875 63.1875 
L 20.796875 26.90625 
L 47.609375 26.90625 
z
M 28.609375 72.90625 
L 39.796875 72.90625 
L 67.578125 0 
L 57.328125 0 
L 50.6875 18.703125 
L 17.828125 18.703125 
L 11.1875 0 
L 0.78125 0 
z
" id="DejaVuSans-65"/>
       <path d="M 41.109375 46.296875 
Q 39.59375 47.171875 37.8125 47.578125 
Q 36.03125 48 33.890625 48 
Q 26.265625 48 22.1875 43.046875 
Q 18.109375 38.09375 18.109375 28.8125 
L 18.109375 0 
L 9.078125 0 
L 9.078125 54.6875 
L 18.109375 54.6875 
L 18.109375 46.1875 
Q 20.953125 51.171875 25.484375 53.578125 
Q 30.03125 56 36.53125 56 
Q 37.453125 56 38.578125 55.875 
Q 39.703125 55.765625 41.0625 55.515625 
z
" id="DejaVuSans-114"/>
       <path d="M 54.890625 33.015625 
L 54.890625 0 
L 45.90625 0 
L 45.90625 32.71875 
Q 45.90625 40.484375 42.875 44.328125 
Q 39.84375 48.1875 33.796875 48.1875 
Q 26.515625 48.1875 22.3125 43.546875 
Q 18.109375 38.921875 18.109375 30.90625 
L 18.109375 0 
L 9.078125 0 
L 9.078125 75.984375 
L 18.109375 75.984375 
L 18.109375 46.1875 
Q 21.34375 51.125 25.703125 53.5625 
Q 30.078125 56 35.796875 56 
Q 45.21875 56 50.046875 50.171875 
Q 54.890625 44.34375 54.890625 33.015625 
z
" id="DejaVuSans-104"/>
       <path d="M 45.40625 46.390625 
L 45.40625 75.984375 
L 54.390625 75.984375 
L 54.390625 0 
L 45.40625 0 
L 45.40625 8.203125 
Q 42.578125 3.328125 38.25 0.953125 
Q 33.9375 -1.421875 27.875 -1.421875 
Q 17.96875 -1.421875 11.734375 6.484375 
Q 5.515625 14.40625 5.515625 27.296875 
Q 5.515625 40.1875 11.734375 48.09375 
Q 17.96875 56 27.875 56 
Q 33.9375 56 38.25 53.625 
Q 42.578125 51.265625 45.40625 46.390625 
z
M 14.796875 27.296875 
Q 14.796875 17.390625 18.875 11.75 
Q 22.953125 6.109375 30.078125 6.109375 
Q 37.203125 6.109375 41.296875 11.75 
Q 45.40625 17.390625 45.40625 27.296875 
Q 45.40625 37.203125 41.296875 42.84375 
Q 37.203125 48.484375 30.078125 48.484375 
Q 22.953125 48.484375 18.875 42.84375 
Q 14.796875 37.203125 14.796875 27.296875 
z
" id="DejaVuSans-100"/>
       <path d="M 52 44.1875 
Q 55.375 50.25 60.0625 53.125 
Q 64.75 56 71.09375 56 
Q 79.640625 56 84.28125 50.015625 
Q 88.921875 44.046875 88.921875 33.015625 
L 88.921875 0 
L 79.890625 0 
L 79.890625 32.71875 
Q 79.890625 40.578125 77.09375 44.375 
Q 74.3125 48.1875 68.609375 48.1875 
Q 61.625 48.1875 57.5625 43.546875 
Q 53.515625 38.921875 53.515625 30.90625 
L 53.515625 0 
L 44.484375 0 
L 44.484375 32.71875 
Q 44.484375 40.625 41.703125 44.40625 
Q 38.921875 48.1875 33.109375 48.1875 
Q 26.21875 48.1875 22.15625 43.53125 
Q 18.109375 38.875 18.109375 30.90625 
L 18.109375 0 
L 9.078125 0 
L 9.078125 54.6875 
L 18.109375 54.6875 
L 18.109375 46.1875 
Q 21.1875 51.21875 25.484375 53.609375 
Q 29.78125 56 35.6875 56 
Q 41.65625 56 45.828125 52.96875 
Q 50 49.953125 52 44.1875 
z
" id="DejaVuSans-109"/>
       <path d="M 8.5 21.578125 
L 8.5 54.6875 
L 17.484375 54.6875 
L 17.484375 21.921875 
Q 17.484375 14.15625 20.5 10.265625 
Q 23.53125 6.390625 29.59375 6.390625 
Q 36.859375 6.390625 41.078125 11.03125 
Q 45.3125 15.671875 45.3125 23.6875 
L 45.3125 54.6875 
L 54.296875 54.6875 
L 54.296875 0 
L 45.3125 0 
L 45.3125 8.40625 
Q 42.046875 3.421875 37.71875 1 
Q 33.40625 -1.421875 27.6875 -1.421875 
Q 18.265625 -1.421875 13.375 4.4375 
Q 8.5 10.296875 8.5 21.578125 
z
M 31.109375 56 
z
" id="DejaVuSans-117"/>
      </defs>
      <use xlink:href="#DejaVuSans-68"/>
      <use x="77.001953" xlink:href="#DejaVuSans-105"/>
      <use x="104.785156" xlink:href="#DejaVuSans-115"/>
      <use x="156.884766" xlink:href="#DejaVuSans-116"/>
      <use x="196.09375" xlink:href="#DejaVuSans-97"/>
      <use x="257.373047" xlink:href="#DejaVuSans-110"/>
      <use x="320.751953" xlink:href="#DejaVuSans-99"/>
      <use x="375.732422" xlink:href="#DejaVuSans-101"/>
      <use x="437.255859" xlink:href="#DejaVuSans-32"/>
      <use x="469.042969" xlink:href="#DejaVuSans-116"/>
      <use x="508.251953" xlink:href="#DejaVuSans-111"/>
      <use x="569.433594" xlink:href="#DejaVuSans-32"/>
      <use x="601.220703" xlink:href="#DejaVuSans-85"/>
      <use x="674.414062" xlink:href="#DejaVuSans-83"/>
      <use x="739.765625" xlink:href="#DejaVuSans-65"/>
      <use x="808.173828" xlink:href="#DejaVuSans-51"/>
      <use x="871.796875" xlink:href="#DejaVuSans-48"/>
      <use x="935.419922" xlink:href="#DejaVuSans-48"/>
      <use x="999.042969" xlink:href="#DejaVuSans-32"/>
      <use x="1030.830078" xlink:href="#DejaVuSans-101"/>
      <use x="1092.353516" xlink:href="#DejaVuSans-110"/>
      <use x="1155.732422" xlink:href="#DejaVuSans-114"/>
      <use x="1196.845703" xlink:href="#DejaVuSans-105"/>
      <use x="1224.628906" xlink:href="#DejaVuSans-99"/>
      <use x="1279.609375" xlink:href="#DejaVuSans-104"/>
      <use x="1342.988281" xlink:href="#DejaVuSans-101"/>
      <use x="1404.511719" xlink:href="#DejaVuSans-100"/>
      <use x="1467.988281" xlink:href="#DejaVuSans-32"/>
      <use x="1499.775391" xlink:href="#DejaVuSans-109"/>
      <use x="1597.1875" xlink:href="#DejaVuSans-117"/>
      <use x="1660.566406" xlink:href="#DejaVuSans-116"/>
      <use x="1699.775391" xlink:href="#DejaVuSans-97"/>
      <use x="1761.054688" xlink:href="#DejaVuSans-116"/>
      <use x="1800.263672" xlink:href="#DejaVuSans-105"/>
      <use x="1828.046875" xlink:href="#DejaVuSans-111"/>
      <use x="1889.228516" xlink:href="#DejaVuSans-110"/>
      <use x="1952.607422" xlink:href="#DejaVuSans-115"/>
     </g>
    </g>
   </g>
   <g id="matplotlib.axis_2">
    <g id="text_10">
     <!-- Gene products -->
     <g transform="translate(40.2725 233.118)rotate(-90)scale(0.16 -0.16)">
      <defs>
       <path d="M 59.515625 10.40625 
L 59.515625 29.984375 
L 43.40625 29.984375 
L 43.40625 38.09375 
L 69.28125 38.09375 
L 69.28125 6.78125 
Q 63.578125 2.734375 56.6875 0.65625 
Q 49.8125 -1.421875 42 -1.421875 
Q 24.90625 -1.421875 15.25 8.5625 
Q 5.609375 18.5625 5.609375 36.375 
Q 5.609375 54.25 15.25 64.234375 
Q 24.90625 74.21875 42 74.21875 
Q 49.125 74.21875 55.546875 72.453125 
Q 61.96875 70.703125 67.390625 67.28125 
L 67.390625 56.78125 
Q 61.921875 61.421875 55.765625 63.765625 
Q 49.609375 66.109375 42.828125 66.109375 
Q 29.4375 66.109375 22.71875 58.640625 
Q 16.015625 51.171875 16.015625 36.375 
Q 16.015625 21.625 22.71875 14.15625 
Q 29.4375 6.6875 42.828125 6.6875 
Q 48.046875 6.6875 52.140625 7.59375 
Q 56.25 8.5 59.515625 10.40625 
z
" id="DejaVuSans-71"/>
       <path d="M 18.109375 8.203125 
L 18.109375 -20.796875 
L 9.078125 -20.796875 
L 9.078125 54.6875 
L 18.109375 54.6875 
L 18.109375 46.390625 
Q 20.953125 51.265625 25.265625 53.625 
Q 29.59375 56 35.59375 56 
Q 45.5625 56 51.78125 48.09375 
Q 58.015625 40.1875 58.015625 27.296875 
Q 58.015625 14.40625 51.78125 6.484375 
Q 45.5625 -1.421875 35.59375 -1.421875 
Q 29.59375 -1.421875 25.265625 0.953125 
Q 20.953125 3.328125 18.109375 8.203125 
z
M 48.6875 27.296875 
Q 48.6875 37.203125 44.609375 42.84375 
Q 40.53125 48.484375 33.40625 48.484375 
Q 26.265625 48.484375 22.1875 42.84375 
Q 18.109375 37.203125 18.109375 27.296875 
Q 18.109375 17.390625 22.1875 11.75 
Q 26.265625 6.109375 33.40625 6.109375 
Q 40.53125 6.109375 44.609375 11.75 
Q 48.6875 17.390625 48.6875 27.296875 
z
" id="DejaVuSans-112"/>
      </defs>
      <use xlink:href="#DejaVuSans-71"/>
      <use x="77.490234" xlink:href="#DejaVuSans-101"/>
      <use x="139.013672" xlink:href="#DejaVuSans-110"/>
      <use x="202.392578" xlink:href="#DejaVuSans-101"/>
      <use x="263.916016" xlink:href="#DejaVuSans-32"/>
      <use x="295.703125" xlink:href="#DejaVuSans-112"/>
      <use x="359.179688" xlink:href="#DejaVuSans-114"/>
      <use x="398.042969" xlink:href="#DejaVuSans-111"/>
      <use x="459.224609" xlink:href="#DejaVuSans-100"/>
      <use x="522.701172" xlink:href="#DejaVuSans-117"/>
      <use x="586.080078" xlink:href="#DejaVuSans-99"/>
      <use x="641.060547" xlink:href="#DejaVuSans-116"/>
      <use x="680.269531" xlink:href="#DejaVuSans-115"/>
     </g>
    </g>
   </g>
   <g id="patch_31">
    <path d="M 47.6 307.584 
L 47.6 41.472 
" style="fill:none;stroke:#000000;stroke-linecap:square;stroke-linejoin:miter;stroke-width:0.8;"/>
   </g>
   <g id="patch_32">
    <path d="M 57.6 317.584 
L 414.72 317.584 
" style="fill:none;stroke:#000000;stroke-linecap:square;stroke-linejoin:miter;stroke-width:0.8;"/>
   </g>
   <g id="text_11">
    <!-- Cap5E (0) -->
    <g transform="translate(67.180684 295.332676)scale(0.1 -0.1)">
     <defs>
      <path d="M 64.40625 67.28125 
L 64.40625 56.890625 
Q 59.421875 61.53125 53.78125 63.8125 
Q 48.140625 66.109375 41.796875 66.109375 
Q 29.296875 66.109375 22.65625 58.46875 
Q 16.015625 50.828125 16.015625 36.375 
Q 16.015625 21.96875 22.65625 14.328125 
Q 29.296875 6.6875 41.796875 6.6875 
Q 48.140625 6.6875 53.78125 8.984375 
Q 59.421875 11.28125 64.40625 15.921875 
L 64.40625 5.609375 
Q 59.234375 2.09375 53.4375 0.328125 
Q 47.65625 -1.421875 41.21875 -1.421875 
Q 24.65625 -1.421875 15.125 8.703125 
Q 5.609375 18.84375 5.609375 36.375 
Q 5.609375 53.953125 15.125 64.078125 
Q 24.65625 74.21875 41.21875 74.21875 
Q 47.75 74.21875 53.53125 72.484375 
Q 59.328125 70.75 64.40625 67.28125 
z
" id="DejaVuSans-67"/>
      <path d="M 9.8125 72.90625 
L 55.90625 72.90625 
L 55.90625 64.59375 
L 19.671875 64.59375 
L 19.671875 43.015625 
L 54.390625 43.015625 
L 54.390625 34.71875 
L 19.671875 34.71875 
L 19.671875 8.296875 
L 56.78125 8.296875 
L 56.78125 0 
L 9.8125 0 
z
" id="DejaVuSans-69"/>
      <path d="M 31 75.875 
Q 24.46875 64.65625 21.28125 53.65625 
Q 18.109375 42.671875 18.109375 31.390625 
Q 18.109375 20.125 21.3125 9.0625 
Q 24.515625 -2 31 -13.1875 
L 23.1875 -13.1875 
Q 15.875 -1.703125 12.234375 9.375 
Q 8.59375 20.453125 8.59375 31.390625 
Q 8.59375 42.28125 12.203125 53.3125 
Q 15.828125 64.359375 23.1875 75.875 
z
" id="DejaVuSans-40"/>
      <path d="M 8.015625 75.875 
L 15.828125 75.875 
Q 23.140625 64.359375 26.78125 53.3125 
Q 30.421875 42.28125 30.421875 31.390625 
Q 30.421875 20.453125 26.78125 9.375 
Q 23.140625 -1.703125 15.828125 -13.1875 
L 8.015625 -13.1875 
Q 14.5 -2 17.703125 9.0625 
Q 20.90625 20.125 20.90625 31.390625 
Q 20.90625 42.671875 17.703125 53.65625 
Q 14.5 64.65625 8.015625 75.875 
z
" id="DejaVuSans-41"/>
     </defs>
     <use xlink:href="#DejaVuSans-67"/>
     <use x="69.824219" xlink:href="#DejaVuSans-97"/>
     <use x="131.103516" xlink:href="#DejaVuSans-112"/>
     <use x="194.580078" xlink:href="#DejaVuSans-53"/>
     <use x="258.203125" xlink:href="#DejaVuSans-69"/>
     <use x="321.386719" xlink:href="#DejaVuSans-32"/>
     <use x="353.173828" xlink:href="#DejaVuSans-40"/>
     <use x="392.1875" xlink:href="#DejaVuSans-48"/>
     <use x="455.810547" xlink:href="#DejaVuSans-41"/>
    </g>
   </g>
   <g id="text_12">
    <!-- PBP2 (1) -->
    <g transform="translate(67.180684 279.593303)scale(0.1 -0.1)">
     <defs>
      <path d="M 19.671875 64.796875 
L 19.671875 37.40625 
L 32.078125 37.40625 
Q 38.96875 37.40625 42.71875 40.96875 
Q 46.484375 44.53125 46.484375 51.125 
Q 46.484375 57.671875 42.71875 61.234375 
Q 38.96875 64.796875 32.078125 64.796875 
z
M 9.8125 72.90625 
L 32.078125 72.90625 
Q 44.34375 72.90625 50.609375 67.359375 
Q 56.890625 61.8125 56.890625 51.125 
Q 56.890625 40.328125 50.609375 34.8125 
Q 44.34375 29.296875 32.078125 29.296875 
L 19.671875 29.296875 
L 19.671875 0 
L 9.8125 0 
z
" id="DejaVuSans-80"/>
      <path d="M 19.671875 34.8125 
L 19.671875 8.109375 
L 35.5 8.109375 
Q 43.453125 8.109375 47.28125 11.40625 
Q 51.125 14.703125 51.125 21.484375 
Q 51.125 28.328125 47.28125 31.5625 
Q 43.453125 34.8125 35.5 34.8125 
z
M 19.671875 64.796875 
L 19.671875 42.828125 
L 34.28125 42.828125 
Q 41.5 42.828125 45.03125 45.53125 
Q 48.578125 48.25 48.578125 53.8125 
Q 48.578125 59.328125 45.03125 62.0625 
Q 41.5 64.796875 34.28125 64.796875 
z
M 9.8125 72.90625 
L 35.015625 72.90625 
Q 46.296875 72.90625 52.390625 68.21875 
Q 58.5 63.53125 58.5 54.890625 
Q 58.5 48.1875 55.375 44.234375 
Q 52.25 40.28125 46.1875 39.3125 
Q 53.46875 37.75 57.5 32.78125 
Q 61.53125 27.828125 61.53125 20.40625 
Q 61.53125 10.640625 54.890625 5.3125 
Q 48.25 0 35.984375 0 
L 9.8125 0 
z
" id="DejaVuSans-66"/>
     </defs>
     <use xlink:href="#DejaVuSans-80"/>
     <use x="60.302734" xlink:href="#DejaVuSans-66"/>
     <use x="128.90625" xlink:href="#DejaVuSans-80"/>
     <use x="189.208984" xlink:href="#DejaVuSans-50"/>
     <use x="252.832031" xlink:href="#DejaVuSans-32"/>
     <use x="284.619141" xlink:href="#DejaVuSans-40"/>
     <use x="323.632812" xlink:href="#DejaVuSans-49"/>
     <use x="387.255859" xlink:href="#DejaVuSans-41"/>
    </g>
   </g>
   <g id="text_13">
    <!-- Phd/YefM family antitoxin (1) -->
    <g transform="translate(67.180684 269.100387)scale(0.1 -0.1)">
     <defs>
      <path d="M 25.390625 72.90625 
L 33.6875 72.90625 
L 8.296875 -9.28125 
L 0 -9.28125 
z
" id="DejaVuSans-47"/>
      <path d="M -0.203125 72.90625 
L 10.40625 72.90625 
L 30.609375 42.921875 
L 50.6875 72.90625 
L 61.28125 72.90625 
L 35.5 34.71875 
L 35.5 0 
L 25.59375 0 
L 25.59375 34.71875 
z
" id="DejaVuSans-89"/>
      <path d="M 37.109375 75.984375 
L 37.109375 68.5 
L 28.515625 68.5 
Q 23.6875 68.5 21.796875 66.546875 
Q 19.921875 64.59375 19.921875 59.515625 
L 19.921875 54.6875 
L 34.71875 54.6875 
L 34.71875 47.703125 
L 19.921875 47.703125 
L 19.921875 0 
L 10.890625 0 
L 10.890625 47.703125 
L 2.296875 47.703125 
L 2.296875 54.6875 
L 10.890625 54.6875 
L 10.890625 58.5 
Q 10.890625 67.625 15.140625 71.796875 
Q 19.390625 75.984375 28.609375 75.984375 
z
" id="DejaVuSans-102"/>
      <path d="M 9.8125 72.90625 
L 24.515625 72.90625 
L 43.109375 23.296875 
L 61.8125 72.90625 
L 76.515625 72.90625 
L 76.515625 0 
L 66.890625 0 
L 66.890625 64.015625 
L 48.09375 14.015625 
L 38.1875 14.015625 
L 19.390625 64.015625 
L 19.390625 0 
L 9.8125 0 
z
" id="DejaVuSans-77"/>
      <path d="M 9.421875 75.984375 
L 18.40625 75.984375 
L 18.40625 0 
L 9.421875 0 
z
" id="DejaVuSans-108"/>
      <path d="M 32.171875 -5.078125 
Q 28.375 -14.84375 24.75 -17.8125 
Q 21.140625 -20.796875 15.09375 -20.796875 
L 7.90625 -20.796875 
L 7.90625 -13.28125 
L 13.1875 -13.28125 
Q 16.890625 -13.28125 18.9375 -11.515625 
Q 21 -9.765625 23.484375 -3.21875 
L 25.09375 0.875 
L 2.984375 54.6875 
L 12.5 54.6875 
L 29.59375 11.921875 
L 46.6875 54.6875 
L 56.203125 54.6875 
z
" id="DejaVuSans-121"/>
      <path d="M 54.890625 54.6875 
L 35.109375 28.078125 
L 55.90625 0 
L 45.3125 0 
L 29.390625 21.484375 
L 13.484375 0 
L 2.875 0 
L 24.125 28.609375 
L 4.6875 54.6875 
L 15.28125 54.6875 
L 29.78125 35.203125 
L 44.28125 54.6875 
z
" id="DejaVuSans-120"/>
     </defs>
     <use xlink:href="#DejaVuSans-80"/>
     <use x="60.302734" xlink:href="#DejaVuSans-104"/>
     <use x="123.681641" xlink:href="#DejaVuSans-100"/>
     <use x="187.158203" xlink:href="#DejaVuSans-47"/>
     <use x="220.849609" xlink:href="#DejaVuSans-89"/>
     <use x="268.683594" xlink:href="#DejaVuSans-101"/>
     <use x="330.207031" xlink:href="#DejaVuSans-102"/>
     <use x="365.412109" xlink:href="#DejaVuSans-77"/>
     <use x="451.691406" xlink:href="#DejaVuSans-32"/>
     <use x="483.478516" xlink:href="#DejaVuSans-102"/>
     <use x="518.683594" xlink:href="#DejaVuSans-97"/>
     <use x="579.962891" xlink:href="#DejaVuSans-109"/>
     <use x="677.375" xlink:href="#DejaVuSans-105"/>
     <use x="705.158203" xlink:href="#DejaVuSans-108"/>
     <use x="732.941406" xlink:href="#DejaVuSans-121"/>
     <use x="792.121094" xlink:href="#DejaVuSans-32"/>
     <use x="823.908203" xlink:href="#DejaVuSans-97"/>
     <use x="885.1875" xlink:href="#DejaVuSans-110"/>
     <use x="948.566406" xlink:href="#DejaVuSans-116"/>
     <use x="987.775391" xlink:href="#DejaVuSans-105"/>
     <use x="1015.558594" xlink:href="#DejaVuSans-116"/>
     <use x="1054.767578" xlink:href="#DejaVuSans-111"/>
     <use x="1112.824219" xlink:href="#DejaVuSans-120"/>
     <use x="1172.003906" xlink:href="#DejaVuSans-105"/>
     <use x="1199.787109" xlink:href="#DejaVuSans-110"/>
     <use x="1263.166016" xlink:href="#DejaVuSans-32"/>
     <use x="1294.953125" xlink:href="#DejaVuSans-40"/>
     <use x="1333.966797" xlink:href="#DejaVuSans-49"/>
     <use x="1397.589844" xlink:href="#DejaVuSans-41"/>
    </g>
   </g>
   <g id="text_14">
    <!-- Glucose PTS (6) -->
    <g transform="translate(76.761368 242.868098)scale(0.1 -0.1)">
     <defs>
      <path d="M -0.296875 72.90625 
L 61.375 72.90625 
L 61.375 64.59375 
L 35.5 64.59375 
L 35.5 0 
L 25.59375 0 
L 25.59375 64.59375 
L -0.296875 64.59375 
z
" id="DejaVuSans-84"/>
     </defs>
     <use xlink:href="#DejaVuSans-71"/>
     <use x="77.490234" xlink:href="#DejaVuSans-108"/>
     <use x="105.273438" xlink:href="#DejaVuSans-117"/>
     <use x="168.652344" xlink:href="#DejaVuSans-99"/>
     <use x="223.632812" xlink:href="#DejaVuSans-111"/>
     <use x="284.814453" xlink:href="#DejaVuSans-115"/>
     <use x="336.914062" xlink:href="#DejaVuSans-101"/>
     <use x="398.4375" xlink:href="#DejaVuSans-32"/>
     <use x="430.224609" xlink:href="#DejaVuSans-80"/>
     <use x="490.527344" xlink:href="#DejaVuSans-84"/>
     <use x="551.611328" xlink:href="#DejaVuSans-83"/>
     <use x="615.087891" xlink:href="#DejaVuSans-32"/>
     <use x="646.875" xlink:href="#DejaVuSans-40"/>
     <use x="685.888672" xlink:href="#DejaVuSans-54"/>
     <use x="749.511719" xlink:href="#DejaVuSans-41"/>
    </g>
   </g>
   <g id="text_15">
    <!-- RNA pol. $\beta$' subunit (11) -->
    <g transform="translate(115.084105 199.188241)scale(0.1 -0.1)">
     <defs>
      <path d="M 44.390625 34.1875 
Q 47.5625 33.109375 50.5625 29.59375 
Q 53.5625 26.078125 56.59375 19.921875 
L 66.609375 0 
L 56 0 
L 46.6875 18.703125 
Q 43.0625 26.03125 39.671875 28.421875 
Q 36.28125 30.8125 30.421875 30.8125 
L 19.671875 30.8125 
L 19.671875 0 
L 9.8125 0 
L 9.8125 72.90625 
L 32.078125 72.90625 
Q 44.578125 72.90625 50.734375 67.671875 
Q 56.890625 62.453125 56.890625 51.90625 
Q 56.890625 45.015625 53.6875 40.46875 
Q 50.484375 35.9375 44.390625 34.1875 
z
M 19.671875 64.796875 
L 19.671875 38.921875 
L 32.078125 38.921875 
Q 39.203125 38.921875 42.84375 42.21875 
Q 46.484375 45.515625 46.484375 51.90625 
Q 46.484375 58.296875 42.84375 61.546875 
Q 39.203125 64.796875 32.078125 64.796875 
z
" id="DejaVuSans-82"/>
      <path d="M 9.8125 72.90625 
L 23.09375 72.90625 
L 55.421875 11.921875 
L 55.421875 72.90625 
L 64.984375 72.90625 
L 64.984375 0 
L 51.703125 0 
L 19.390625 60.984375 
L 19.390625 0 
L 9.8125 0 
z
" id="DejaVuSans-78"/>
      <path d="M 10.6875 12.40625 
L 21 12.40625 
L 21 0 
L 10.6875 0 
z
" id="DejaVuSans-46"/>
      <path d="M 13.625 3.375 
L 8.9375 -20.796875 
L -0.09375 -20.796875 
L 14.5 54.34375 
Q 18.84375 76.609375 39.65625 76.609375 
Q 60.75 76.609375 57.171875 57.8125 
Q 54.734375 44.4375 45.21875 39.546875 
Q 58.015625 35.15625 55.515625 22.125 
Q 51.125 -1.078125 27.484375 -1.03125 
Q 17.140625 -0.984375 13.625 3.375 
z
M 15.921875 15.09375 
Q 19.671875 6.59375 29.296875 6.640625 
Q 43.359375 6.640625 46.34375 21.96875 
Q 49.03125 35.75 26.171875 34.671875 
L 27.78125 42.96875 
Q 45.453125 42.671875 48.53125 58.59375 
Q 50.640625 69.34375 39.203125 69.28125 
Q 26.421875 69.28125 23.484375 54.046875 
z
" id="DejaVuSans-Oblique-946"/>
      <path d="M 17.921875 72.90625 
L 17.921875 45.796875 
L 9.625 45.796875 
L 9.625 72.90625 
z
" id="DejaVuSans-39"/>
      <path d="M 48.6875 27.296875 
Q 48.6875 37.203125 44.609375 42.84375 
Q 40.53125 48.484375 33.40625 48.484375 
Q 26.265625 48.484375 22.1875 42.84375 
Q 18.109375 37.203125 18.109375 27.296875 
Q 18.109375 17.390625 22.1875 11.75 
Q 26.265625 6.109375 33.40625 6.109375 
Q 40.53125 6.109375 44.609375 11.75 
Q 48.6875 17.390625 48.6875 27.296875 
z
M 18.109375 46.390625 
Q 20.953125 51.265625 25.265625 53.625 
Q 29.59375 56 35.59375 56 
Q 45.5625 56 51.78125 48.09375 
Q 58.015625 40.1875 58.015625 27.296875 
Q 58.015625 14.40625 51.78125 6.484375 
Q 45.5625 -1.421875 35.59375 -1.421875 
Q 29.59375 -1.421875 25.265625 0.953125 
Q 20.953125 3.328125 18.109375 8.203125 
L 18.109375 0 
L 9.078125 0 
L 9.078125 75.984375 
L 18.109375 75.984375 
z
" id="DejaVuSans-98"/>
     </defs>
     <use transform="translate(0 0.390625)" xlink:href="#DejaVuSans-82"/>
     <use transform="translate(69.482422 0.390625)" xlink:href="#DejaVuSans-78"/>
     <use transform="translate(144.287109 0.390625)" xlink:href="#DejaVuSans-65"/>
     <use transform="translate(212.695312 0.390625)" xlink:href="#DejaVuSans-32"/>
     <use transform="translate(244.482422 0.390625)" xlink:href="#DejaVuSans-112"/>
     <use transform="translate(307.958984 0.390625)" xlink:href="#DejaVuSans-111"/>
     <use transform="translate(369.140625 0.390625)" xlink:href="#DejaVuSans-108"/>
     <use transform="translate(396.923828 0.390625)" xlink:href="#DejaVuSans-46"/>
     <use transform="translate(428.710938 0.390625)" xlink:href="#DejaVuSans-32"/>
     <use transform="translate(460.498047 0.390625)" xlink:href="#DejaVuSans-Oblique-946"/>
     <use transform="translate(524.316406 0.390625)" xlink:href="#DejaVuSans-39"/>
     <use transform="translate(551.806641 0.390625)" xlink:href="#DejaVuSans-32"/>
     <use transform="translate(583.59375 0.390625)" xlink:href="#DejaVuSans-115"/>
     <use transform="translate(635.693359 0.390625)" xlink:href="#DejaVuSans-117"/>
     <use transform="translate(699.072266 0.390625)" xlink:href="#DejaVuSans-98"/>
     <use transform="translate(762.548828 0.390625)" xlink:href="#DejaVuSans-117"/>
     <use transform="translate(825.927734 0.390625)" xlink:href="#DejaVuSans-110"/>
     <use transform="translate(889.306641 0.390625)" xlink:href="#DejaVuSans-105"/>
     <use transform="translate(917.089844 0.390625)" xlink:href="#DejaVuSans-116"/>
     <use transform="translate(956.298828 0.390625)" xlink:href="#DejaVuSans-32"/>
     <use transform="translate(988.085938 0.390625)" xlink:href="#DejaVuSans-40"/>
     <use transform="translate(1027.099609 0.390625)" xlink:href="#DejaVuSans-49"/>
     <use transform="translate(1090.722656 0.390625)" xlink:href="#DejaVuSans-49"/>
     <use transform="translate(1154.345703 0.390625)" xlink:href="#DejaVuSans-41"/>
    </g>
   </g>
   <g id="text_16">
    <!-- akg-dehydrogenase E2 (14) -->
    <g transform="translate(129.455131 181.659423)scale(0.1 -0.1)">
     <defs>
      <path d="M 9.078125 75.984375 
L 18.109375 75.984375 
L 18.109375 31.109375 
L 44.921875 54.6875 
L 56.390625 54.6875 
L 27.390625 29.109375 
L 57.625 0 
L 45.90625 0 
L 18.109375 26.703125 
L 18.109375 0 
L 9.078125 0 
z
" id="DejaVuSans-107"/>
      <path d="M 45.40625 27.984375 
Q 45.40625 37.75 41.375 43.109375 
Q 37.359375 48.484375 30.078125 48.484375 
Q 22.859375 48.484375 18.828125 43.109375 
Q 14.796875 37.75 14.796875 27.984375 
Q 14.796875 18.265625 18.828125 12.890625 
Q 22.859375 7.515625 30.078125 7.515625 
Q 37.359375 7.515625 41.375 12.890625 
Q 45.40625 18.265625 45.40625 27.984375 
z
M 54.390625 6.78125 
Q 54.390625 -7.171875 48.1875 -13.984375 
Q 42 -20.796875 29.203125 -20.796875 
Q 24.46875 -20.796875 20.265625 -20.09375 
Q 16.0625 -19.390625 12.109375 -17.921875 
L 12.109375 -9.1875 
Q 16.0625 -11.328125 19.921875 -12.34375 
Q 23.78125 -13.375 27.78125 -13.375 
Q 36.625 -13.375 41.015625 -8.765625 
Q 45.40625 -4.15625 45.40625 5.171875 
L 45.40625 9.625 
Q 42.625 4.78125 38.28125 2.390625 
Q 33.9375 0 27.875 0 
Q 17.828125 0 11.671875 7.65625 
Q 5.515625 15.328125 5.515625 27.984375 
Q 5.515625 40.671875 11.671875 48.328125 
Q 17.828125 56 27.875 56 
Q 33.9375 56 38.28125 53.609375 
Q 42.625 51.21875 45.40625 46.390625 
L 45.40625 54.6875 
L 54.390625 54.6875 
z
" id="DejaVuSans-103"/>
      <path d="M 4.890625 31.390625 
L 31.203125 31.390625 
L 31.203125 23.390625 
L 4.890625 23.390625 
z
" id="DejaVuSans-45"/>
     </defs>
     <use xlink:href="#DejaVuSans-97"/>
     <use x="61.279297" xlink:href="#DejaVuSans-107"/>
     <use x="119.189453" xlink:href="#DejaVuSans-103"/>
     <use x="182.666016" xlink:href="#DejaVuSans-45"/>
     <use x="218.75" xlink:href="#DejaVuSans-100"/>
     <use x="282.226562" xlink:href="#DejaVuSans-101"/>
     <use x="343.75" xlink:href="#DejaVuSans-104"/>
     <use x="407.128906" xlink:href="#DejaVuSans-121"/>
     <use x="466.308594" xlink:href="#DejaVuSans-100"/>
     <use x="529.785156" xlink:href="#DejaVuSans-114"/>
     <use x="568.648438" xlink:href="#DejaVuSans-111"/>
     <use x="629.830078" xlink:href="#DejaVuSans-103"/>
     <use x="693.306641" xlink:href="#DejaVuSans-101"/>
     <use x="754.830078" xlink:href="#DejaVuSans-110"/>
     <use x="818.208984" xlink:href="#DejaVuSans-97"/>
     <use x="879.488281" xlink:href="#DejaVuSans-115"/>
     <use x="931.587891" xlink:href="#DejaVuSans-101"/>
     <use x="993.111328" xlink:href="#DejaVuSans-32"/>
     <use x="1024.898438" xlink:href="#DejaVuSans-69"/>
     <use x="1088.082031" xlink:href="#DejaVuSans-50"/>
     <use x="1151.705078" xlink:href="#DejaVuSans-32"/>
     <use x="1183.492188" xlink:href="#DejaVuSans-40"/>
     <use x="1222.505859" xlink:href="#DejaVuSans-49"/>
     <use x="1286.128906" xlink:href="#DejaVuSans-52"/>
     <use x="1349.751953" xlink:href="#DejaVuSans-41"/>
    </g>
   </g>
   <g id="text_17">
    <!-- SarU (15) -->
    <g transform="translate(134.245473 164.17123)scale(0.1 -0.1)">
     <use xlink:href="#DejaVuSans-83"/>
     <use x="63.476562" xlink:href="#DejaVuSans-97"/>
     <use x="124.755859" xlink:href="#DejaVuSans-114"/>
     <use x="165.869141" xlink:href="#DejaVuSans-85"/>
     <use x="239.0625" xlink:href="#DejaVuSans-32"/>
     <use x="270.849609" xlink:href="#DejaVuSans-40"/>
     <use x="309.863281" xlink:href="#DejaVuSans-49"/>
     <use x="373.486328" xlink:href="#DejaVuSans-53"/>
     <use x="437.109375" xlink:href="#DejaVuSans-41"/>
    </g>
   </g>
   <g id="text_18">
    <!-- Oligopeptide transporter (19) -->
    <g transform="translate(153.406841 146.683038)scale(0.1 -0.1)">
     <defs>
      <path d="M 39.40625 66.21875 
Q 28.65625 66.21875 22.328125 58.203125 
Q 16.015625 50.203125 16.015625 36.375 
Q 16.015625 22.609375 22.328125 14.59375 
Q 28.65625 6.59375 39.40625 6.59375 
Q 50.140625 6.59375 56.421875 14.59375 
Q 62.703125 22.609375 62.703125 36.375 
Q 62.703125 50.203125 56.421875 58.203125 
Q 50.140625 66.21875 39.40625 66.21875 
z
M 39.40625 74.21875 
Q 54.734375 74.21875 63.90625 63.9375 
Q 73.09375 53.65625 73.09375 36.375 
Q 73.09375 19.140625 63.90625 8.859375 
Q 54.734375 -1.421875 39.40625 -1.421875 
Q 24.03125 -1.421875 14.8125 8.828125 
Q 5.609375 19.09375 5.609375 36.375 
Q 5.609375 53.65625 14.8125 63.9375 
Q 24.03125 74.21875 39.40625 74.21875 
z
" id="DejaVuSans-79"/>
      <path d="M 10.984375 1.515625 
L 10.984375 10.5 
Q 14.703125 8.734375 18.5 7.8125 
Q 22.3125 6.890625 25.984375 6.890625 
Q 35.75 6.890625 40.890625 13.453125 
Q 46.046875 20.015625 46.78125 33.40625 
Q 43.953125 29.203125 39.59375 26.953125 
Q 35.25 24.703125 29.984375 24.703125 
Q 19.046875 24.703125 12.671875 31.3125 
Q 6.296875 37.9375 6.296875 49.421875 
Q 6.296875 60.640625 12.9375 67.421875 
Q 19.578125 74.21875 30.609375 74.21875 
Q 43.265625 74.21875 49.921875 64.515625 
Q 56.59375 54.828125 56.59375 36.375 
Q 56.59375 19.140625 48.40625 8.859375 
Q 40.234375 -1.421875 26.421875 -1.421875 
Q 22.703125 -1.421875 18.890625 -0.6875 
Q 15.09375 0.046875 10.984375 1.515625 
z
M 30.609375 32.421875 
Q 37.25 32.421875 41.125 36.953125 
Q 45.015625 41.5 45.015625 49.421875 
Q 45.015625 57.28125 41.125 61.84375 
Q 37.25 66.40625 30.609375 66.40625 
Q 23.96875 66.40625 20.09375 61.84375 
Q 16.21875 57.28125 16.21875 49.421875 
Q 16.21875 41.5 20.09375 36.953125 
Q 23.96875 32.421875 30.609375 32.421875 
z
" id="DejaVuSans-57"/>
     </defs>
     <use xlink:href="#DejaVuSans-79"/>
     <use x="78.710938" xlink:href="#DejaVuSans-108"/>
     <use x="106.494141" xlink:href="#DejaVuSans-105"/>
     <use x="134.277344" xlink:href="#DejaVuSans-103"/>
     <use x="197.753906" xlink:href="#DejaVuSans-111"/>
     <use x="258.935547" xlink:href="#DejaVuSans-112"/>
     <use x="322.412109" xlink:href="#DejaVuSans-101"/>
     <use x="383.935547" xlink:href="#DejaVuSans-112"/>
     <use x="447.412109" xlink:href="#DejaVuSans-116"/>
     <use x="486.621094" xlink:href="#DejaVuSans-105"/>
     <use x="514.404297" xlink:href="#DejaVuSans-100"/>
     <use x="577.880859" xlink:href="#DejaVuSans-101"/>
     <use x="639.404297" xlink:href="#DejaVuSans-32"/>
     <use x="671.191406" xlink:href="#DejaVuSans-116"/>
     <use x="710.400391" xlink:href="#DejaVuSans-114"/>
     <use x="751.513672" xlink:href="#DejaVuSans-97"/>
     <use x="812.792969" xlink:href="#DejaVuSans-110"/>
     <use x="876.171875" xlink:href="#DejaVuSans-115"/>
     <use x="928.271484" xlink:href="#DejaVuSans-112"/>
     <use x="991.748047" xlink:href="#DejaVuSans-111"/>
     <use x="1052.929688" xlink:href="#DejaVuSans-114"/>
     <use x="1094.042969" xlink:href="#DejaVuSans-116"/>
     <use x="1133.251953" xlink:href="#DejaVuSans-101"/>
     <use x="1194.775391" xlink:href="#DejaVuSans-114"/>
     <use x="1235.888672" xlink:href="#DejaVuSans-32"/>
     <use x="1267.675781" xlink:href="#DejaVuSans-40"/>
     <use x="1306.689453" xlink:href="#DejaVuSans-49"/>
     <use x="1370.3125" xlink:href="#DejaVuSans-57"/>
     <use x="1433.935547" xlink:href="#DejaVuSans-41"/>
    </g>
   </g>
   <g id="text_19">
    <!-- Serine hydroxymethyltransferase (31) -->
    <g transform="translate(210.890946 102.962556)scale(0.1 -0.1)">
     <use xlink:href="#DejaVuSans-83"/>
     <use x="63.476562" xlink:href="#DejaVuSans-101"/>
     <use x="125" xlink:href="#DejaVuSans-114"/>
     <use x="166.113281" xlink:href="#DejaVuSans-105"/>
     <use x="193.896484" xlink:href="#DejaVuSans-110"/>
     <use x="257.275391" xlink:href="#DejaVuSans-101"/>
     <use x="318.798828" xlink:href="#DejaVuSans-32"/>
     <use x="350.585938" xlink:href="#DejaVuSans-104"/>
     <use x="413.964844" xlink:href="#DejaVuSans-121"/>
     <use x="473.144531" xlink:href="#DejaVuSans-100"/>
     <use x="536.621094" xlink:href="#DejaVuSans-114"/>
     <use x="575.484375" xlink:href="#DejaVuSans-111"/>
     <use x="633.541016" xlink:href="#DejaVuSans-120"/>
     <use x="692.720703" xlink:href="#DejaVuSans-121"/>
     <use x="751.900391" xlink:href="#DejaVuSans-109"/>
     <use x="849.3125" xlink:href="#DejaVuSans-101"/>
     <use x="910.835938" xlink:href="#DejaVuSans-116"/>
     <use x="950.044922" xlink:href="#DejaVuSans-104"/>
     <use x="1013.423828" xlink:href="#DejaVuSans-121"/>
     <use x="1072.603516" xlink:href="#DejaVuSans-108"/>
     <use x="1100.386719" xlink:href="#DejaVuSans-116"/>
     <use x="1139.595703" xlink:href="#DejaVuSans-114"/>
     <use x="1180.708984" xlink:href="#DejaVuSans-97"/>
     <use x="1241.988281" xlink:href="#DejaVuSans-110"/>
     <use x="1305.367188" xlink:href="#DejaVuSans-115"/>
     <use x="1357.466797" xlink:href="#DejaVuSans-102"/>
     <use x="1392.671875" xlink:href="#DejaVuSans-101"/>
     <use x="1454.195312" xlink:href="#DejaVuSans-114"/>
     <use x="1495.308594" xlink:href="#DejaVuSans-97"/>
     <use x="1556.587891" xlink:href="#DejaVuSans-115"/>
     <use x="1608.6875" xlink:href="#DejaVuSans-101"/>
     <use x="1670.210938" xlink:href="#DejaVuSans-32"/>
     <use x="1701.998047" xlink:href="#DejaVuSans-40"/>
     <use x="1741.011719" xlink:href="#DejaVuSans-51"/>
     <use x="1804.634766" xlink:href="#DejaVuSans-49"/>
     <use x="1868.257812" xlink:href="#DejaVuSans-41"/>
    </g>
   </g>
  </g>
 </g>
 <defs>
  <clipPath id="pf7cb473fee">
   <rect height="266.112" width="357.12" x="57.6" y="41.472"/>
  </clipPath>
 </defs>
</svg>
