<?xml version="1.0" encoding="utf-8" standalone="no"?>
<!DOCTYPE svg PUBLIC "-//W3C//DTD SVG 1.1//EN"
  "http://www.w3.org/Graphics/SVG/1.1/DTD/svg11.dtd">
<!-- Created with matplotlib (https://matplotlib.org/) -->
<svg height="1080pt" version="1.1" viewBox="0 0 1080 1080" width="1080pt" xmlns="http://www.w3.org/2000/svg" xmlns:xlink="http://www.w3.org/1999/xlink">
 <metadata>
  <rdf:RDF xmlns:cc="http://creativecommons.org/ns#" xmlns:dc="http://purl.org/dc/elements/1.1/" xmlns:rdf="http://www.w3.org/1999/02/22-rdf-syntax-ns#">
   <cc:Work>
    <dc:type rdf:resource="http://purl.org/dc/dcmitype/StillImage"/>
    <dc:date>2022-02-02T23:16:18.298580</dc:date>
    <dc:format>image/svg+xml</dc:format>
    <dc:creator>
     <cc:Agent>
      <dc:title>Matplotlib v3.3.4, https://matplotlib.org/</dc:title>
     </cc:Agent>
    </dc:creator>
   </cc:Work>
  </rdf:RDF>
 </metadata>
 <defs>
  <style type="text/css">*{stroke-linecap:butt;stroke-linejoin:round;}</style>
 </defs>
 <g id="figure_1">
  <g id="patch_1">
   <path d="M 0 1080 
L 1080 1080 
L 1080 0 
L 0 0 
z
" style="fill:none;"/>
  </g>
  <g id="axes_1">
   <g id="patch_2">
    <path d="M 135 945 
L 972 945 
L 972 129.6 
L 135 129.6 
z
" style="fill:#ffffff;"/>
   </g>
   <g id="LineCollection_1">
    <path clip-path="url(#pc8a2a46d64)" d="M 845.850451 562.2122 
L 784.023865 621.382264 
" style="fill:none;stroke:#808080;stroke-width:2;"/>
    <path clip-path="url(#pc8a2a46d64)" d="M 845.850451 562.2122 
L 895.482078 502.017107 
" style="fill:none;stroke:#808080;stroke-width:2;"/>
    <path clip-path="url(#pc8a2a46d64)" d="M 785.754644 342.245448 
L 741.640164 356.984381 
" style="fill:none;stroke:#808080;stroke-width:2;"/>
    <path clip-path="url(#pc8a2a46d64)" d="M 741.640164 356.984381 
L 685.764919 374.9112 
" style="fill:none;stroke:#808080;stroke-width:2;"/>
    <path clip-path="url(#pc8a2a46d64)" d="M 173.045455 596.377911 
L 204.860508 654.098665 
" style="fill:none;stroke:#808080;stroke-width:2;"/>
    <path clip-path="url(#pc8a2a46d64)" d="M 173.045455 596.377911 
L 193.19733 532.625858 
" style="fill:none;stroke:#808080;stroke-width:2;"/>
    <path clip-path="url(#pc8a2a46d64)" d="M 225.078974 578.168115 
L 204.860508 654.098665 
" style="fill:none;stroke:#808080;stroke-width:2;"/>
    <path clip-path="url(#pc8a2a46d64)" d="M 225.078974 578.168115 
L 244.111194 499.700951 
" style="fill:none;stroke:#808080;stroke-width:2;"/>
    <path clip-path="url(#pc8a2a46d64)" d="M 204.860508 654.098665 
L 221.15425 745.106927 
" style="fill:none;stroke:#808080;stroke-width:2;"/>
    <path clip-path="url(#pc8a2a46d64)" d="M 254.171932 824.763755 
L 221.15425 745.106927 
" style="fill:none;stroke:#808080;stroke-width:2;"/>
    <path clip-path="url(#pc8a2a46d64)" d="M 254.171932 824.763755 
L 306.850194 883.539951 
" style="fill:none;stroke:#808080;stroke-width:2;"/>
    <path clip-path="url(#pc8a2a46d64)" d="M 578.070552 742.465369 
L 637.534378 732.381585 
" style="fill:none;stroke:#808080;stroke-width:2;"/>
    <path clip-path="url(#pc8a2a46d64)" d="M 578.070552 742.465369 
L 529.196918 779.532491 
" style="fill:none;stroke:#808080;stroke-width:2;"/>
    <path clip-path="url(#pc8a2a46d64)" d="M 306.850194 883.539951 
L 376.506625 907.936364 
" style="fill:none;stroke:#808080;stroke-width:2;"/>
    <path clip-path="url(#pc8a2a46d64)" d="M 713.773797 677.876076 
L 784.023865 621.382264 
" style="fill:none;stroke:#808080;stroke-width:2;"/>
    <path clip-path="url(#pc8a2a46d64)" d="M 713.773797 677.876076 
L 637.534378 732.381585 
" style="fill:none;stroke:#808080;stroke-width:2;"/>
    <path clip-path="url(#pc8a2a46d64)" d="M 587.994424 800.446111 
L 637.534378 732.381585 
" style="fill:none;stroke:#808080;stroke-width:2;"/>
    <path clip-path="url(#pc8a2a46d64)" d="M 587.994424 800.446111 
L 520.23845 841.630261 
" style="fill:none;stroke:#808080;stroke-width:2;"/>
    <path clip-path="url(#pc8a2a46d64)" d="M 633.110325 339.639679 
L 685.764919 374.9112 
" style="fill:none;stroke:#808080;stroke-width:2;"/>
    <path clip-path="url(#pc8a2a46d64)" d="M 633.110325 339.639679 
L 587.139864 282.981528 
" style="fill:none;stroke:#808080;stroke-width:2;"/>
    <path clip-path="url(#pc8a2a46d64)" d="M 376.506625 907.936364 
L 450.929479 891.488985 
" style="fill:none;stroke:#808080;stroke-width:2;"/>
    <path clip-path="url(#pc8a2a46d64)" d="M 520.23845 841.630261 
L 450.929479 891.488985 
" style="fill:none;stroke:#808080;stroke-width:2;"/>
    <path clip-path="url(#pc8a2a46d64)" d="M 520.23845 841.630261 
L 529.196918 779.532491 
" style="fill:none;stroke:#808080;stroke-width:2;"/>
    <path clip-path="url(#pc8a2a46d64)" d="M 895.482078 502.017107 
L 933.954545 453.586741 
" style="fill:none;stroke:#808080;stroke-width:2;"/>
    <path clip-path="url(#pc8a2a46d64)" d="M 587.139864 282.981528 
L 537.733466 226.616352 
" style="fill:none;stroke:#808080;stroke-width:2;"/>
    <path clip-path="url(#pc8a2a46d64)" d="M 297.89957 425.955338 
L 244.111194 499.700951 
" style="fill:none;stroke:#808080;stroke-width:2;"/>
    <path clip-path="url(#pc8a2a46d64)" d="M 297.89957 425.955338 
L 305.33629 339.309022 
" style="fill:none;stroke:#808080;stroke-width:2;"/>
    <path clip-path="url(#pc8a2a46d64)" d="M 244.111194 499.700951 
L 193.19733 532.625858 
" style="fill:none;stroke:#808080;stroke-width:2;"/>
    <path clip-path="url(#pc8a2a46d64)" d="M 305.33629 339.309022 
L 318.166246 257.753535 
" style="fill:none;stroke:#808080;stroke-width:2;"/>
    <path clip-path="url(#pc8a2a46d64)" d="M 318.166246 257.753535 
L 355.22578 194.106973 
" style="fill:none;stroke:#808080;stroke-width:2;"/>
    <path clip-path="url(#pc8a2a46d64)" d="M 415.183206 166.663636 
L 355.22578 194.106973 
" style="fill:none;stroke:#808080;stroke-width:2;"/>
    <path clip-path="url(#pc8a2a46d64)" d="M 415.183206 166.663636 
L 480.272743 182.480731 
" style="fill:none;stroke:#808080;stroke-width:2;"/>
    <path clip-path="url(#pc8a2a46d64)" d="M 480.272743 182.480731 
L 537.733466 226.616352 
" style="fill:none;stroke:#808080;stroke-width:2;"/>
   </g>
   <g id="matplotlib.axis_1">
    <g id="xtick_1"/>
    <g id="xtick_2"/>
    <g id="xtick_3"/>
    <g id="xtick_4"/>
    <g id="xtick_5"/>
    <g id="xtick_6"/>
    <g id="xtick_7"/>
    <g id="xtick_8"/>
   </g>
   <g id="matplotlib.axis_2">
    <g id="ytick_1"/>
    <g id="ytick_2"/>
    <g id="ytick_3"/>
    <g id="ytick_4"/>
    <g id="ytick_5"/>
    <g id="ytick_6"/>
    <g id="ytick_7"/>
    <g id="ytick_8"/>
    <g id="ytick_9"/>
   </g>
   <g id="PathCollection_1">
    <path clip-path="url(#pc8a2a46d64)" d="M 845.850451 584.73996 
C 851.824883 584.73996 857.555422 582.366293 861.779984 578.141732 
C 866.004545 573.917171 868.378212 568.186632 868.378212 562.2122 
C 868.378212 556.237768 866.004545 550.507229 861.779984 546.282667 
C 857.555422 542.058106 851.824883 539.684439 845.850451 539.684439 
C 839.876019 539.684439 834.14548 542.058106 829.920919 546.282667 
C 825.696358 550.507229 823.322691 556.237768 823.322691 562.2122 
C 823.322691 568.186632 825.696358 573.917171 829.920919 578.141732 
C 834.14548 582.366293 839.876019 584.73996 845.850451 584.73996 
z
" style="fill:#808080;fill-opacity:0.298039;stroke:#000000;"/>
    <path clip-path="url(#pc8a2a46d64)" d="M 785.754644 364.762109 
C 791.726132 364.762109 797.453848 362.389612 801.676328 358.167132 
C 805.898807 353.944652 808.271305 348.216937 808.271305 342.245448 
C 808.271305 336.27396 805.898807 330.546245 801.676328 326.323765 
C 797.453848 322.101285 791.726132 319.728788 785.754644 319.728788 
C 779.783156 319.728788 774.055441 322.101285 769.832961 326.323765 
C 765.610481 330.546245 763.237984 336.27396 763.237984 342.245448 
C 763.237984 348.216937 765.610481 353.944652 769.832961 358.167132 
C 774.055441 362.389612 779.783156 364.762109 785.754644 364.762109 
z
" style="fill:#808080;fill-opacity:0.298039;stroke:#000000;"/>
    <path clip-path="url(#pc8a2a46d64)" d="M 741.640164 379.484381 
C 747.607234 379.484381 753.330711 377.113639 757.550067 372.894284 
C 761.769422 368.674928 764.140164 362.951451 764.140164 356.984381 
C 764.140164 351.017311 761.769422 345.293834 757.550067 341.074478 
C 753.330711 336.855123 747.607234 334.484381 741.640164 334.484381 
C 735.673094 334.484381 729.949617 336.855123 725.730262 341.074478 
C 721.510906 345.293834 719.140164 351.017311 719.140164 356.984381 
C 719.140164 362.951451 721.510906 368.674928 725.730262 372.894284 
C 729.949617 377.113639 735.673094 379.484381 741.640164 379.484381 
z
" style="fill:#808080;fill-opacity:0.298039;stroke:#000000;"/>
    <path clip-path="url(#pc8a2a46d64)" d="M 173.045455 615.404209 
C 178.091288 615.404209 182.931136 613.399478 186.499079 609.831535 
C 190.067021 606.263592 192.071752 601.423744 192.071752 596.377911 
C 192.071752 591.332078 190.067021 586.49223 186.499079 582.924287 
C 182.931136 579.356344 178.091288 577.351614 173.045455 577.351614 
C 167.999621 577.351614 163.159773 579.356344 159.59183 582.924287 
C 156.023888 586.49223 154.019157 591.332078 154.019157 596.377911 
C 154.019157 601.423744 156.023888 606.263592 159.59183 609.831535 
C 163.159773 613.399478 167.999621 615.404209 173.045455 615.404209 
z
" style="fill:#ff0000;stroke:#000000;"/>
    <path clip-path="url(#pc8a2a46d64)" d="M 225.078974 590.230453 
C 228.277943 590.230453 231.346322 588.959489 233.608335 586.697476 
C 235.870348 584.435463 237.141312 581.367084 237.141312 578.168115 
C 237.141312 574.969145 235.870348 571.900767 233.608335 569.638754 
C 231.346322 567.376741 228.277943 566.105776 225.078974 566.105776 
C 221.880004 566.105776 218.811626 567.376741 216.549613 569.638754 
C 214.2876 571.900767 213.016636 574.969145 213.016636 578.168115 
C 213.016636 581.367084 214.2876 584.435463 216.549613 586.697476 
C 218.811626 588.959489 221.880004 590.230453 225.078974 590.230453 
z
" style="fill:#0000ff;stroke:#000000;"/>
    <path clip-path="url(#pc8a2a46d64)" d="M 204.860508 676.626425 
C 210.83494 676.626425 216.565479 674.252758 220.79004 670.028197 
C 225.014601 665.803636 227.388268 660.073097 227.388268 654.098665 
C 227.388268 648.124233 225.014601 642.393694 220.79004 638.169132 
C 216.565479 633.944571 210.83494 631.570904 204.860508 631.570904 
C 198.886076 631.570904 193.155537 633.944571 188.930975 638.169132 
C 184.706414 642.393694 182.332747 648.124233 182.332747 654.098665 
C 182.332747 660.073097 184.706414 665.803636 188.930975 670.028197 
C 193.155537 674.252758 198.886076 676.626425 204.860508 676.626425 
z
" style="fill:#808080;fill-opacity:0.298039;stroke:#000000;"/>
    <path clip-path="url(#pc8a2a46d64)" d="M 254.171932 847.280416 
C 260.14342 847.280416 265.871136 844.907918 270.093615 840.685439 
C 274.316095 836.462959 276.688593 830.735243 276.688593 824.763755 
C 276.688593 818.792267 274.316095 813.064552 270.093615 808.842072 
C 265.871136 804.619592 260.14342 802.247095 254.171932 802.247095 
C 248.200444 802.247095 242.472729 804.619592 238.250249 808.842072 
C 234.027769 813.064552 231.655272 818.792267 231.655272 824.763755 
C 231.655272 830.735243 234.027769 836.462959 238.250249 840.685439 
C 242.472729 844.907918 248.200444 847.280416 254.171932 847.280416 
z
" style="fill:#808080;fill-opacity:0.298039;stroke:#000000;"/>
    <path clip-path="url(#pc8a2a46d64)" d="M 221.15425 767.629138 
C 227.12721 767.629138 232.856338 765.256056 237.079858 761.032535 
C 241.303379 756.809015 243.676461 751.079887 243.676461 745.106927 
C 243.676461 739.133967 241.303379 733.404839 237.079858 729.181319 
C 232.856338 724.957798 227.12721 722.584716 221.15425 722.584716 
C 215.18129 722.584716 209.452162 724.957798 205.228642 729.181319 
C 201.005121 733.404839 198.632039 739.133967 198.632039 745.106927 
C 198.632039 751.079887 201.005121 756.809015 205.228642 761.032535 
C 209.452162 765.256056 215.18129 767.629138 221.15425 767.629138 
z
" style="fill:#808080;fill-opacity:0.298039;stroke:#000000;"/>
    <path clip-path="url(#pc8a2a46d64)" d="M 578.070552 761.478522 
C 583.112899 761.478522 587.949403 759.475177 591.514881 755.909699 
C 595.080359 752.344221 597.083705 747.507716 597.083705 742.465369 
C 597.083705 737.423022 595.080359 732.586517 591.514881 729.021039 
C 587.949403 725.455561 583.112899 723.452216 578.070552 723.452216 
C 573.028204 723.452216 568.1917 725.455561 564.626222 729.021039 
C 561.060744 732.586517 559.057398 737.423022 559.057398 742.465369 
C 559.057398 747.507716 561.060744 752.344221 564.626222 755.909699 
C 568.1917 759.475177 573.028204 761.478522 578.070552 761.478522 
z
" style="fill:#b90045;stroke:#000000;"/>
    <path clip-path="url(#pc8a2a46d64)" d="M 306.850194 906.062163 
C 312.823154 906.062163 318.552281 903.68908 322.775802 899.46556 
C 326.999323 895.242039 329.372405 889.512912 329.372405 883.539951 
C 329.372405 877.566991 326.999323 871.837864 322.775802 867.614343 
C 318.552281 863.390822 312.823154 861.01774 306.850194 861.01774 
C 300.877233 861.01774 295.148106 863.390822 290.924585 867.614343 
C 286.701065 871.837864 284.327982 877.566991 284.327982 883.539951 
C 284.327982 889.512912 286.701065 895.242039 290.924585 899.46556 
C 295.148106 903.68908 300.877233 906.062163 306.850194 906.062163 
z
" style="fill:#808080;fill-opacity:0.298039;stroke:#000000;"/>
    <path clip-path="url(#pc8a2a46d64)" d="M 713.773797 700.381631 
C 719.742339 700.381631 725.46723 698.010304 729.687627 693.789907 
C 733.908024 689.569509 736.279351 683.844619 736.279351 677.876076 
C 736.279351 671.907533 733.908024 666.182643 729.687627 661.962246 
C 725.46723 657.741849 719.742339 655.370521 713.773797 655.370521 
C 707.805254 655.370521 702.080363 657.741849 697.859966 661.962246 
C 693.639569 666.182643 691.268242 671.907533 691.268242 677.876076 
C 691.268242 683.844619 693.639569 689.569509 697.859966 693.789907 
C 702.080363 698.010304 707.805254 700.381631 713.773797 700.381631 
z
" style="fill:#808080;fill-opacity:0.298039;stroke:#000000;"/>
    <path clip-path="url(#pc8a2a46d64)" d="M 587.994424 812.498082 
C 591.190644 812.498082 594.256385 811.22821 596.516454 808.968141 
C 598.776523 806.708072 600.046394 803.642331 600.046394 800.446111 
C 600.046394 797.249891 598.776523 794.184149 596.516454 791.924081 
C 594.256385 789.664012 591.190644 788.39414 587.994424 788.39414 
C 584.798204 788.39414 581.732462 789.664012 579.472393 791.924081 
C 577.212324 794.184149 575.942453 797.249891 575.942453 800.446111 
C 575.942453 803.642331 577.212324 806.708072 579.472393 808.968141 
C 581.732462 811.22821 584.798204 812.498082 587.994424 812.498082 
z
" style="fill:#0000fe;stroke:#000000;"/>
    <path clip-path="url(#pc8a2a46d64)" d="M 784.023865 643.904475 
C 789.996826 643.904475 795.725953 641.531393 799.949474 637.307872 
C 804.172994 633.084351 806.546077 627.355224 806.546077 621.382264 
C 806.546077 615.409303 804.172994 609.680176 799.949474 605.456655 
C 795.725953 601.233135 789.996826 598.860052 784.023865 598.860052 
C 778.050905 598.860052 772.321778 601.233135 768.098257 605.456655 
C 763.874736 609.680176 761.501654 615.409303 761.501654 621.382264 
C 761.501654 627.355224 763.874736 633.084351 768.098257 637.307872 
C 772.321778 641.531393 778.050905 643.904475 784.023865 643.904475 
z
" style="fill:#808080;fill-opacity:0.298039;stroke:#000000;"/>
    <path clip-path="url(#pc8a2a46d64)" d="M 637.534378 754.892693 
C 643.504394 754.892693 649.230697 752.520781 653.452136 748.299342 
C 657.673574 744.077903 660.045487 738.3516 660.045487 732.381585 
C 660.045487 726.411569 657.673574 720.685266 653.452136 716.463827 
C 649.230697 712.242389 643.504394 709.870476 637.534378 709.870476 
C 631.564363 709.870476 625.83806 712.242389 621.616621 716.463827 
C 617.395182 720.685266 615.02327 726.411569 615.02327 732.381585 
C 615.02327 738.3516 617.395182 744.077903 621.616621 748.299342 
C 625.83806 752.520781 631.564363 754.892693 637.534378 754.892693 
z
" style="fill:#808080;fill-opacity:0.298039;stroke:#000000;"/>
    <path clip-path="url(#pc8a2a46d64)" d="M 633.110325 362.145234 
C 639.078868 362.145234 644.803759 359.773907 649.024156 355.55351 
C 653.244553 351.333112 655.61588 345.608222 655.61588 339.639679 
C 655.61588 333.671136 653.244553 327.946246 649.024156 323.725849 
C 644.803759 319.505452 639.078868 317.134124 633.110325 317.134124 
C 627.141782 317.134124 621.416892 319.505452 617.196495 323.725849 
C 612.976098 327.946246 610.604771 333.671136 610.604771 339.639679 
C 610.604771 345.608222 612.976098 351.333112 617.196495 355.55351 
C 621.416892 359.773907 627.141782 362.145234 633.110325 362.145234 
z
" style="fill:#808080;fill-opacity:0.298039;stroke:#000000;"/>
    <path clip-path="url(#pc8a2a46d64)" d="M 685.764919 397.405643 
C 691.730515 397.405643 697.452579 395.035487 701.670893 390.817173 
C 705.889206 386.59886 708.259363 380.876796 708.259363 374.9112 
C 708.259363 368.945603 705.889206 363.223539 701.670893 359.005226 
C 697.452579 354.786912 691.730515 352.416756 685.764919 352.416756 
C 679.799323 352.416756 674.077259 354.786912 669.858945 359.005226 
C 665.640632 363.223539 663.270475 368.945603 663.270475 374.9112 
C 663.270475 380.876796 665.640632 386.59886 669.858945 390.817173 
C 674.077259 395.035487 679.799323 397.405643 685.764919 397.405643 
z
" style="fill:#808080;fill-opacity:0.298039;stroke:#000000;"/>
    <path clip-path="url(#pc8a2a46d64)" d="M 376.506625 930.464124 
C 382.481057 930.464124 388.211596 928.090457 392.436157 923.865896 
C 396.660719 919.641335 399.034386 913.910796 399.034386 907.936364 
C 399.034386 901.961932 396.660719 896.231393 392.436157 892.006831 
C 388.211596 887.78227 382.481057 885.408603 376.506625 885.408603 
C 370.532193 885.408603 364.801654 887.78227 360.577093 892.006831 
C 356.352531 896.231393 353.978864 901.961932 353.978864 907.936364 
C 353.978864 913.910796 356.352531 919.641335 360.577093 923.865896 
C 364.801654 928.090457 370.532193 930.464124 376.506625 930.464124 
z
" style="fill:#808080;fill-opacity:0.298039;stroke:#000000;"/>
    <path clip-path="url(#pc8a2a46d64)" d="M 520.23845 864.158022 
C 526.212882 864.158022 531.943421 861.784355 536.167983 857.559793 
C 540.392544 853.335232 542.766211 847.604693 542.766211 841.630261 
C 542.766211 835.655829 540.392544 829.92529 536.167983 825.700729 
C 531.943421 821.476167 526.212882 819.1025 520.23845 819.1025 
C 514.264018 819.1025 508.533479 821.476167 504.308918 825.700729 
C 500.084357 829.92529 497.71069 835.655829 497.71069 841.630261 
C 497.71069 847.604693 500.084357 853.335232 504.308918 857.559793 
C 508.533479 861.784355 514.264018 864.158022 520.23845 864.158022 
z
" style="fill:#808080;fill-opacity:0.298039;stroke:#000000;"/>
    <path clip-path="url(#pc8a2a46d64)" d="M 895.482078 524.539318 
C 901.455038 524.539318 907.184165 522.166236 911.407686 517.942715 
C 915.631207 513.719194 918.004289 507.990067 918.004289 502.017107 
C 918.004289 496.044146 915.631207 490.315019 911.407686 486.091498 
C 907.184165 481.867978 901.455038 479.494895 895.482078 479.494895 
C 889.509118 479.494895 883.77999 481.867978 879.556469 486.091498 
C 875.332949 490.315019 872.959866 496.044146 872.959866 502.017107 
C 872.959866 507.990067 875.332949 513.719194 879.556469 517.942715 
C 883.77999 522.166236 889.509118 524.539318 895.482078 524.539318 
z
" style="fill:#808080;fill-opacity:0.298039;stroke:#000000;"/>
    <path clip-path="url(#pc8a2a46d64)" d="M 587.139864 305.481528 
C 593.106933 305.481528 598.830411 303.110787 603.049766 298.891431 
C 607.269122 294.672076 609.639864 288.948598 609.639864 282.981528 
C 609.639864 277.014459 607.269122 271.290981 603.049766 267.071626 
C 598.830411 262.85227 593.106933 260.481528 587.139864 260.481528 
C 581.172794 260.481528 575.449316 262.85227 571.229961 267.071626 
C 567.010606 271.290981 564.639864 277.014459 564.639864 282.981528 
C 564.639864 288.948598 567.010606 294.672076 571.229961 298.891431 
C 575.449316 303.110787 581.172794 305.481528 587.139864 305.481528 
z
" style="fill:#808080;fill-opacity:0.298039;stroke:#000000;"/>
    <path clip-path="url(#pc8a2a46d64)" d="M 450.929479 914.011197 
C 456.902439 914.011197 462.631566 911.638114 466.855087 907.414594 
C 471.078608 903.191073 473.45169 897.461946 473.45169 891.488985 
C 473.45169 885.516025 471.078608 879.786898 466.855087 875.563377 
C 462.631566 871.339856 456.902439 868.966774 450.929479 868.966774 
C 444.956518 868.966774 439.227391 871.339856 435.00387 875.563377 
C 430.78035 879.786898 428.407267 885.516025 428.407267 891.488985 
C 428.407267 897.461946 430.78035 903.191073 435.00387 907.414594 
C 439.227391 911.638114 444.956518 914.011197 450.929479 914.011197 
z
" style="fill:#808080;fill-opacity:0.298039;stroke:#000000;"/>
    <path clip-path="url(#pc8a2a46d64)" d="M 297.89957 448.471999 
C 303.871058 448.471999 309.598773 446.099501 313.821253 441.877022 
C 318.043733 437.654542 320.41623 431.926826 320.41623 425.955338 
C 320.41623 419.98385 318.043733 414.256135 313.821253 410.033655 
C 309.598773 405.811175 303.871058 403.438678 297.89957 403.438678 
C 291.928082 403.438678 286.200366 405.811175 281.977887 410.033655 
C 277.755407 414.256135 275.382909 419.98385 275.382909 425.955338 
C 275.382909 431.926826 277.755407 437.654542 281.977887 441.877022 
C 286.200366 446.099501 291.928082 448.471999 297.89957 448.471999 
z
" style="fill:#808080;fill-opacity:0.298039;stroke:#000000;"/>
    <path clip-path="url(#pc8a2a46d64)" d="M 244.111194 522.223162 
C 250.084154 522.223162 255.813282 519.85008 260.036802 515.626559 
C 264.260323 511.403039 266.633405 505.673911 266.633405 499.700951 
C 266.633405 493.727991 264.260323 487.998863 260.036802 483.775343 
C 255.813282 479.551822 250.084154 477.17874 244.111194 477.17874 
C 238.138234 477.17874 232.409106 479.551822 228.185586 483.775343 
C 223.962065 487.998863 221.588983 493.727991 221.588983 499.700951 
C 221.588983 505.673911 223.962065 511.403039 228.185586 515.626559 
C 232.409106 519.85008 238.138234 522.223162 244.111194 522.223162 
z
" style="fill:#808080;fill-opacity:0.298039;stroke:#000000;"/>
    <path clip-path="url(#pc8a2a46d64)" d="M 305.33629 361.82013 
C 311.306306 361.82013 317.032609 359.448218 321.254048 355.226779 
C 325.475486 351.00534 327.847398 345.279037 327.847398 339.309022 
C 327.847398 333.339006 325.475486 327.612703 321.254048 323.391264 
C 317.032609 319.169826 311.306306 316.797913 305.33629 316.797913 
C 299.366274 316.797913 293.639971 319.169826 289.418533 323.391264 
C 285.197094 327.612703 282.825182 333.339006 282.825182 339.309022 
C 282.825182 345.279037 285.197094 351.00534 289.418533 355.226779 
C 293.639971 359.448218 299.366274 361.82013 305.33629 361.82013 
z
" style="fill:#808080;fill-opacity:0.298039;stroke:#000000;"/>
    <path clip-path="url(#pc8a2a46d64)" d="M 193.19733 551.645584 
C 198.241421 551.645584 203.079598 549.641546 206.646308 546.074835 
C 210.213019 542.508125 212.217057 537.669948 212.217057 532.625858 
C 212.217057 527.581767 210.213019 522.743591 206.646308 519.17688 
C 203.079598 515.610169 198.241421 513.606131 193.19733 513.606131 
C 188.15324 513.606131 183.315063 515.610169 179.748353 519.17688 
C 176.181642 522.743591 174.177604 527.581767 174.177604 532.625858 
C 174.177604 537.669948 176.181642 542.508125 179.748353 546.074835 
C 183.315063 549.641546 188.15324 551.645584 193.19733 551.645584 
z
" style="fill:#fc0002;stroke:#000000;"/>
    <path clip-path="url(#pc8a2a46d64)" d="M 318.166246 280.259089 
C 324.134789 280.259089 329.859679 277.887762 334.080076 273.667365 
C 338.300473 269.446968 340.671801 263.722077 340.671801 257.753535 
C 340.671801 251.784992 338.300473 246.060101 334.080076 241.839704 
C 329.859679 237.619307 324.134789 235.24798 318.166246 235.24798 
C 312.197703 235.24798 306.472812 237.619307 302.252415 241.839704 
C 298.032018 246.060101 295.660691 251.784992 295.660691 257.753535 
C 295.660691 263.722077 298.032018 269.446968 302.252415 273.667365 
C 306.472812 277.887762 312.197703 280.259089 318.166246 280.259089 
z
" style="fill:#808080;fill-opacity:0.298039;stroke:#000000;"/>
    <path clip-path="url(#pc8a2a46d64)" d="M 415.183206 189.169191 
C 421.151749 189.169191 426.876639 186.797864 431.097036 182.577467 
C 435.317433 178.35707 437.688761 172.632179 437.688761 166.663636 
C 437.688761 160.695093 435.317433 154.970203 431.097036 150.749806 
C 426.876639 146.529409 421.151749 144.158081 415.183206 144.158081 
C 409.214663 144.158081 403.489772 146.529409 399.269375 150.749806 
C 395.048978 154.970203 392.677651 160.695093 392.677651 166.663636 
C 392.677651 172.632179 395.048978 178.35707 399.269375 182.577467 
C 403.489772 186.797864 409.214663 189.169191 415.183206 189.169191 
z
" style="fill:#808080;fill-opacity:0.298039;stroke:#000000;"/>
    <path clip-path="url(#pc8a2a46d64)" d="M 355.22578 216.618081 
C 361.195795 216.618081 366.922098 214.246169 371.143537 210.02473 
C 375.364976 205.803292 377.736888 200.076989 377.736888 194.106973 
C 377.736888 188.136957 375.364976 182.410654 371.143537 178.189216 
C 366.922098 173.967777 361.195795 171.595865 355.22578 171.595865 
C 349.255764 171.595865 343.529461 173.967777 339.308022 178.189216 
C 335.086584 182.410654 332.714671 188.136957 332.714671 194.106973 
C 332.714671 200.076989 335.086584 205.803292 339.308022 210.02473 
C 343.529461 214.246169 349.255764 216.618081 355.22578 216.618081 
z
" style="fill:#808080;fill-opacity:0.298039;stroke:#000000;"/>
    <path clip-path="url(#pc8a2a46d64)" d="M 529.196918 798.565357 
C 534.244493 798.565357 539.086012 796.559934 542.655187 792.99076 
C 546.224361 789.421585 548.229784 784.580066 548.229784 779.532491 
C 548.229784 774.484916 546.224361 769.643397 542.655187 766.074222 
C 539.086012 762.505047 534.244493 760.499625 529.196918 760.499625 
C 524.149343 760.499625 519.307824 762.505047 515.738649 766.074222 
C 512.169475 769.643397 510.164052 774.484916 510.164052 779.532491 
C 510.164052 784.580066 512.169475 789.421585 515.738649 792.99076 
C 519.307824 796.559934 524.149343 798.565357 529.196918 798.565357 
z
" style="fill:#fe0000;stroke:#000000;"/>
    <path clip-path="url(#pc8a2a46d64)" d="M 480.272743 204.991839 
C 486.242759 204.991839 491.969062 202.619927 496.190501 198.398488 
C 500.411939 194.17705 502.783852 188.450747 502.783852 182.480731 
C 502.783852 176.510715 500.411939 170.784412 496.190501 166.562974 
C 491.969062 162.341535 486.242759 159.969623 480.272743 159.969623 
C 474.302728 159.969623 468.576425 162.341535 464.354986 166.562974 
C 460.133547 170.784412 457.761635 176.510715 457.761635 182.480731 
C 457.761635 188.450747 460.133547 194.17705 464.354986 198.398488 
C 468.576425 202.619927 474.302728 204.991839 480.272743 204.991839 
z
" style="fill:#808080;fill-opacity:0.298039;stroke:#000000;"/>
    <path clip-path="url(#pc8a2a46d64)" d="M 933.954545 476.114502 
C 939.928977 476.114502 945.659516 473.740835 949.884078 469.516274 
C 954.108639 465.291712 956.482306 459.561173 956.482306 453.586741 
C 956.482306 447.61231 954.108639 441.881771 949.884078 437.657209 
C 945.659516 433.432648 939.928977 431.058981 933.954545 431.058981 
C 927.980113 431.058981 922.249574 433.432648 918.025013 437.657209 
C 913.800452 441.881771 911.426785 447.61231 911.426785 453.586741 
C 911.426785 459.561173 913.800452 465.291712 918.025013 469.516274 
C 922.249574 473.740835 927.980113 476.114502 933.954545 476.114502 
z
" style="fill:#808080;fill-opacity:0.298039;stroke:#000000;"/>
    <path clip-path="url(#pc8a2a46d64)" d="M 537.733466 249.110796 
C 543.699062 249.110796 549.421126 246.74064 553.639439 242.522326 
C 557.857753 238.304013 560.227909 232.581949 560.227909 226.616352 
C 560.227909 220.650756 557.857753 214.928692 553.639439 210.710379 
C 549.421126 206.492065 543.699062 204.121909 537.733466 204.121909 
C 531.767869 204.121909 526.045805 206.492065 521.827492 210.710379 
C 517.609178 214.928692 515.239022 220.650756 515.239022 226.616352 
C 515.239022 232.581949 517.609178 238.304013 521.827492 242.522326 
C 526.045805 246.74064 531.767869 249.110796 537.733466 249.110796 
z
" style="fill:#808080;fill-opacity:0.298039;stroke:#000000;"/>
   </g>
   <g id="patch_3">
    <path d="M 135 945 
L 135 129.6 
" style="fill:none;stroke:#000000;stroke-linecap:square;stroke-linejoin:miter;stroke-width:0.8;"/>
   </g>
   <g id="patch_4">
    <path d="M 972 945 
L 972 129.6 
" style="fill:none;stroke:#000000;stroke-linecap:square;stroke-linejoin:miter;stroke-width:0.8;"/>
   </g>
   <g id="patch_5">
    <path d="M 135 945 
L 972 945 
" style="fill:none;stroke:#000000;stroke-linecap:square;stroke-linejoin:miter;stroke-width:0.8;"/>
   </g>
   <g id="patch_6">
    <path d="M 135 129.6 
L 972 129.6 
" style="fill:none;stroke:#000000;stroke-linecap:square;stroke-linejoin:miter;stroke-width:0.8;"/>
   </g>
  </g>
 </g>
 <defs>
  <clipPath id="pc8a2a46d64">
   <rect height="815.4" width="837" x="135" y="129.6"/>
  </clipPath>
 </defs>
</svg>
