<?xml version="1.0" encoding="utf-8" standalone="no"?>
<!DOCTYPE svg PUBLIC "-//W3C//DTD SVG 1.1//EN"
  "http://www.w3.org/Graphics/SVG/1.1/DTD/svg11.dtd">
<!-- Created with matplotlib (https://matplotlib.org/) -->
<svg height="345.6pt" version="1.1" viewBox="0 0 460.8 345.6" width="460.8pt" xmlns="http://www.w3.org/2000/svg" xmlns:xlink="http://www.w3.org/1999/xlink">
 <metadata>
  <rdf:RDF xmlns:cc="http://creativecommons.org/ns#" xmlns:dc="http://purl.org/dc/elements/1.1/" xmlns:rdf="http://www.w3.org/1999/02/22-rdf-syntax-ns#">
   <cc:Work>
    <dc:type rdf:resource="http://purl.org/dc/dcmitype/StillImage"/>
    <dc:date>2022-02-02T12:30:12.690424</dc:date>
    <dc:format>image/svg+xml</dc:format>
    <dc:creator>
     <cc:Agent>
      <dc:title>Matplotlib v3.3.4, https://matplotlib.org/</dc:title>
     </cc:Agent>
    </dc:creator>
   </cc:Work>
  </rdf:RDF>
 </metadata>
 <defs>
  <style type="text/css">*{stroke-linecap:butt;stroke-linejoin:round;}</style>
 </defs>
 <g id="figure_1">
  <g id="patch_1">
   <path d="M 0 345.6 
L 460.8 345.6 
L 460.8 0 
L 0 0 
z
" style="fill:#ffffff;"/>
  </g>
  <g id="axes_1">
   <g id="patch_2">
    <path d="M 57.6 307.584 
L 414.72 307.584 
L 414.72 41.472 
L 57.6 41.472 
z
" style="fill:#ffffff;"/>
   </g>
   <g id="patch_3">
    <path clip-path="url(#pb81f67126e)" d="M 150.961193 307.584 
L 158.033367 307.584 
L 158.033367 300.608587 
L 150.961193 300.608587 
z
" style="fill:#2f79b5;"/>
   </g>
   <g id="patch_4">
    <path clip-path="url(#pb81f67126e)" d="M 158.033367 307.584 
L 165.105541 307.584 
L 165.105541 302.933725 
L 158.033367 302.933725 
z
" style="fill:#2f79b5;"/>
   </g>
   <g id="patch_5">
    <path clip-path="url(#pb81f67126e)" d="M 165.105541 307.584 
L 172.177714 307.584 
L 172.177714 307.584 
L 165.105541 307.584 
z
" style="fill:#2f79b5;"/>
   </g>
   <g id="patch_6">
    <path clip-path="url(#pb81f67126e)" d="M 172.177714 307.584 
L 179.249888 307.584 
L 179.249888 307.584 
L 172.177714 307.584 
z
" style="fill:#2f79b5;"/>
   </g>
   <g id="patch_7">
    <path clip-path="url(#pb81f67126e)" d="M 179.249888 307.584 
L 186.322062 307.584 
L 186.322062 305.258862 
L 179.249888 305.258862 
z
" style="fill:#2f79b5;"/>
   </g>
   <g id="patch_8">
    <path clip-path="url(#pb81f67126e)" d="M 186.322062 307.584 
L 193.394235 307.584 
L 193.394235 307.584 
L 186.322062 307.584 
z
" style="fill:#2f79b5;"/>
   </g>
   <g id="patch_9">
    <path clip-path="url(#pb81f67126e)" d="M 193.394235 307.584 
L 200.466409 307.584 
L 200.466409 307.584 
L 193.394235 307.584 
z
" style="fill:#2f79b5;"/>
   </g>
   <g id="patch_10">
    <path clip-path="url(#pb81f67126e)" d="M 200.466409 307.584 
L 207.538583 307.584 
L 207.538583 307.584 
L 200.466409 307.584 
z
" style="fill:#2f79b5;"/>
   </g>
   <g id="patch_11">
    <path clip-path="url(#pb81f67126e)" d="M 207.538583 307.584 
L 214.610757 307.584 
L 214.610757 307.584 
L 207.538583 307.584 
z
" style="fill:#2f79b5;"/>
   </g>
   <g id="patch_12">
    <path clip-path="url(#pb81f67126e)" d="M 214.610757 307.584 
L 221.68293 307.584 
L 221.68293 307.584 
L 214.610757 307.584 
z
" style="fill:#2f79b5;"/>
   </g>
   <g id="patch_13">
    <path clip-path="url(#pb81f67126e)" d="M 221.68293 307.584 
L 228.755104 307.584 
L 228.755104 307.584 
L 221.68293 307.584 
z
" style="fill:#2f79b5;"/>
   </g>
   <g id="patch_14">
    <path clip-path="url(#pb81f67126e)" d="M 228.755104 307.584 
L 235.827278 307.584 
L 235.827278 307.584 
L 228.755104 307.584 
z
" style="fill:#2f79b5;"/>
   </g>
   <g id="patch_15">
    <path clip-path="url(#pb81f67126e)" d="M 235.827278 307.584 
L 242.899451 307.584 
L 242.899451 307.584 
L 235.827278 307.584 
z
" style="fill:#2f79b5;"/>
   </g>
   <g id="patch_16">
    <path clip-path="url(#pb81f67126e)" d="M 242.899451 307.584 
L 249.971625 307.584 
L 249.971625 307.584 
L 242.899451 307.584 
z
" style="fill:#2f79b5;"/>
   </g>
   <g id="patch_17">
    <path clip-path="url(#pb81f67126e)" d="M 249.971625 307.584 
L 257.043799 307.584 
L 257.043799 307.584 
L 249.971625 307.584 
z
" style="fill:#2f79b5;"/>
   </g>
   <g id="patch_18">
    <path clip-path="url(#pb81f67126e)" d="M 257.043799 307.584 
L 264.115972 307.584 
L 264.115972 307.584 
L 257.043799 307.584 
z
" style="fill:#2f79b5;"/>
   </g>
   <g id="patch_19">
    <path clip-path="url(#pb81f67126e)" d="M 264.115972 307.584 
L 271.188146 307.584 
L 271.188146 307.584 
L 264.115972 307.584 
z
" style="fill:#2f79b5;"/>
   </g>
   <g id="patch_20">
    <path clip-path="url(#pb81f67126e)" d="M 271.188146 307.584 
L 278.26032 307.584 
L 278.26032 307.584 
L 271.188146 307.584 
z
" style="fill:#2f79b5;"/>
   </g>
   <g id="patch_21">
    <path clip-path="url(#pb81f67126e)" d="M 278.26032 307.584 
L 285.332494 307.584 
L 285.332494 307.584 
L 278.26032 307.584 
z
" style="fill:#2f79b5;"/>
   </g>
   <g id="patch_22">
    <path clip-path="url(#pb81f67126e)" d="M 285.332494 307.584 
L 292.404667 307.584 
L 292.404667 307.584 
L 285.332494 307.584 
z
" style="fill:#2f79b5;"/>
   </g>
   <g id="patch_23">
    <path clip-path="url(#pb81f67126e)" d="M 292.404667 307.584 
L 299.476841 307.584 
L 299.476841 307.584 
L 292.404667 307.584 
z
" style="fill:#2f79b5;"/>
   </g>
   <g id="patch_24">
    <path clip-path="url(#pb81f67126e)" d="M 299.476841 307.584 
L 306.549015 307.584 
L 306.549015 307.584 
L 299.476841 307.584 
z
" style="fill:#2f79b5;"/>
   </g>
   <g id="patch_25">
    <path clip-path="url(#pb81f67126e)" d="M 306.549015 307.584 
L 313.621188 307.584 
L 313.621188 307.584 
L 306.549015 307.584 
z
" style="fill:#2f79b5;"/>
   </g>
   <g id="patch_26">
    <path clip-path="url(#pb81f67126e)" d="M 313.621188 307.584 
L 320.693362 307.584 
L 320.693362 307.584 
L 313.621188 307.584 
z
" style="fill:#2f79b5;"/>
   </g>
   <g id="patch_27">
    <path clip-path="url(#pb81f67126e)" d="M 320.693362 307.584 
L 327.765536 307.584 
L 327.765536 307.584 
L 320.693362 307.584 
z
" style="fill:#2f79b5;"/>
   </g>
   <g id="patch_28">
    <path clip-path="url(#pb81f67126e)" d="M 327.765536 307.584 
L 334.837709 307.584 
L 334.837709 307.584 
L 327.765536 307.584 
z
" style="fill:#2f79b5;"/>
   </g>
   <g id="patch_29">
    <path clip-path="url(#pb81f67126e)" d="M 334.837709 307.584 
L 341.909883 307.584 
L 341.909883 302.933725 
L 334.837709 302.933725 
z
" style="fill:#2f79b5;"/>
   </g>
   <g id="patch_30">
    <path clip-path="url(#pb81f67126e)" d="M 341.909883 307.584 
L 348.982057 307.584 
L 348.982057 295.958312 
L 341.909883 295.958312 
z
" style="fill:#2f79b5;"/>
   </g>
   <g id="patch_31">
    <path clip-path="url(#pb81f67126e)" d="M 348.982057 307.584 
L 356.054231 307.584 
L 356.054231 295.958312 
L 348.982057 295.958312 
z
" style="fill:#2f79b5;"/>
   </g>
   <g id="patch_32">
    <path clip-path="url(#pb81f67126e)" d="M 356.054231 307.584 
L 363.126404 307.584 
L 363.126404 261.081248 
L 356.054231 261.081248 
z
" style="fill:#2f79b5;"/>
   </g>
   <g id="patch_33">
    <path clip-path="url(#pb81f67126e)" d="M 363.126404 307.584 
L 370.198578 307.584 
L 370.198578 186.676844 
L 363.126404 186.676844 
z
" style="fill:#2f79b5;"/>
   </g>
   <g id="patch_34">
    <path clip-path="url(#pb81f67126e)" d="M 370.198578 307.584 
L 377.270752 307.584 
L 377.270752 98.321615 
L 370.198578 98.321615 
z
" style="fill:#2f79b5;"/>
   </g>
   <g id="patch_35">
    <path clip-path="url(#pb81f67126e)" d="M 377.270752 307.584 
L 384.342925 307.584 
L 384.342925 54.144 
L 377.270752 54.144 
z
" style="fill:#2f79b5;"/>
   </g>
   <g id="patch_36">
    <path clip-path="url(#pb81f67126e)" d="M 384.342925 307.584 
L 391.415099 307.584 
L 391.415099 128.548404 
L 384.342925 128.548404 
z
" style="fill:#2f79b5;"/>
   </g>
   <g id="patch_37">
    <path clip-path="url(#pb81f67126e)" d="M 391.415099 307.584 
L 398.487273 307.584 
L 398.487273 268.056661 
L 391.415099 268.056661 
z
" style="fill:#2f79b5;"/>
   </g>
   <g id="patch_38">
    <path clip-path="url(#pb81f67126e)" d="M 73.832727 307.584 
L 78.512465 307.584 
L 78.512465 305.258862 
L 73.832727 305.258862 
z
" style="fill:#c13639;"/>
   </g>
   <g id="patch_39">
    <path clip-path="url(#pb81f67126e)" d="M 78.512465 307.584 
L 83.192204 307.584 
L 83.192204 305.258862 
L 78.512465 305.258862 
z
" style="fill:#c13639;"/>
   </g>
   <g id="patch_40">
    <path clip-path="url(#pb81f67126e)" d="M 83.192204 307.584 
L 87.871942 307.584 
L 87.871942 307.584 
L 83.192204 307.584 
z
" style="fill:#c13639;"/>
   </g>
   <g id="patch_41">
    <path clip-path="url(#pb81f67126e)" d="M 87.871942 307.584 
L 92.55168 307.584 
L 92.55168 307.584 
L 87.871942 307.584 
z
" style="fill:#c13639;"/>
   </g>
   <g id="patch_42">
    <path clip-path="url(#pb81f67126e)" d="M 92.55168 307.584 
L 97.231418 307.584 
L 97.231418 307.584 
L 92.55168 307.584 
z
" style="fill:#c13639;"/>
   </g>
   <g id="patch_43">
    <path clip-path="url(#pb81f67126e)" d="M 97.231418 307.584 
L 101.911156 307.584 
L 101.911156 307.584 
L 97.231418 307.584 
z
" style="fill:#c13639;"/>
   </g>
   <g id="patch_44">
    <path clip-path="url(#pb81f67126e)" d="M 101.911156 307.584 
L 106.590894 307.584 
L 106.590894 302.933725 
L 101.911156 302.933725 
z
" style="fill:#c13639;"/>
   </g>
   <g id="patch_45">
    <path clip-path="url(#pb81f67126e)" d="M 106.590894 307.584 
L 111.270632 307.584 
L 111.270632 307.584 
L 106.590894 307.584 
z
" style="fill:#c13639;"/>
   </g>
   <g id="patch_46">
    <path clip-path="url(#pb81f67126e)" d="M 111.270632 307.584 
L 115.95037 307.584 
L 115.95037 307.584 
L 111.270632 307.584 
z
" style="fill:#c13639;"/>
   </g>
   <g id="patch_47">
    <path clip-path="url(#pb81f67126e)" d="M 115.95037 307.584 
L 120.630109 307.584 
L 120.630109 295.958312 
L 115.95037 295.958312 
z
" style="fill:#c13639;"/>
   </g>
   <g id="patch_48">
    <path clip-path="url(#pb81f67126e)" d="M 120.630109 307.584 
L 125.309847 307.584 
L 125.309847 261.081248 
L 120.630109 261.081248 
z
" style="fill:#c13639;"/>
   </g>
   <g id="patch_49">
    <path clip-path="url(#pb81f67126e)" d="M 125.309847 307.584 
L 129.989585 307.584 
L 129.989585 256.430972 
L 125.309847 256.430972 
z
" style="fill:#c13639;"/>
   </g>
   <g id="patch_50">
    <path clip-path="url(#pb81f67126e)" d="M 129.989585 307.584 
L 134.669323 307.584 
L 134.669323 265.731523 
L 129.989585 265.731523 
z
" style="fill:#c13639;"/>
   </g>
   <g id="patch_51">
    <path clip-path="url(#pb81f67126e)" d="M 134.669323 307.584 
L 139.349061 307.584 
L 139.349061 251.780697 
L 134.669323 251.780697 
z
" style="fill:#c13639;"/>
   </g>
   <g id="patch_52">
    <path clip-path="url(#pb81f67126e)" d="M 139.349061 307.584 
L 144.028799 307.584 
L 144.028799 219.228771 
L 139.349061 219.228771 
z
" style="fill:#c13639;"/>
   </g>
   <g id="patch_53">
    <path clip-path="url(#pb81f67126e)" d="M 144.028799 307.584 
L 148.708537 307.584 
L 148.708537 233.179596 
L 144.028799 233.179596 
z
" style="fill:#c13639;"/>
   </g>
   <g id="patch_54">
    <path clip-path="url(#pb81f67126e)" d="M 148.708537 307.584 
L 153.388275 307.584 
L 153.388275 256.430972 
L 148.708537 256.430972 
z
" style="fill:#c13639;"/>
   </g>
   <g id="patch_55">
    <path clip-path="url(#pb81f67126e)" d="M 153.388275 307.584 
L 158.068014 307.584 
L 158.068014 251.780697 
L 153.388275 251.780697 
z
" style="fill:#c13639;"/>
   </g>
   <g id="patch_56">
    <path clip-path="url(#pb81f67126e)" d="M 158.068014 307.584 
L 162.747752 307.584 
L 162.747752 258.75611 
L 158.068014 258.75611 
z
" style="fill:#c13639;"/>
   </g>
   <g id="patch_57">
    <path clip-path="url(#pb81f67126e)" d="M 162.747752 307.584 
L 167.42749 307.584 
L 167.42749 288.982899 
L 162.747752 288.982899 
z
" style="fill:#c13639;"/>
   </g>
   <g id="patch_58">
    <path clip-path="url(#pb81f67126e)" d="M 167.42749 307.584 
L 172.107228 307.584 
L 172.107228 293.633174 
L 167.42749 293.633174 
z
" style="fill:#c13639;"/>
   </g>
   <g id="patch_59">
    <path clip-path="url(#pb81f67126e)" d="M 172.107228 307.584 
L 176.786966 307.584 
L 176.786966 295.958312 
L 172.107228 295.958312 
z
" style="fill:#c13639;"/>
   </g>
   <g id="patch_60">
    <path clip-path="url(#pb81f67126e)" d="M 176.786966 307.584 
L 181.466704 307.584 
L 181.466704 295.958312 
L 176.786966 295.958312 
z
" style="fill:#c13639;"/>
   </g>
   <g id="patch_61">
    <path clip-path="url(#pb81f67126e)" d="M 181.466704 307.584 
L 186.146442 307.584 
L 186.146442 286.657761 
L 181.466704 286.657761 
z
" style="fill:#c13639;"/>
   </g>
   <g id="patch_62">
    <path clip-path="url(#pb81f67126e)" d="M 186.146442 307.584 
L 190.826181 307.584 
L 190.826181 300.608587 
L 186.146442 300.608587 
z
" style="fill:#c13639;"/>
   </g>
   <g id="patch_63">
    <path clip-path="url(#pb81f67126e)" d="M 190.826181 307.584 
L 195.505919 307.584 
L 195.505919 302.933725 
L 190.826181 302.933725 
z
" style="fill:#c13639;"/>
   </g>
   <g id="patch_64">
    <path clip-path="url(#pb81f67126e)" d="M 195.505919 307.584 
L 200.185657 307.584 
L 200.185657 307.584 
L 195.505919 307.584 
z
" style="fill:#c13639;"/>
   </g>
   <g id="patch_65">
    <path clip-path="url(#pb81f67126e)" d="M 200.185657 307.584 
L 204.865395 307.584 
L 204.865395 298.28345 
L 200.185657 298.28345 
z
" style="fill:#c13639;"/>
   </g>
   <g id="patch_66">
    <path clip-path="url(#pb81f67126e)" d="M 204.865395 307.584 
L 209.545133 307.584 
L 209.545133 305.258862 
L 204.865395 305.258862 
z
" style="fill:#c13639;"/>
   </g>
   <g id="patch_67">
    <path clip-path="url(#pb81f67126e)" d="M 209.545133 307.584 
L 214.224871 307.584 
L 214.224871 305.258862 
L 209.545133 305.258862 
z
" style="fill:#c13639;"/>
   </g>
   <g id="patch_68">
    <path clip-path="url(#pb81f67126e)" d="M 214.224871 307.584 
L 218.904609 307.584 
L 218.904609 300.608587 
L 214.224871 300.608587 
z
" style="fill:#c13639;"/>
   </g>
   <g id="patch_69">
    <path clip-path="url(#pb81f67126e)" d="M 218.904609 307.584 
L 223.584347 307.584 
L 223.584347 300.608587 
L 218.904609 300.608587 
z
" style="fill:#c13639;"/>
   </g>
   <g id="patch_70">
    <path clip-path="url(#pb81f67126e)" d="M 223.584347 307.584 
L 228.264086 307.584 
L 228.264086 305.258862 
L 223.584347 305.258862 
z
" style="fill:#c13639;"/>
   </g>
   <g id="patch_71">
    <path clip-path="url(#pb81f67126e)" d="M 228.264086 307.584 
L 232.943824 307.584 
L 232.943824 300.608587 
L 228.264086 300.608587 
z
" style="fill:#c13639;"/>
   </g>
   <g id="patch_72">
    <path clip-path="url(#pb81f67126e)" d="M 232.943824 307.584 
L 237.623562 307.584 
L 237.623562 305.258862 
L 232.943824 305.258862 
z
" style="fill:#c13639;"/>
   </g>
   <g id="matplotlib.axis_1">
    <g id="xtick_1">
     <g id="line2d_1">
      <defs>
       <path d="M 0 0 
L 0 -3.5 
" id="md19791bb9f" style="stroke:#000000;stroke-width:0.8;"/>
      </defs>
      <g>
       <use style="stroke:#000000;stroke-width:0.8;" x="87.497385" xlink:href="#md19791bb9f" y="307.584"/>
      </g>
     </g>
     <g id="text_1">
      <!-- −60 -->
      <g transform="translate(72.724103 321.721812)scale(0.14 -0.14)">
       <defs>
        <path d="M 10.59375 35.5 
L 73.1875 35.5 
L 73.1875 27.203125 
L 10.59375 27.203125 
z
" id="DejaVuSans-8722"/>
        <path d="M 33.015625 40.375 
Q 26.375 40.375 22.484375 35.828125 
Q 18.609375 31.296875 18.609375 23.390625 
Q 18.609375 15.53125 22.484375 10.953125 
Q 26.375 6.390625 33.015625 6.390625 
Q 39.65625 6.390625 43.53125 10.953125 
Q 47.40625 15.53125 47.40625 23.390625 
Q 47.40625 31.296875 43.53125 35.828125 
Q 39.65625 40.375 33.015625 40.375 
z
M 52.59375 71.296875 
L 52.59375 62.3125 
Q 48.875 64.0625 45.09375 64.984375 
Q 41.3125 65.921875 37.59375 65.921875 
Q 27.828125 65.921875 22.671875 59.328125 
Q 17.53125 52.734375 16.796875 39.40625 
Q 19.671875 43.65625 24.015625 45.921875 
Q 28.375 48.1875 33.59375 48.1875 
Q 44.578125 48.1875 50.953125 41.515625 
Q 57.328125 34.859375 57.328125 23.390625 
Q 57.328125 12.15625 50.6875 5.359375 
Q 44.046875 -1.421875 33.015625 -1.421875 
Q 20.359375 -1.421875 13.671875 8.265625 
Q 6.984375 17.96875 6.984375 36.375 
Q 6.984375 53.65625 15.1875 63.9375 
Q 23.390625 74.21875 37.203125 74.21875 
Q 40.921875 74.21875 44.703125 73.484375 
Q 48.484375 72.75 52.59375 71.296875 
z
" id="DejaVuSans-54"/>
        <path d="M 31.78125 66.40625 
Q 24.171875 66.40625 20.328125 58.90625 
Q 16.5 51.421875 16.5 36.375 
Q 16.5 21.390625 20.328125 13.890625 
Q 24.171875 6.390625 31.78125 6.390625 
Q 39.453125 6.390625 43.28125 13.890625 
Q 47.125 21.390625 47.125 36.375 
Q 47.125 51.421875 43.28125 58.90625 
Q 39.453125 66.40625 31.78125 66.40625 
z
M 31.78125 74.21875 
Q 44.046875 74.21875 50.515625 64.515625 
Q 56.984375 54.828125 56.984375 36.375 
Q 56.984375 17.96875 50.515625 8.265625 
Q 44.046875 -1.421875 31.78125 -1.421875 
Q 19.53125 -1.421875 13.0625 8.265625 
Q 6.59375 17.96875 6.59375 36.375 
Q 6.59375 54.828125 13.0625 64.515625 
Q 19.53125 74.21875 31.78125 74.21875 
z
" id="DejaVuSans-48"/>
       </defs>
       <use xlink:href="#DejaVuSans-8722"/>
       <use x="83.789062" xlink:href="#DejaVuSans-54"/>
       <use x="147.412109" xlink:href="#DejaVuSans-48"/>
      </g>
     </g>
    </g>
    <g id="xtick_2">
     <g id="line2d_2">
      <g>
       <use style="stroke:#000000;stroke-width:0.8;" x="135.577639" xlink:href="#md19791bb9f" y="307.584"/>
      </g>
     </g>
     <g id="text_2">
      <!-- −50 -->
      <g transform="translate(120.804357 321.721812)scale(0.14 -0.14)">
       <defs>
        <path d="M 10.796875 72.90625 
L 49.515625 72.90625 
L 49.515625 64.59375 
L 19.828125 64.59375 
L 19.828125 46.734375 
Q 21.96875 47.46875 24.109375 47.828125 
Q 26.265625 48.1875 28.421875 48.1875 
Q 40.625 48.1875 47.75 41.5 
Q 54.890625 34.8125 54.890625 23.390625 
Q 54.890625 11.625 47.5625 5.09375 
Q 40.234375 -1.421875 26.90625 -1.421875 
Q 22.3125 -1.421875 17.546875 -0.640625 
Q 12.796875 0.140625 7.71875 1.703125 
L 7.71875 11.625 
Q 12.109375 9.234375 16.796875 8.0625 
Q 21.484375 6.890625 26.703125 6.890625 
Q 35.15625 6.890625 40.078125 11.328125 
Q 45.015625 15.765625 45.015625 23.390625 
Q 45.015625 31 40.078125 35.4375 
Q 35.15625 39.890625 26.703125 39.890625 
Q 22.75 39.890625 18.8125 39.015625 
Q 14.890625 38.140625 10.796875 36.28125 
z
" id="DejaVuSans-53"/>
       </defs>
       <use xlink:href="#DejaVuSans-8722"/>
       <use x="83.789062" xlink:href="#DejaVuSans-53"/>
       <use x="147.412109" xlink:href="#DejaVuSans-48"/>
      </g>
     </g>
    </g>
    <g id="xtick_3">
     <g id="line2d_3">
      <g>
       <use style="stroke:#000000;stroke-width:0.8;" x="183.657893" xlink:href="#md19791bb9f" y="307.584"/>
      </g>
     </g>
     <g id="text_3">
      <!-- −40 -->
      <g transform="translate(168.884611 321.721812)scale(0.14 -0.14)">
       <defs>
        <path d="M 37.796875 64.3125 
L 12.890625 25.390625 
L 37.796875 25.390625 
z
M 35.203125 72.90625 
L 47.609375 72.90625 
L 47.609375 25.390625 
L 58.015625 25.390625 
L 58.015625 17.1875 
L 47.609375 17.1875 
L 47.609375 0 
L 37.796875 0 
L 37.796875 17.1875 
L 4.890625 17.1875 
L 4.890625 26.703125 
z
" id="DejaVuSans-52"/>
       </defs>
       <use xlink:href="#DejaVuSans-8722"/>
       <use x="83.789062" xlink:href="#DejaVuSans-52"/>
       <use x="147.412109" xlink:href="#DejaVuSans-48"/>
      </g>
     </g>
    </g>
    <g id="xtick_4">
     <g id="line2d_4">
      <g>
       <use style="stroke:#000000;stroke-width:0.8;" x="231.738147" xlink:href="#md19791bb9f" y="307.584"/>
      </g>
     </g>
     <g id="text_4">
      <!-- −30 -->
      <g transform="translate(216.964865 321.721812)scale(0.14 -0.14)">
       <defs>
        <path d="M 40.578125 39.3125 
Q 47.65625 37.796875 51.625 33 
Q 55.609375 28.21875 55.609375 21.1875 
Q 55.609375 10.40625 48.1875 4.484375 
Q 40.765625 -1.421875 27.09375 -1.421875 
Q 22.515625 -1.421875 17.65625 -0.515625 
Q 12.796875 0.390625 7.625 2.203125 
L 7.625 11.71875 
Q 11.71875 9.328125 16.59375 8.109375 
Q 21.484375 6.890625 26.8125 6.890625 
Q 36.078125 6.890625 40.9375 10.546875 
Q 45.796875 14.203125 45.796875 21.1875 
Q 45.796875 27.640625 41.28125 31.265625 
Q 36.765625 34.90625 28.71875 34.90625 
L 20.21875 34.90625 
L 20.21875 43.015625 
L 29.109375 43.015625 
Q 36.375 43.015625 40.234375 45.921875 
Q 44.09375 48.828125 44.09375 54.296875 
Q 44.09375 59.90625 40.109375 62.90625 
Q 36.140625 65.921875 28.71875 65.921875 
Q 24.65625 65.921875 20.015625 65.03125 
Q 15.375 64.15625 9.8125 62.3125 
L 9.8125 71.09375 
Q 15.4375 72.65625 20.34375 73.4375 
Q 25.25 74.21875 29.59375 74.21875 
Q 40.828125 74.21875 47.359375 69.109375 
Q 53.90625 64.015625 53.90625 55.328125 
Q 53.90625 49.265625 50.4375 45.09375 
Q 46.96875 40.921875 40.578125 39.3125 
z
" id="DejaVuSans-51"/>
       </defs>
       <use xlink:href="#DejaVuSans-8722"/>
       <use x="83.789062" xlink:href="#DejaVuSans-51"/>
       <use x="147.412109" xlink:href="#DejaVuSans-48"/>
      </g>
     </g>
    </g>
    <g id="xtick_5">
     <g id="line2d_5">
      <g>
       <use style="stroke:#000000;stroke-width:0.8;" x="279.818401" xlink:href="#md19791bb9f" y="307.584"/>
      </g>
     </g>
     <g id="text_5">
      <!-- −20 -->
      <g transform="translate(265.04512 321.721812)scale(0.14 -0.14)">
       <defs>
        <path d="M 19.1875 8.296875 
L 53.609375 8.296875 
L 53.609375 0 
L 7.328125 0 
L 7.328125 8.296875 
Q 12.9375 14.109375 22.625 23.890625 
Q 32.328125 33.6875 34.8125 36.53125 
Q 39.546875 41.84375 41.421875 45.53125 
Q 43.3125 49.21875 43.3125 52.78125 
Q 43.3125 58.59375 39.234375 62.25 
Q 35.15625 65.921875 28.609375 65.921875 
Q 23.96875 65.921875 18.8125 64.3125 
Q 13.671875 62.703125 7.8125 59.421875 
L 7.8125 69.390625 
Q 13.765625 71.78125 18.9375 73 
Q 24.125 74.21875 28.421875 74.21875 
Q 39.75 74.21875 46.484375 68.546875 
Q 53.21875 62.890625 53.21875 53.421875 
Q 53.21875 48.921875 51.53125 44.890625 
Q 49.859375 40.875 45.40625 35.40625 
Q 44.1875 33.984375 37.640625 27.21875 
Q 31.109375 20.453125 19.1875 8.296875 
z
" id="DejaVuSans-50"/>
       </defs>
       <use xlink:href="#DejaVuSans-8722"/>
       <use x="83.789062" xlink:href="#DejaVuSans-50"/>
       <use x="147.412109" xlink:href="#DejaVuSans-48"/>
      </g>
     </g>
    </g>
    <g id="xtick_6">
     <g id="line2d_6">
      <g>
       <use style="stroke:#000000;stroke-width:0.8;" x="327.898655" xlink:href="#md19791bb9f" y="307.584"/>
      </g>
     </g>
     <g id="text_6">
      <!-- −10 -->
      <g transform="translate(313.125374 321.721812)scale(0.14 -0.14)">
       <defs>
        <path d="M 12.40625 8.296875 
L 28.515625 8.296875 
L 28.515625 63.921875 
L 10.984375 60.40625 
L 10.984375 69.390625 
L 28.421875 72.90625 
L 38.28125 72.90625 
L 38.28125 8.296875 
L 54.390625 8.296875 
L 54.390625 0 
L 12.40625 0 
z
" id="DejaVuSans-49"/>
       </defs>
       <use xlink:href="#DejaVuSans-8722"/>
       <use x="83.789062" xlink:href="#DejaVuSans-49"/>
       <use x="147.412109" xlink:href="#DejaVuSans-48"/>
      </g>
     </g>
    </g>
    <g id="xtick_7">
     <g id="line2d_7">
      <g>
       <use style="stroke:#000000;stroke-width:0.8;" x="375.978909" xlink:href="#md19791bb9f" y="307.584"/>
      </g>
     </g>
     <g id="text_7">
      <!-- 0 -->
      <g transform="translate(371.525159 321.721812)scale(0.14 -0.14)">
       <use xlink:href="#DejaVuSans-48"/>
      </g>
     </g>
    </g>
    <g id="xtick_8">
     <g id="line2d_8">
      <defs>
       <path d="M 0 0 
L 0 -2 
" id="mbb45acb394" style="stroke:#000000;stroke-width:0.6;"/>
      </defs>
      <g>
       <use style="stroke:#000000;stroke-width:0.6;" x="58.649232" xlink:href="#mbb45acb394" y="307.584"/>
      </g>
     </g>
    </g>
    <g id="xtick_9">
     <g id="line2d_9">
      <g>
       <use style="stroke:#000000;stroke-width:0.6;" x="68.265283" xlink:href="#mbb45acb394" y="307.584"/>
      </g>
     </g>
    </g>
    <g id="xtick_10">
     <g id="line2d_10">
      <g>
       <use style="stroke:#000000;stroke-width:0.6;" x="77.881334" xlink:href="#mbb45acb394" y="307.584"/>
      </g>
     </g>
    </g>
    <g id="xtick_11">
     <g id="line2d_11">
      <g>
       <use style="stroke:#000000;stroke-width:0.6;" x="97.113435" xlink:href="#mbb45acb394" y="307.584"/>
      </g>
     </g>
    </g>
    <g id="xtick_12">
     <g id="line2d_12">
      <g>
       <use style="stroke:#000000;stroke-width:0.6;" x="106.729486" xlink:href="#mbb45acb394" y="307.584"/>
      </g>
     </g>
    </g>
    <g id="xtick_13">
     <g id="line2d_13">
      <g>
       <use style="stroke:#000000;stroke-width:0.6;" x="116.345537" xlink:href="#mbb45acb394" y="307.584"/>
      </g>
     </g>
    </g>
    <g id="xtick_14">
     <g id="line2d_14">
      <g>
       <use style="stroke:#000000;stroke-width:0.6;" x="125.961588" xlink:href="#mbb45acb394" y="307.584"/>
      </g>
     </g>
    </g>
    <g id="xtick_15">
     <g id="line2d_15">
      <g>
       <use style="stroke:#000000;stroke-width:0.6;" x="145.193689" xlink:href="#mbb45acb394" y="307.584"/>
      </g>
     </g>
    </g>
    <g id="xtick_16">
     <g id="line2d_16">
      <g>
       <use style="stroke:#000000;stroke-width:0.6;" x="154.80974" xlink:href="#mbb45acb394" y="307.584"/>
      </g>
     </g>
    </g>
    <g id="xtick_17">
     <g id="line2d_17">
      <g>
       <use style="stroke:#000000;stroke-width:0.6;" x="164.425791" xlink:href="#mbb45acb394" y="307.584"/>
      </g>
     </g>
    </g>
    <g id="xtick_18">
     <g id="line2d_18">
      <g>
       <use style="stroke:#000000;stroke-width:0.6;" x="174.041842" xlink:href="#mbb45acb394" y="307.584"/>
      </g>
     </g>
    </g>
    <g id="xtick_19">
     <g id="line2d_19">
      <g>
       <use style="stroke:#000000;stroke-width:0.6;" x="193.273943" xlink:href="#mbb45acb394" y="307.584"/>
      </g>
     </g>
    </g>
    <g id="xtick_20">
     <g id="line2d_20">
      <g>
       <use style="stroke:#000000;stroke-width:0.6;" x="202.889994" xlink:href="#mbb45acb394" y="307.584"/>
      </g>
     </g>
    </g>
    <g id="xtick_21">
     <g id="line2d_21">
      <g>
       <use style="stroke:#000000;stroke-width:0.6;" x="212.506045" xlink:href="#mbb45acb394" y="307.584"/>
      </g>
     </g>
    </g>
    <g id="xtick_22">
     <g id="line2d_22">
      <g>
       <use style="stroke:#000000;stroke-width:0.6;" x="222.122096" xlink:href="#mbb45acb394" y="307.584"/>
      </g>
     </g>
    </g>
    <g id="xtick_23">
     <g id="line2d_23">
      <g>
       <use style="stroke:#000000;stroke-width:0.6;" x="241.354198" xlink:href="#mbb45acb394" y="307.584"/>
      </g>
     </g>
    </g>
    <g id="xtick_24">
     <g id="line2d_24">
      <g>
       <use style="stroke:#000000;stroke-width:0.6;" x="250.970248" xlink:href="#mbb45acb394" y="307.584"/>
      </g>
     </g>
    </g>
    <g id="xtick_25">
     <g id="line2d_25">
      <g>
       <use style="stroke:#000000;stroke-width:0.6;" x="260.586299" xlink:href="#mbb45acb394" y="307.584"/>
      </g>
     </g>
    </g>
    <g id="xtick_26">
     <g id="line2d_26">
      <g>
       <use style="stroke:#000000;stroke-width:0.6;" x="270.20235" xlink:href="#mbb45acb394" y="307.584"/>
      </g>
     </g>
    </g>
    <g id="xtick_27">
     <g id="line2d_27">
      <g>
       <use style="stroke:#000000;stroke-width:0.6;" x="289.434452" xlink:href="#mbb45acb394" y="307.584"/>
      </g>
     </g>
    </g>
    <g id="xtick_28">
     <g id="line2d_28">
      <g>
       <use style="stroke:#000000;stroke-width:0.6;" x="299.050502" xlink:href="#mbb45acb394" y="307.584"/>
      </g>
     </g>
    </g>
    <g id="xtick_29">
     <g id="line2d_29">
      <g>
       <use style="stroke:#000000;stroke-width:0.6;" x="308.666553" xlink:href="#mbb45acb394" y="307.584"/>
      </g>
     </g>
    </g>
    <g id="xtick_30">
     <g id="line2d_30">
      <g>
       <use style="stroke:#000000;stroke-width:0.6;" x="318.282604" xlink:href="#mbb45acb394" y="307.584"/>
      </g>
     </g>
    </g>
    <g id="xtick_31">
     <g id="line2d_31">
      <g>
       <use style="stroke:#000000;stroke-width:0.6;" x="337.514706" xlink:href="#mbb45acb394" y="307.584"/>
      </g>
     </g>
    </g>
    <g id="xtick_32">
     <g id="line2d_32">
      <g>
       <use style="stroke:#000000;stroke-width:0.6;" x="347.130756" xlink:href="#mbb45acb394" y="307.584"/>
      </g>
     </g>
    </g>
    <g id="xtick_33">
     <g id="line2d_33">
      <g>
       <use style="stroke:#000000;stroke-width:0.6;" x="356.746807" xlink:href="#mbb45acb394" y="307.584"/>
      </g>
     </g>
    </g>
    <g id="xtick_34">
     <g id="line2d_34">
      <g>
       <use style="stroke:#000000;stroke-width:0.6;" x="366.362858" xlink:href="#mbb45acb394" y="307.584"/>
      </g>
     </g>
    </g>
    <g id="xtick_35">
     <g id="line2d_35">
      <g>
       <use style="stroke:#000000;stroke-width:0.6;" x="385.59496" xlink:href="#mbb45acb394" y="307.584"/>
      </g>
     </g>
    </g>
    <g id="xtick_36">
     <g id="line2d_36">
      <g>
       <use style="stroke:#000000;stroke-width:0.6;" x="395.21101" xlink:href="#mbb45acb394" y="307.584"/>
      </g>
     </g>
    </g>
    <g id="xtick_37">
     <g id="line2d_37">
      <g>
       <use style="stroke:#000000;stroke-width:0.6;" x="404.827061" xlink:href="#mbb45acb394" y="307.584"/>
      </g>
     </g>
    </g>
    <g id="xtick_38">
     <g id="line2d_38">
      <g>
       <use style="stroke:#000000;stroke-width:0.6;" x="414.443112" xlink:href="#mbb45acb394" y="307.584"/>
      </g>
     </g>
    </g>
    <g id="text_8">
     <!-- iModulon activities -->
     <g transform="translate(170.8 340.085875)scale(0.16 -0.16)">
      <defs>
       <path d="M 6.640625 61.46875 
L 6.640625 71.578125 
L 15.4375 71.578125 
L 15.4375 61.46875 
z
M 6.640625 0 
L 6.640625 51.859375 
L 15.4375 51.859375 
L 15.4375 0 
z
" id="ArialMT-105"/>
       <path d="M 7.421875 0 
L 7.421875 71.578125 
L 21.6875 71.578125 
L 38.625 20.90625 
Q 40.96875 13.8125 42.046875 10.296875 
Q 43.265625 14.203125 45.84375 21.78125 
L 62.984375 71.578125 
L 75.734375 71.578125 
L 75.734375 0 
L 66.609375 0 
L 66.609375 59.90625 
L 45.796875 0 
L 37.25 0 
L 16.546875 60.9375 
L 16.546875 0 
z
" id="ArialMT-77"/>
       <path d="M 3.328125 25.921875 
Q 3.328125 40.328125 11.328125 47.265625 
Q 18.015625 53.03125 27.640625 53.03125 
Q 38.328125 53.03125 45.109375 46.015625 
Q 51.90625 39.015625 51.90625 26.65625 
Q 51.90625 16.65625 48.90625 10.90625 
Q 45.90625 5.171875 40.15625 2 
Q 34.421875 -1.171875 27.640625 -1.171875 
Q 16.75 -1.171875 10.03125 5.8125 
Q 3.328125 12.796875 3.328125 25.921875 
z
M 12.359375 25.921875 
Q 12.359375 15.96875 16.703125 11.015625 
Q 21.046875 6.0625 27.640625 6.0625 
Q 34.1875 6.0625 38.53125 11.03125 
Q 42.875 16.015625 42.875 26.21875 
Q 42.875 35.84375 38.5 40.796875 
Q 34.125 45.75 27.640625 45.75 
Q 21.046875 45.75 16.703125 40.8125 
Q 12.359375 35.890625 12.359375 25.921875 
z
" id="ArialMT-111"/>
       <path d="M 40.234375 0 
L 40.234375 6.546875 
Q 35.296875 -1.171875 25.734375 -1.171875 
Q 19.53125 -1.171875 14.328125 2.25 
Q 9.125 5.671875 6.265625 11.796875 
Q 3.421875 17.921875 3.421875 25.875 
Q 3.421875 33.640625 6 39.96875 
Q 8.59375 46.296875 13.765625 49.65625 
Q 18.953125 53.03125 25.34375 53.03125 
Q 30.03125 53.03125 33.6875 51.046875 
Q 37.359375 49.078125 39.65625 45.90625 
L 39.65625 71.578125 
L 48.390625 71.578125 
L 48.390625 0 
z
M 12.453125 25.875 
Q 12.453125 15.921875 16.640625 10.984375 
Q 20.84375 6.0625 26.5625 6.0625 
Q 32.328125 6.0625 36.34375 10.765625 
Q 40.375 15.484375 40.375 25.140625 
Q 40.375 35.796875 36.265625 40.765625 
Q 32.171875 45.75 26.171875 45.75 
Q 20.3125 45.75 16.375 40.96875 
Q 12.453125 36.1875 12.453125 25.875 
z
" id="ArialMT-100"/>
       <path d="M 40.578125 0 
L 40.578125 7.625 
Q 34.515625 -1.171875 24.125 -1.171875 
Q 19.53125 -1.171875 15.546875 0.578125 
Q 11.578125 2.34375 9.640625 5 
Q 7.71875 7.671875 6.9375 11.53125 
Q 6.390625 14.109375 6.390625 19.734375 
L 6.390625 51.859375 
L 15.1875 51.859375 
L 15.1875 23.09375 
Q 15.1875 16.21875 15.71875 13.8125 
Q 16.546875 10.359375 19.234375 8.375 
Q 21.921875 6.390625 25.875 6.390625 
Q 29.828125 6.390625 33.296875 8.421875 
Q 36.765625 10.453125 38.203125 13.9375 
Q 39.65625 17.4375 39.65625 24.078125 
L 39.65625 51.859375 
L 48.4375 51.859375 
L 48.4375 0 
z
" id="ArialMT-117"/>
       <path d="M 6.390625 0 
L 6.390625 71.578125 
L 15.1875 71.578125 
L 15.1875 0 
z
" id="ArialMT-108"/>
       <path d="M 6.59375 0 
L 6.59375 51.859375 
L 14.5 51.859375 
L 14.5 44.484375 
Q 20.21875 53.03125 31 53.03125 
Q 35.6875 53.03125 39.625 51.34375 
Q 43.5625 49.65625 45.515625 46.921875 
Q 47.46875 44.1875 48.25 40.4375 
Q 48.734375 37.984375 48.734375 31.890625 
L 48.734375 0 
L 39.9375 0 
L 39.9375 31.546875 
Q 39.9375 36.921875 38.90625 39.578125 
Q 37.890625 42.234375 35.28125 43.8125 
Q 32.671875 45.40625 29.15625 45.40625 
Q 23.53125 45.40625 19.453125 41.84375 
Q 15.375 38.28125 15.375 28.328125 
L 15.375 0 
z
" id="ArialMT-110"/>
       <path id="ArialMT-32"/>
       <path d="M 40.4375 6.390625 
Q 35.546875 2.25 31.03125 0.53125 
Q 26.515625 -1.171875 21.34375 -1.171875 
Q 12.796875 -1.171875 8.203125 3 
Q 3.609375 7.171875 3.609375 13.671875 
Q 3.609375 17.484375 5.34375 20.625 
Q 7.078125 23.78125 9.890625 25.6875 
Q 12.703125 27.59375 16.21875 28.5625 
Q 18.796875 29.25 24.03125 29.890625 
Q 34.671875 31.15625 39.703125 32.90625 
Q 39.75 34.71875 39.75 35.203125 
Q 39.75 40.578125 37.25 42.78125 
Q 33.890625 45.75 27.25 45.75 
Q 21.046875 45.75 18.09375 43.578125 
Q 15.140625 41.40625 13.71875 35.890625 
L 5.125 37.0625 
Q 6.296875 42.578125 8.984375 45.96875 
Q 11.671875 49.359375 16.75 51.1875 
Q 21.828125 53.03125 28.515625 53.03125 
Q 35.15625 53.03125 39.296875 51.46875 
Q 43.453125 49.90625 45.40625 47.53125 
Q 47.359375 45.171875 48.140625 41.546875 
Q 48.578125 39.3125 48.578125 33.453125 
L 48.578125 21.734375 
Q 48.578125 9.46875 49.140625 6.21875 
Q 49.703125 2.984375 51.375 0 
L 42.1875 0 
Q 40.828125 2.734375 40.4375 6.390625 
z
M 39.703125 26.03125 
Q 34.90625 24.078125 25.34375 22.703125 
Q 19.921875 21.921875 17.671875 20.9375 
Q 15.4375 19.96875 14.203125 18.09375 
Q 12.984375 16.21875 12.984375 13.921875 
Q 12.984375 10.40625 15.640625 8.0625 
Q 18.3125 5.71875 23.4375 5.71875 
Q 28.515625 5.71875 32.46875 7.9375 
Q 36.421875 10.15625 38.28125 14.015625 
Q 39.703125 17 39.703125 22.796875 
z
" id="ArialMT-97"/>
       <path d="M 40.4375 19 
L 49.078125 17.875 
Q 47.65625 8.9375 41.8125 3.875 
Q 35.984375 -1.171875 27.484375 -1.171875 
Q 16.84375 -1.171875 10.375 5.78125 
Q 3.90625 12.75 3.90625 25.734375 
Q 3.90625 34.125 6.6875 40.421875 
Q 9.46875 46.734375 15.15625 49.875 
Q 20.84375 53.03125 27.546875 53.03125 
Q 35.984375 53.03125 41.359375 48.75 
Q 46.734375 44.484375 48.25 36.625 
L 39.703125 35.296875 
Q 38.484375 40.53125 35.375 43.15625 
Q 32.28125 45.796875 27.875 45.796875 
Q 21.234375 45.796875 17.078125 41.03125 
Q 12.9375 36.28125 12.9375 25.984375 
Q 12.9375 15.53125 16.9375 10.796875 
Q 20.953125 6.0625 27.390625 6.0625 
Q 32.5625 6.0625 36.03125 9.234375 
Q 39.5 12.40625 40.4375 19 
z
" id="ArialMT-99"/>
       <path d="M 25.78125 7.859375 
L 27.046875 0.09375 
Q 23.34375 -0.6875 20.40625 -0.6875 
Q 15.625 -0.6875 12.984375 0.828125 
Q 10.359375 2.34375 9.28125 4.8125 
Q 8.203125 7.28125 8.203125 15.1875 
L 8.203125 45.015625 
L 1.765625 45.015625 
L 1.765625 51.859375 
L 8.203125 51.859375 
L 8.203125 64.703125 
L 16.9375 69.96875 
L 16.9375 51.859375 
L 25.78125 51.859375 
L 25.78125 45.015625 
L 16.9375 45.015625 
L 16.9375 14.703125 
Q 16.9375 10.9375 17.40625 9.859375 
Q 17.875 8.796875 18.921875 8.15625 
Q 19.96875 7.515625 21.921875 7.515625 
Q 23.390625 7.515625 25.78125 7.859375 
z
" id="ArialMT-116"/>
       <path d="M 21 0 
L 1.265625 51.859375 
L 10.546875 51.859375 
L 21.6875 20.796875 
Q 23.484375 15.765625 25 10.359375 
Q 26.171875 14.453125 28.265625 20.21875 
L 39.796875 51.859375 
L 48.828125 51.859375 
L 29.203125 0 
z
" id="ArialMT-118"/>
       <path d="M 42.09375 16.703125 
L 51.171875 15.578125 
Q 49.03125 7.625 43.21875 3.21875 
Q 37.40625 -1.171875 28.375 -1.171875 
Q 17 -1.171875 10.328125 5.828125 
Q 3.65625 12.84375 3.65625 25.484375 
Q 3.65625 38.578125 10.390625 45.796875 
Q 17.140625 53.03125 27.875 53.03125 
Q 38.28125 53.03125 44.875 45.953125 
Q 51.46875 38.875 51.46875 26.03125 
Q 51.46875 25.25 51.421875 23.6875 
L 12.75 23.6875 
Q 13.234375 15.140625 17.578125 10.59375 
Q 21.921875 6.0625 28.421875 6.0625 
Q 33.25 6.0625 36.671875 8.59375 
Q 40.09375 11.140625 42.09375 16.703125 
z
M 13.234375 30.90625 
L 42.1875 30.90625 
Q 41.609375 37.453125 38.875 40.71875 
Q 34.671875 45.796875 27.984375 45.796875 
Q 21.921875 45.796875 17.796875 41.75 
Q 13.671875 37.703125 13.234375 30.90625 
z
" id="ArialMT-101"/>
       <path d="M 3.078125 15.484375 
L 11.765625 16.84375 
Q 12.5 11.625 15.84375 8.84375 
Q 19.1875 6.0625 25.203125 6.0625 
Q 31.25 6.0625 34.171875 8.515625 
Q 37.109375 10.984375 37.109375 14.3125 
Q 37.109375 17.28125 34.515625 19 
Q 32.71875 20.171875 25.53125 21.96875 
Q 15.875 24.421875 12.140625 26.203125 
Q 8.40625 27.984375 6.46875 31.125 
Q 4.546875 34.28125 4.546875 38.09375 
Q 4.546875 41.546875 6.125 44.5 
Q 7.71875 47.46875 10.453125 49.421875 
Q 12.5 50.921875 16.03125 51.96875 
Q 19.578125 53.03125 23.640625 53.03125 
Q 29.734375 53.03125 34.34375 51.265625 
Q 38.96875 49.515625 41.15625 46.5 
Q 43.359375 43.5 44.1875 38.484375 
L 35.59375 37.3125 
Q 35.015625 41.3125 32.203125 43.546875 
Q 29.390625 45.796875 24.265625 45.796875 
Q 18.21875 45.796875 15.625 43.796875 
Q 13.03125 41.796875 13.03125 39.109375 
Q 13.03125 37.40625 14.109375 36.03125 
Q 15.1875 34.625 17.484375 33.6875 
Q 18.796875 33.203125 25.25 31.453125 
Q 34.578125 28.953125 38.25 27.359375 
Q 41.9375 25.78125 44.03125 22.75 
Q 46.140625 19.734375 46.140625 15.234375 
Q 46.140625 10.84375 43.578125 6.953125 
Q 41.015625 3.078125 36.171875 0.953125 
Q 31.34375 -1.171875 25.25 -1.171875 
Q 15.140625 -1.171875 9.84375 3.03125 
Q 4.546875 7.234375 3.078125 15.484375 
z
" id="ArialMT-115"/>
      </defs>
      <use xlink:href="#ArialMT-105"/>
      <use x="22.216797" xlink:href="#ArialMT-77"/>
      <use x="105.517578" xlink:href="#ArialMT-111"/>
      <use x="161.132812" xlink:href="#ArialMT-100"/>
      <use x="216.748047" xlink:href="#ArialMT-117"/>
      <use x="272.363281" xlink:href="#ArialMT-108"/>
      <use x="294.580078" xlink:href="#ArialMT-111"/>
      <use x="350.195312" xlink:href="#ArialMT-110"/>
      <use x="405.810547" xlink:href="#ArialMT-32"/>
      <use x="433.59375" xlink:href="#ArialMT-97"/>
      <use x="489.208984" xlink:href="#ArialMT-99"/>
      <use x="539.208984" xlink:href="#ArialMT-116"/>
      <use x="566.992188" xlink:href="#ArialMT-105"/>
      <use x="589.208984" xlink:href="#ArialMT-118"/>
      <use x="639.208984" xlink:href="#ArialMT-105"/>
      <use x="661.425781" xlink:href="#ArialMT-116"/>
      <use x="689.208984" xlink:href="#ArialMT-105"/>
      <use x="711.425781" xlink:href="#ArialMT-101"/>
      <use x="767.041016" xlink:href="#ArialMT-115"/>
     </g>
    </g>
   </g>
   <g id="matplotlib.axis_2">
    <g id="ytick_1">
     <g id="line2d_39">
      <defs>
       <path d="M 0 0 
L 3.5 0 
" id="m2d20ee13eb" style="stroke:#000000;stroke-width:0.8;"/>
      </defs>
      <g>
       <use style="stroke:#000000;stroke-width:0.8;" x="57.6" xlink:href="#m2d20ee13eb" y="307.584"/>
      </g>
     </g>
     <g id="text_9">
      <!-- 0 -->
      <g transform="translate(45.1925 312.902906)scale(0.14 -0.14)">
       <use xlink:href="#DejaVuSans-48"/>
      </g>
     </g>
    </g>
    <g id="ytick_2">
     <g id="line2d_40">
      <g>
       <use style="stroke:#000000;stroke-width:0.8;" x="57.6" xlink:href="#m2d20ee13eb" y="261.081248"/>
      </g>
     </g>
     <g id="text_10">
      <!-- 20 -->
      <g transform="translate(36.285 266.400154)scale(0.14 -0.14)">
       <use xlink:href="#DejaVuSans-50"/>
       <use x="63.623047" xlink:href="#DejaVuSans-48"/>
      </g>
     </g>
    </g>
    <g id="ytick_3">
     <g id="line2d_41">
      <g>
       <use style="stroke:#000000;stroke-width:0.8;" x="57.6" xlink:href="#m2d20ee13eb" y="214.578495"/>
      </g>
     </g>
     <g id="text_11">
      <!-- 40 -->
      <g transform="translate(36.285 219.897402)scale(0.14 -0.14)">
       <use xlink:href="#DejaVuSans-52"/>
       <use x="63.623047" xlink:href="#DejaVuSans-48"/>
      </g>
     </g>
    </g>
    <g id="ytick_4">
     <g id="line2d_42">
      <g>
       <use style="stroke:#000000;stroke-width:0.8;" x="57.6" xlink:href="#m2d20ee13eb" y="168.075743"/>
      </g>
     </g>
     <g id="text_12">
      <!-- 60 -->
      <g transform="translate(36.285 173.394649)scale(0.14 -0.14)">
       <use xlink:href="#DejaVuSans-54"/>
       <use x="63.623047" xlink:href="#DejaVuSans-48"/>
      </g>
     </g>
    </g>
    <g id="ytick_5">
     <g id="line2d_43">
      <g>
       <use style="stroke:#000000;stroke-width:0.8;" x="57.6" xlink:href="#m2d20ee13eb" y="121.572991"/>
      </g>
     </g>
     <g id="text_13">
      <!-- 80 -->
      <g transform="translate(36.285 126.891897)scale(0.14 -0.14)">
       <defs>
        <path d="M 31.78125 34.625 
Q 24.75 34.625 20.71875 30.859375 
Q 16.703125 27.09375 16.703125 20.515625 
Q 16.703125 13.921875 20.71875 10.15625 
Q 24.75 6.390625 31.78125 6.390625 
Q 38.8125 6.390625 42.859375 10.171875 
Q 46.921875 13.96875 46.921875 20.515625 
Q 46.921875 27.09375 42.890625 30.859375 
Q 38.875 34.625 31.78125 34.625 
z
M 21.921875 38.8125 
Q 15.578125 40.375 12.03125 44.71875 
Q 8.5 49.078125 8.5 55.328125 
Q 8.5 64.0625 14.71875 69.140625 
Q 20.953125 74.21875 31.78125 74.21875 
Q 42.671875 74.21875 48.875 69.140625 
Q 55.078125 64.0625 55.078125 55.328125 
Q 55.078125 49.078125 51.53125 44.71875 
Q 48 40.375 41.703125 38.8125 
Q 48.828125 37.15625 52.796875 32.3125 
Q 56.78125 27.484375 56.78125 20.515625 
Q 56.78125 9.90625 50.3125 4.234375 
Q 43.84375 -1.421875 31.78125 -1.421875 
Q 19.734375 -1.421875 13.25 4.234375 
Q 6.78125 9.90625 6.78125 20.515625 
Q 6.78125 27.484375 10.78125 32.3125 
Q 14.796875 37.15625 21.921875 38.8125 
z
M 18.3125 54.390625 
Q 18.3125 48.734375 21.84375 45.5625 
Q 25.390625 42.390625 31.78125 42.390625 
Q 38.140625 42.390625 41.71875 45.5625 
Q 45.3125 48.734375 45.3125 54.390625 
Q 45.3125 60.0625 41.71875 63.234375 
Q 38.140625 66.40625 31.78125 66.40625 
Q 25.390625 66.40625 21.84375 63.234375 
Q 18.3125 60.0625 18.3125 54.390625 
z
" id="DejaVuSans-56"/>
       </defs>
       <use xlink:href="#DejaVuSans-56"/>
       <use x="63.623047" xlink:href="#DejaVuSans-48"/>
      </g>
     </g>
    </g>
    <g id="ytick_6">
     <g id="line2d_44">
      <g>
       <use style="stroke:#000000;stroke-width:0.8;" x="57.6" xlink:href="#m2d20ee13eb" y="75.070239"/>
      </g>
     </g>
     <g id="text_14">
      <!-- 100 -->
      <g transform="translate(27.3775 80.389145)scale(0.14 -0.14)">
       <use xlink:href="#DejaVuSans-49"/>
       <use x="63.623047" xlink:href="#DejaVuSans-48"/>
       <use x="127.246094" xlink:href="#DejaVuSans-48"/>
      </g>
     </g>
    </g>
    <g id="ytick_7">
     <g id="line2d_45">
      <defs>
       <path d="M 0 0 
L 2 0 
" id="ma7e219d359" style="stroke:#000000;stroke-width:0.6;"/>
      </defs>
      <g>
       <use style="stroke:#000000;stroke-width:0.6;" x="57.6" xlink:href="#ma7e219d359" y="302.933725"/>
      </g>
     </g>
    </g>
    <g id="ytick_8">
     <g id="line2d_46">
      <g>
       <use style="stroke:#000000;stroke-width:0.6;" x="57.6" xlink:href="#ma7e219d359" y="298.28345"/>
      </g>
     </g>
    </g>
    <g id="ytick_9">
     <g id="line2d_47">
      <g>
       <use style="stroke:#000000;stroke-width:0.6;" x="57.6" xlink:href="#ma7e219d359" y="293.633174"/>
      </g>
     </g>
    </g>
    <g id="ytick_10">
     <g id="line2d_48">
      <g>
       <use style="stroke:#000000;stroke-width:0.6;" x="57.6" xlink:href="#ma7e219d359" y="288.982899"/>
      </g>
     </g>
    </g>
    <g id="ytick_11">
     <g id="line2d_49">
      <g>
       <use style="stroke:#000000;stroke-width:0.6;" x="57.6" xlink:href="#ma7e219d359" y="284.332624"/>
      </g>
     </g>
    </g>
    <g id="ytick_12">
     <g id="line2d_50">
      <g>
       <use style="stroke:#000000;stroke-width:0.6;" x="57.6" xlink:href="#ma7e219d359" y="279.682349"/>
      </g>
     </g>
    </g>
    <g id="ytick_13">
     <g id="line2d_51">
      <g>
       <use style="stroke:#000000;stroke-width:0.6;" x="57.6" xlink:href="#ma7e219d359" y="275.032073"/>
      </g>
     </g>
    </g>
    <g id="ytick_14">
     <g id="line2d_52">
      <g>
       <use style="stroke:#000000;stroke-width:0.6;" x="57.6" xlink:href="#ma7e219d359" y="270.381798"/>
      </g>
     </g>
    </g>
    <g id="ytick_15">
     <g id="line2d_53">
      <g>
       <use style="stroke:#000000;stroke-width:0.6;" x="57.6" xlink:href="#ma7e219d359" y="265.731523"/>
      </g>
     </g>
    </g>
    <g id="ytick_16">
     <g id="line2d_54">
      <g>
       <use style="stroke:#000000;stroke-width:0.6;" x="57.6" xlink:href="#ma7e219d359" y="256.430972"/>
      </g>
     </g>
    </g>
    <g id="ytick_17">
     <g id="line2d_55">
      <g>
       <use style="stroke:#000000;stroke-width:0.6;" x="57.6" xlink:href="#ma7e219d359" y="251.780697"/>
      </g>
     </g>
    </g>
    <g id="ytick_18">
     <g id="line2d_56">
      <g>
       <use style="stroke:#000000;stroke-width:0.6;" x="57.6" xlink:href="#ma7e219d359" y="247.130422"/>
      </g>
     </g>
    </g>
    <g id="ytick_19">
     <g id="line2d_57">
      <g>
       <use style="stroke:#000000;stroke-width:0.6;" x="57.6" xlink:href="#ma7e219d359" y="242.480147"/>
      </g>
     </g>
    </g>
    <g id="ytick_20">
     <g id="line2d_58">
      <g>
       <use style="stroke:#000000;stroke-width:0.6;" x="57.6" xlink:href="#ma7e219d359" y="237.829872"/>
      </g>
     </g>
    </g>
    <g id="ytick_21">
     <g id="line2d_59">
      <g>
       <use style="stroke:#000000;stroke-width:0.6;" x="57.6" xlink:href="#ma7e219d359" y="233.179596"/>
      </g>
     </g>
    </g>
    <g id="ytick_22">
     <g id="line2d_60">
      <g>
       <use style="stroke:#000000;stroke-width:0.6;" x="57.6" xlink:href="#ma7e219d359" y="228.529321"/>
      </g>
     </g>
    </g>
    <g id="ytick_23">
     <g id="line2d_61">
      <g>
       <use style="stroke:#000000;stroke-width:0.6;" x="57.6" xlink:href="#ma7e219d359" y="223.879046"/>
      </g>
     </g>
    </g>
    <g id="ytick_24">
     <g id="line2d_62">
      <g>
       <use style="stroke:#000000;stroke-width:0.6;" x="57.6" xlink:href="#ma7e219d359" y="219.228771"/>
      </g>
     </g>
    </g>
    <g id="ytick_25">
     <g id="line2d_63">
      <g>
       <use style="stroke:#000000;stroke-width:0.6;" x="57.6" xlink:href="#ma7e219d359" y="209.92822"/>
      </g>
     </g>
    </g>
    <g id="ytick_26">
     <g id="line2d_64">
      <g>
       <use style="stroke:#000000;stroke-width:0.6;" x="57.6" xlink:href="#ma7e219d359" y="205.277945"/>
      </g>
     </g>
    </g>
    <g id="ytick_27">
     <g id="line2d_65">
      <g>
       <use style="stroke:#000000;stroke-width:0.6;" x="57.6" xlink:href="#ma7e219d359" y="200.62767"/>
      </g>
     </g>
    </g>
    <g id="ytick_28">
     <g id="line2d_66">
      <g>
       <use style="stroke:#000000;stroke-width:0.6;" x="57.6" xlink:href="#ma7e219d359" y="195.977394"/>
      </g>
     </g>
    </g>
    <g id="ytick_29">
     <g id="line2d_67">
      <g>
       <use style="stroke:#000000;stroke-width:0.6;" x="57.6" xlink:href="#ma7e219d359" y="191.327119"/>
      </g>
     </g>
    </g>
    <g id="ytick_30">
     <g id="line2d_68">
      <g>
       <use style="stroke:#000000;stroke-width:0.6;" x="57.6" xlink:href="#ma7e219d359" y="186.676844"/>
      </g>
     </g>
    </g>
    <g id="ytick_31">
     <g id="line2d_69">
      <g>
       <use style="stroke:#000000;stroke-width:0.6;" x="57.6" xlink:href="#ma7e219d359" y="182.026569"/>
      </g>
     </g>
    </g>
    <g id="ytick_32">
     <g id="line2d_70">
      <g>
       <use style="stroke:#000000;stroke-width:0.6;" x="57.6" xlink:href="#ma7e219d359" y="177.376294"/>
      </g>
     </g>
    </g>
    <g id="ytick_33">
     <g id="line2d_71">
      <g>
       <use style="stroke:#000000;stroke-width:0.6;" x="57.6" xlink:href="#ma7e219d359" y="172.726018"/>
      </g>
     </g>
    </g>
    <g id="ytick_34">
     <g id="line2d_72">
      <g>
       <use style="stroke:#000000;stroke-width:0.6;" x="57.6" xlink:href="#ma7e219d359" y="163.425468"/>
      </g>
     </g>
    </g>
    <g id="ytick_35">
     <g id="line2d_73">
      <g>
       <use style="stroke:#000000;stroke-width:0.6;" x="57.6" xlink:href="#ma7e219d359" y="158.775193"/>
      </g>
     </g>
    </g>
    <g id="ytick_36">
     <g id="line2d_74">
      <g>
       <use style="stroke:#000000;stroke-width:0.6;" x="57.6" xlink:href="#ma7e219d359" y="154.124917"/>
      </g>
     </g>
    </g>
    <g id="ytick_37">
     <g id="line2d_75">
      <g>
       <use style="stroke:#000000;stroke-width:0.6;" x="57.6" xlink:href="#ma7e219d359" y="149.474642"/>
      </g>
     </g>
    </g>
    <g id="ytick_38">
     <g id="line2d_76">
      <g>
       <use style="stroke:#000000;stroke-width:0.6;" x="57.6" xlink:href="#ma7e219d359" y="144.824367"/>
      </g>
     </g>
    </g>
    <g id="ytick_39">
     <g id="line2d_77">
      <g>
       <use style="stroke:#000000;stroke-width:0.6;" x="57.6" xlink:href="#ma7e219d359" y="140.174092"/>
      </g>
     </g>
    </g>
    <g id="ytick_40">
     <g id="line2d_78">
      <g>
       <use style="stroke:#000000;stroke-width:0.6;" x="57.6" xlink:href="#ma7e219d359" y="135.523817"/>
      </g>
     </g>
    </g>
    <g id="ytick_41">
     <g id="line2d_79">
      <g>
       <use style="stroke:#000000;stroke-width:0.6;" x="57.6" xlink:href="#ma7e219d359" y="130.873541"/>
      </g>
     </g>
    </g>
    <g id="ytick_42">
     <g id="line2d_80">
      <g>
       <use style="stroke:#000000;stroke-width:0.6;" x="57.6" xlink:href="#ma7e219d359" y="126.223266"/>
      </g>
     </g>
    </g>
    <g id="ytick_43">
     <g id="line2d_81">
      <g>
       <use style="stroke:#000000;stroke-width:0.6;" x="57.6" xlink:href="#ma7e219d359" y="116.922716"/>
      </g>
     </g>
    </g>
    <g id="ytick_44">
     <g id="line2d_82">
      <g>
       <use style="stroke:#000000;stroke-width:0.6;" x="57.6" xlink:href="#ma7e219d359" y="112.27244"/>
      </g>
     </g>
    </g>
    <g id="ytick_45">
     <g id="line2d_83">
      <g>
       <use style="stroke:#000000;stroke-width:0.6;" x="57.6" xlink:href="#ma7e219d359" y="107.622165"/>
      </g>
     </g>
    </g>
    <g id="ytick_46">
     <g id="line2d_84">
      <g>
       <use style="stroke:#000000;stroke-width:0.6;" x="57.6" xlink:href="#ma7e219d359" y="102.97189"/>
      </g>
     </g>
    </g>
    <g id="ytick_47">
     <g id="line2d_85">
      <g>
       <use style="stroke:#000000;stroke-width:0.6;" x="57.6" xlink:href="#ma7e219d359" y="98.321615"/>
      </g>
     </g>
    </g>
    <g id="ytick_48">
     <g id="line2d_86">
      <g>
       <use style="stroke:#000000;stroke-width:0.6;" x="57.6" xlink:href="#ma7e219d359" y="93.671339"/>
      </g>
     </g>
    </g>
    <g id="ytick_49">
     <g id="line2d_87">
      <g>
       <use style="stroke:#000000;stroke-width:0.6;" x="57.6" xlink:href="#ma7e219d359" y="89.021064"/>
      </g>
     </g>
    </g>
    <g id="ytick_50">
     <g id="line2d_88">
      <g>
       <use style="stroke:#000000;stroke-width:0.6;" x="57.6" xlink:href="#ma7e219d359" y="84.370789"/>
      </g>
     </g>
    </g>
    <g id="ytick_51">
     <g id="line2d_89">
      <g>
       <use style="stroke:#000000;stroke-width:0.6;" x="57.6" xlink:href="#ma7e219d359" y="79.720514"/>
      </g>
     </g>
    </g>
    <g id="ytick_52">
     <g id="line2d_90">
      <g>
       <use style="stroke:#000000;stroke-width:0.6;" x="57.6" xlink:href="#ma7e219d359" y="70.419963"/>
      </g>
     </g>
    </g>
    <g id="ytick_53">
     <g id="line2d_91">
      <g>
       <use style="stroke:#000000;stroke-width:0.6;" x="57.6" xlink:href="#ma7e219d359" y="65.769688"/>
      </g>
     </g>
    </g>
    <g id="ytick_54">
     <g id="line2d_92">
      <g>
       <use style="stroke:#000000;stroke-width:0.6;" x="57.6" xlink:href="#ma7e219d359" y="61.119413"/>
      </g>
     </g>
    </g>
    <g id="ytick_55">
     <g id="line2d_93">
      <g>
       <use style="stroke:#000000;stroke-width:0.6;" x="57.6" xlink:href="#ma7e219d359" y="56.469138"/>
      </g>
     </g>
    </g>
    <g id="ytick_56">
     <g id="line2d_94">
      <g>
       <use style="stroke:#000000;stroke-width:0.6;" x="57.6" xlink:href="#ma7e219d359" y="51.818862"/>
      </g>
     </g>
    </g>
    <g id="ytick_57">
     <g id="line2d_95">
      <g>
       <use style="stroke:#000000;stroke-width:0.6;" x="57.6" xlink:href="#ma7e219d359" y="47.168587"/>
      </g>
     </g>
    </g>
    <g id="ytick_58">
     <g id="line2d_96">
      <g>
       <use style="stroke:#000000;stroke-width:0.6;" x="57.6" xlink:href="#ma7e219d359" y="42.518312"/>
      </g>
     </g>
    </g>
    <g id="text_15">
     <!-- Number of samples -->
     <g transform="translate(20.1975 243.883)rotate(-90)scale(0.16 -0.16)">
      <defs>
       <path d="M 7.625 0 
L 7.625 71.578125 
L 17.328125 71.578125 
L 54.9375 15.375 
L 54.9375 71.578125 
L 64.015625 71.578125 
L 64.015625 0 
L 54.296875 0 
L 16.703125 56.25 
L 16.703125 0 
z
" id="ArialMT-78"/>
       <path d="M 6.59375 0 
L 6.59375 51.859375 
L 14.453125 51.859375 
L 14.453125 44.578125 
Q 16.890625 48.390625 20.9375 50.703125 
Q 25 53.03125 30.171875 53.03125 
Q 35.9375 53.03125 39.625 50.640625 
Q 43.3125 48.25 44.828125 43.953125 
Q 50.984375 53.03125 60.84375 53.03125 
Q 68.5625 53.03125 72.703125 48.75 
Q 76.859375 44.484375 76.859375 35.59375 
L 76.859375 0 
L 68.109375 0 
L 68.109375 32.671875 
Q 68.109375 37.9375 67.25 40.25 
Q 66.40625 42.578125 64.15625 43.984375 
Q 61.921875 45.40625 58.890625 45.40625 
Q 53.421875 45.40625 49.796875 41.765625 
Q 46.1875 38.140625 46.1875 30.125 
L 46.1875 0 
L 37.40625 0 
L 37.40625 33.6875 
Q 37.40625 39.546875 35.25 42.46875 
Q 33.109375 45.40625 28.21875 45.40625 
Q 24.515625 45.40625 21.359375 43.453125 
Q 18.21875 41.5 16.796875 37.734375 
Q 15.375 33.984375 15.375 26.90625 
L 15.375 0 
z
" id="ArialMT-109"/>
       <path d="M 14.703125 0 
L 6.546875 0 
L 6.546875 71.578125 
L 15.328125 71.578125 
L 15.328125 46.046875 
Q 20.90625 53.03125 29.546875 53.03125 
Q 34.328125 53.03125 38.59375 51.09375 
Q 42.875 49.171875 45.625 45.671875 
Q 48.390625 42.1875 49.953125 37.25 
Q 51.515625 32.328125 51.515625 26.703125 
Q 51.515625 13.375 44.921875 6.09375 
Q 38.328125 -1.171875 29.109375 -1.171875 
Q 19.921875 -1.171875 14.703125 6.5 
z
M 14.59375 26.3125 
Q 14.59375 17 17.140625 12.84375 
Q 21.296875 6.0625 28.375 6.0625 
Q 34.125 6.0625 38.328125 11.0625 
Q 42.53125 16.0625 42.53125 25.984375 
Q 42.53125 36.140625 38.5 40.96875 
Q 34.46875 45.796875 28.765625 45.796875 
Q 23 45.796875 18.796875 40.796875 
Q 14.59375 35.796875 14.59375 26.3125 
z
" id="ArialMT-98"/>
       <path d="M 6.5 0 
L 6.5 51.859375 
L 14.40625 51.859375 
L 14.40625 44 
Q 17.4375 49.515625 20 51.265625 
Q 22.5625 53.03125 25.640625 53.03125 
Q 30.078125 53.03125 34.671875 50.203125 
L 31.640625 42.046875 
Q 28.421875 43.953125 25.203125 43.953125 
Q 22.3125 43.953125 20.015625 42.21875 
Q 17.71875 40.484375 16.75 37.40625 
Q 15.28125 32.71875 15.28125 27.15625 
L 15.28125 0 
z
" id="ArialMT-114"/>
       <path d="M 8.6875 0 
L 8.6875 45.015625 
L 0.921875 45.015625 
L 0.921875 51.859375 
L 8.6875 51.859375 
L 8.6875 57.375 
Q 8.6875 62.59375 9.625 65.140625 
Q 10.890625 68.5625 14.078125 70.671875 
Q 17.28125 72.796875 23.046875 72.796875 
Q 26.765625 72.796875 31.25 71.921875 
L 29.9375 64.265625 
Q 27.203125 64.75 24.75 64.75 
Q 20.75 64.75 19.09375 63.03125 
Q 17.4375 61.328125 17.4375 56.640625 
L 17.4375 51.859375 
L 27.546875 51.859375 
L 27.546875 45.015625 
L 17.4375 45.015625 
L 17.4375 0 
z
" id="ArialMT-102"/>
       <path d="M 6.59375 -19.875 
L 6.59375 51.859375 
L 14.59375 51.859375 
L 14.59375 45.125 
Q 17.4375 49.078125 21 51.046875 
Q 24.5625 53.03125 29.640625 53.03125 
Q 36.28125 53.03125 41.359375 49.609375 
Q 46.4375 46.1875 49.015625 39.953125 
Q 51.609375 33.734375 51.609375 26.3125 
Q 51.609375 18.359375 48.75 11.984375 
Q 45.90625 5.609375 40.453125 2.21875 
Q 35.015625 -1.171875 29 -1.171875 
Q 24.609375 -1.171875 21.109375 0.6875 
Q 17.625 2.546875 15.375 5.375 
L 15.375 -19.875 
z
M 14.546875 25.640625 
Q 14.546875 15.625 18.59375 10.84375 
Q 22.65625 6.0625 28.421875 6.0625 
Q 34.28125 6.0625 38.453125 11.015625 
Q 42.625 15.96875 42.625 26.375 
Q 42.625 36.28125 38.546875 41.203125 
Q 34.46875 46.140625 28.8125 46.140625 
Q 23.1875 46.140625 18.859375 40.890625 
Q 14.546875 35.640625 14.546875 25.640625 
z
" id="ArialMT-112"/>
      </defs>
      <use xlink:href="#ArialMT-78"/>
      <use x="72.216797" xlink:href="#ArialMT-117"/>
      <use x="127.832031" xlink:href="#ArialMT-109"/>
      <use x="211.132812" xlink:href="#ArialMT-98"/>
      <use x="266.748047" xlink:href="#ArialMT-101"/>
      <use x="322.363281" xlink:href="#ArialMT-114"/>
      <use x="355.664062" xlink:href="#ArialMT-32"/>
      <use x="383.447266" xlink:href="#ArialMT-111"/>
      <use x="439.0625" xlink:href="#ArialMT-102"/>
      <use x="466.845703" xlink:href="#ArialMT-32"/>
      <use x="494.628906" xlink:href="#ArialMT-115"/>
      <use x="544.628906" xlink:href="#ArialMT-97"/>
      <use x="600.244141" xlink:href="#ArialMT-109"/>
      <use x="683.544922" xlink:href="#ArialMT-112"/>
      <use x="739.160156" xlink:href="#ArialMT-108"/>
      <use x="761.376953" xlink:href="#ArialMT-101"/>
      <use x="816.992188" xlink:href="#ArialMT-115"/>
     </g>
    </g>
   </g>
   <g id="patch_73">
    <path d="M 57.6 307.584 
L 57.6 41.472 
" style="fill:none;stroke:#000000;stroke-linecap:square;stroke-linejoin:miter;stroke-width:0.8;"/>
   </g>
   <g id="patch_74">
    <path d="M 414.72 307.584 
L 414.72 41.472 
" style="fill:none;stroke:#000000;stroke-linecap:square;stroke-linejoin:miter;stroke-width:0.8;"/>
   </g>
   <g id="patch_75">
    <path d="M 57.6 307.584 
L 414.72 307.584 
" style="fill:none;stroke:#000000;stroke-linecap:square;stroke-linejoin:miter;stroke-width:0.8;"/>
   </g>
   <g id="patch_76">
    <path d="M 57.6 41.472 
L 414.72 41.472 
" style="fill:none;stroke:#000000;stroke-linecap:square;stroke-linejoin:miter;stroke-width:0.8;"/>
   </g>
   <g id="legend_1">
    <g id="patch_77">
     <path d="M 70.56 65.37375 
L 99.36 65.37375 
L 99.36 55.29375 
L 70.56 55.29375 
z
" style="fill:#2f79b5;"/>
    </g>
    <g id="text_16">
     <!-- USA300 samples -->
     <g transform="translate(110.88 65.37375)scale(0.144 -0.144)">
      <defs>
       <path d="M 8.6875 72.90625 
L 18.609375 72.90625 
L 18.609375 28.609375 
Q 18.609375 16.890625 22.84375 11.734375 
Q 27.09375 6.59375 36.625 6.59375 
Q 46.09375 6.59375 50.34375 11.734375 
Q 54.59375 16.890625 54.59375 28.609375 
L 54.59375 72.90625 
L 64.5 72.90625 
L 64.5 27.390625 
Q 64.5 13.140625 57.4375 5.859375 
Q 50.390625 -1.421875 36.625 -1.421875 
Q 22.796875 -1.421875 15.734375 5.859375 
Q 8.6875 13.140625 8.6875 27.390625 
z
" id="DejaVuSans-85"/>
       <path d="M 53.515625 70.515625 
L 53.515625 60.890625 
Q 47.90625 63.578125 42.921875 64.890625 
Q 37.9375 66.21875 33.296875 66.21875 
Q 25.25 66.21875 20.875 63.09375 
Q 16.5 59.96875 16.5 54.203125 
Q 16.5 49.359375 19.40625 46.890625 
Q 22.3125 44.4375 30.421875 42.921875 
L 36.375 41.703125 
Q 47.40625 39.59375 52.65625 34.296875 
Q 57.90625 29 57.90625 20.125 
Q 57.90625 9.515625 50.796875 4.046875 
Q 43.703125 -1.421875 29.984375 -1.421875 
Q 24.8125 -1.421875 18.96875 -0.25 
Q 13.140625 0.921875 6.890625 3.21875 
L 6.890625 13.375 
Q 12.890625 10.015625 18.65625 8.296875 
Q 24.421875 6.59375 29.984375 6.59375 
Q 38.421875 6.59375 43.015625 9.90625 
Q 47.609375 13.234375 47.609375 19.390625 
Q 47.609375 24.75 44.3125 27.78125 
Q 41.015625 30.8125 33.5 32.328125 
L 27.484375 33.5 
Q 16.453125 35.6875 11.515625 40.375 
Q 6.59375 45.0625 6.59375 53.421875 
Q 6.59375 63.09375 13.40625 68.65625 
Q 20.21875 74.21875 32.171875 74.21875 
Q 37.3125 74.21875 42.625 73.28125 
Q 47.953125 72.359375 53.515625 70.515625 
z
" id="DejaVuSans-83"/>
       <path d="M 34.1875 63.1875 
L 20.796875 26.90625 
L 47.609375 26.90625 
z
M 28.609375 72.90625 
L 39.796875 72.90625 
L 67.578125 0 
L 57.328125 0 
L 50.6875 18.703125 
L 17.828125 18.703125 
L 11.1875 0 
L 0.78125 0 
z
" id="DejaVuSans-65"/>
       <path id="DejaVuSans-32"/>
       <path d="M 44.28125 53.078125 
L 44.28125 44.578125 
Q 40.484375 46.53125 36.375 47.5 
Q 32.28125 48.484375 27.875 48.484375 
Q 21.1875 48.484375 17.84375 46.4375 
Q 14.5 44.390625 14.5 40.28125 
Q 14.5 37.15625 16.890625 35.375 
Q 19.28125 33.59375 26.515625 31.984375 
L 29.59375 31.296875 
Q 39.15625 29.25 43.1875 25.515625 
Q 47.21875 21.78125 47.21875 15.09375 
Q 47.21875 7.46875 41.1875 3.015625 
Q 35.15625 -1.421875 24.609375 -1.421875 
Q 20.21875 -1.421875 15.453125 -0.5625 
Q 10.6875 0.296875 5.421875 2 
L 5.421875 11.28125 
Q 10.40625 8.6875 15.234375 7.390625 
Q 20.0625 6.109375 24.8125 6.109375 
Q 31.15625 6.109375 34.5625 8.28125 
Q 37.984375 10.453125 37.984375 14.40625 
Q 37.984375 18.0625 35.515625 20.015625 
Q 33.0625 21.96875 24.703125 23.78125 
L 21.578125 24.515625 
Q 13.234375 26.265625 9.515625 29.90625 
Q 5.8125 33.546875 5.8125 39.890625 
Q 5.8125 47.609375 11.28125 51.796875 
Q 16.75 56 26.8125 56 
Q 31.78125 56 36.171875 55.265625 
Q 40.578125 54.546875 44.28125 53.078125 
z
" id="DejaVuSans-115"/>
       <path d="M 34.28125 27.484375 
Q 23.390625 27.484375 19.1875 25 
Q 14.984375 22.515625 14.984375 16.5 
Q 14.984375 11.71875 18.140625 8.90625 
Q 21.296875 6.109375 26.703125 6.109375 
Q 34.1875 6.109375 38.703125 11.40625 
Q 43.21875 16.703125 43.21875 25.484375 
L 43.21875 27.484375 
z
M 52.203125 31.203125 
L 52.203125 0 
L 43.21875 0 
L 43.21875 8.296875 
Q 40.140625 3.328125 35.546875 0.953125 
Q 30.953125 -1.421875 24.3125 -1.421875 
Q 15.921875 -1.421875 10.953125 3.296875 
Q 6 8.015625 6 15.921875 
Q 6 25.140625 12.171875 29.828125 
Q 18.359375 34.515625 30.609375 34.515625 
L 43.21875 34.515625 
L 43.21875 35.40625 
Q 43.21875 41.609375 39.140625 45 
Q 35.0625 48.390625 27.6875 48.390625 
Q 23 48.390625 18.546875 47.265625 
Q 14.109375 46.140625 10.015625 43.890625 
L 10.015625 52.203125 
Q 14.9375 54.109375 19.578125 55.046875 
Q 24.21875 56 28.609375 56 
Q 40.484375 56 46.34375 49.84375 
Q 52.203125 43.703125 52.203125 31.203125 
z
" id="DejaVuSans-97"/>
       <path d="M 52 44.1875 
Q 55.375 50.25 60.0625 53.125 
Q 64.75 56 71.09375 56 
Q 79.640625 56 84.28125 50.015625 
Q 88.921875 44.046875 88.921875 33.015625 
L 88.921875 0 
L 79.890625 0 
L 79.890625 32.71875 
Q 79.890625 40.578125 77.09375 44.375 
Q 74.3125 48.1875 68.609375 48.1875 
Q 61.625 48.1875 57.5625 43.546875 
Q 53.515625 38.921875 53.515625 30.90625 
L 53.515625 0 
L 44.484375 0 
L 44.484375 32.71875 
Q 44.484375 40.625 41.703125 44.40625 
Q 38.921875 48.1875 33.109375 48.1875 
Q 26.21875 48.1875 22.15625 43.53125 
Q 18.109375 38.875 18.109375 30.90625 
L 18.109375 0 
L 9.078125 0 
L 9.078125 54.6875 
L 18.109375 54.6875 
L 18.109375 46.1875 
Q 21.1875 51.21875 25.484375 53.609375 
Q 29.78125 56 35.6875 56 
Q 41.65625 56 45.828125 52.96875 
Q 50 49.953125 52 44.1875 
z
" id="DejaVuSans-109"/>
       <path d="M 18.109375 8.203125 
L 18.109375 -20.796875 
L 9.078125 -20.796875 
L 9.078125 54.6875 
L 18.109375 54.6875 
L 18.109375 46.390625 
Q 20.953125 51.265625 25.265625 53.625 
Q 29.59375 56 35.59375 56 
Q 45.5625 56 51.78125 48.09375 
Q 58.015625 40.1875 58.015625 27.296875 
Q 58.015625 14.40625 51.78125 6.484375 
Q 45.5625 -1.421875 35.59375 -1.421875 
Q 29.59375 -1.421875 25.265625 0.953125 
Q 20.953125 3.328125 18.109375 8.203125 
z
M 48.6875 27.296875 
Q 48.6875 37.203125 44.609375 42.84375 
Q 40.53125 48.484375 33.40625 48.484375 
Q 26.265625 48.484375 22.1875 42.84375 
Q 18.109375 37.203125 18.109375 27.296875 
Q 18.109375 17.390625 22.1875 11.75 
Q 26.265625 6.109375 33.40625 6.109375 
Q 40.53125 6.109375 44.609375 11.75 
Q 48.6875 17.390625 48.6875 27.296875 
z
" id="DejaVuSans-112"/>
       <path d="M 9.421875 75.984375 
L 18.40625 75.984375 
L 18.40625 0 
L 9.421875 0 
z
" id="DejaVuSans-108"/>
       <path d="M 56.203125 29.59375 
L 56.203125 25.203125 
L 14.890625 25.203125 
Q 15.484375 15.921875 20.484375 11.0625 
Q 25.484375 6.203125 34.421875 6.203125 
Q 39.59375 6.203125 44.453125 7.46875 
Q 49.3125 8.734375 54.109375 11.28125 
L 54.109375 2.78125 
Q 49.265625 0.734375 44.1875 -0.34375 
Q 39.109375 -1.421875 33.890625 -1.421875 
Q 20.796875 -1.421875 13.15625 6.1875 
Q 5.515625 13.8125 5.515625 26.8125 
Q 5.515625 40.234375 12.765625 48.109375 
Q 20.015625 56 32.328125 56 
Q 43.359375 56 49.78125 48.890625 
Q 56.203125 41.796875 56.203125 29.59375 
z
M 47.21875 32.234375 
Q 47.125 39.59375 43.09375 43.984375 
Q 39.0625 48.390625 32.421875 48.390625 
Q 24.90625 48.390625 20.390625 44.140625 
Q 15.875 39.890625 15.1875 32.171875 
z
" id="DejaVuSans-101"/>
      </defs>
      <use xlink:href="#DejaVuSans-85"/>
      <use x="73.193359" xlink:href="#DejaVuSans-83"/>
      <use x="138.544922" xlink:href="#DejaVuSans-65"/>
      <use x="206.953125" xlink:href="#DejaVuSans-51"/>
      <use x="270.576172" xlink:href="#DejaVuSans-48"/>
      <use x="334.199219" xlink:href="#DejaVuSans-48"/>
      <use x="397.822266" xlink:href="#DejaVuSans-32"/>
      <use x="429.609375" xlink:href="#DejaVuSans-115"/>
      <use x="481.708984" xlink:href="#DejaVuSans-97"/>
      <use x="542.988281" xlink:href="#DejaVuSans-109"/>
      <use x="640.400391" xlink:href="#DejaVuSans-112"/>
      <use x="703.876953" xlink:href="#DejaVuSans-108"/>
      <use x="731.660156" xlink:href="#DejaVuSans-101"/>
      <use x="793.183594" xlink:href="#DejaVuSans-115"/>
     </g>
    </g>
    <g id="patch_78">
     <path d="M 70.56 86.51025 
L 99.36 86.51025 
L 99.36 76.43025 
L 70.56 76.43025 
z
" style="fill:#c13639;"/>
    </g>
    <g id="text_17">
     <!-- NCTC8325 samples -->
     <g transform="translate(110.88 86.51025)scale(0.144 -0.144)">
      <defs>
       <path d="M 9.8125 72.90625 
L 23.09375 72.90625 
L 55.421875 11.921875 
L 55.421875 72.90625 
L 64.984375 72.90625 
L 64.984375 0 
L 51.703125 0 
L 19.390625 60.984375 
L 19.390625 0 
L 9.8125 0 
z
" id="DejaVuSans-78"/>
       <path d="M 64.40625 67.28125 
L 64.40625 56.890625 
Q 59.421875 61.53125 53.78125 63.8125 
Q 48.140625 66.109375 41.796875 66.109375 
Q 29.296875 66.109375 22.65625 58.46875 
Q 16.015625 50.828125 16.015625 36.375 
Q 16.015625 21.96875 22.65625 14.328125 
Q 29.296875 6.6875 41.796875 6.6875 
Q 48.140625 6.6875 53.78125 8.984375 
Q 59.421875 11.28125 64.40625 15.921875 
L 64.40625 5.609375 
Q 59.234375 2.09375 53.4375 0.328125 
Q 47.65625 -1.421875 41.21875 -1.421875 
Q 24.65625 -1.421875 15.125 8.703125 
Q 5.609375 18.84375 5.609375 36.375 
Q 5.609375 53.953125 15.125 64.078125 
Q 24.65625 74.21875 41.21875 74.21875 
Q 47.75 74.21875 53.53125 72.484375 
Q 59.328125 70.75 64.40625 67.28125 
z
" id="DejaVuSans-67"/>
       <path d="M -0.296875 72.90625 
L 61.375 72.90625 
L 61.375 64.59375 
L 35.5 64.59375 
L 35.5 0 
L 25.59375 0 
L 25.59375 64.59375 
L -0.296875 64.59375 
z
" id="DejaVuSans-84"/>
      </defs>
      <use xlink:href="#DejaVuSans-78"/>
      <use x="74.804688" xlink:href="#DejaVuSans-67"/>
      <use x="144.628906" xlink:href="#DejaVuSans-84"/>
      <use x="199.837891" xlink:href="#DejaVuSans-67"/>
      <use x="269.662109" xlink:href="#DejaVuSans-56"/>
      <use x="333.285156" xlink:href="#DejaVuSans-51"/>
      <use x="396.908203" xlink:href="#DejaVuSans-50"/>
      <use x="460.53125" xlink:href="#DejaVuSans-53"/>
      <use x="524.154297" xlink:href="#DejaVuSans-32"/>
      <use x="555.941406" xlink:href="#DejaVuSans-115"/>
      <use x="608.041016" xlink:href="#DejaVuSans-97"/>
      <use x="669.320312" xlink:href="#DejaVuSans-109"/>
      <use x="766.732422" xlink:href="#DejaVuSans-112"/>
      <use x="830.208984" xlink:href="#DejaVuSans-108"/>
      <use x="857.992188" xlink:href="#DejaVuSans-101"/>
      <use x="919.515625" xlink:href="#DejaVuSans-115"/>
     </g>
    </g>
   </g>
  </g>
 </g>
 <defs>
  <clipPath id="pb81f67126e">
   <rect height="266.112" width="357.12" x="57.6" y="41.472"/>
  </clipPath>
 </defs>
</svg>
